{"glyphs":{"0":{"ha":857,"x_min":78,"x_max":779,"o":"m 156 863 q 194 920 156 863 q 428 976 233 976 q 701 863 622 976 q 779 479 779 750 q 701 95 779 208 q 428 -18 622 -18 q 156 95 233 -18 q 78 479 78 208 q 156 863 78 750 m 426 831 q 285 756 324 831 q 247 479 247 681 q 285 203 247 278 q 426 128 324 128 q 571 203 532 128 q 610 479 610 278 q 571 756 610 681 q 426 831 532 831 z "},"1":{"ha":575,"x_min":21,"x_max":433,"o":"m 433 0 l 260 0 l 260 707 q 267 801 260 761 l 42 738 l 21 861 l 260 958 l 433 958 l 433 0 z "},"2":{"ha":790,"x_min":69,"x_max":722,"o":"m 86 807 l 76 940 q 385 975 235 975 q 616 930 540 975 q 692 758 692 885 q 658 601 692 671 q 532 429 625 531 l 278 156 q 426 164 335 164 l 722 164 l 722 0 l 69 0 l 69 104 q 94 176 69 150 l 344 453 q 517 744 518 638 q 481 809 515 794 q 367 824 447 824 q 86 807 233 824 z "},"3":{"ha":779,"x_min":64,"x_max":697,"o":"m 90 819 l 82 951 q 368 976 229 976 q 602 928 532 976 q 672 754 672 879 q 641 589 672 650 q 532 513 610 528 l 532 507 q 658 433 622 492 q 697 267 694 375 q 628 49 700 117 q 382 -18 556 -18 q 64 7 246 -18 l 72 143 q 336 132 239 132 q 484 165 443 132 q 525 288 525 199 q 492 402 525 367 q 363 436 458 438 l 185 436 l 185 565 l 363 565 q 480 601 453 565 q 507 711 507 638 q 473 807 506 786 q 340 828 440 828 q 90 819 190 828 z "},"4":{"ha":871,"x_min":54,"x_max":819,"o":"m 819 351 l 819 235 l 699 217 l 696 217 l 696 0 l 532 0 l 532 217 l 156 217 q 60 268 92 217 q 54 378 29 319 l 310 958 l 478 958 l 235 401 q 265 351 213 351 l 532 351 l 532 618 l 561 774 l 696 774 l 696 351 l 819 351 z "},"5":{"ha":756,"x_min":61,"x_max":688,"o":"m 654 815 l 260 815 l 249 611 l 369 597 q 617 508 544 581 q 688 290 689 435 q 674 176 688 226 q 626 79 660 125 q 527 8 593 33 q 367 -17 461 -17 q 61 15 229 -17 l 79 156 q 324 135 211 135 q 475 170 436 135 q 517 292 514 206 q 514 353 518 328 q 494 397 510 379 q 463 426 478 415 q 410 444 447 436 q 342 455 372 451 q 251 464 313 458 l 160 474 q 115 495 132 475 q 100 543 97 515 l 122 958 l 660 958 l 654 815 z "},"6":{"ha":804,"x_min":81,"x_max":740,"o":"m 678 951 l 667 831 q 467 833 600 833 q 344 814 386 833 q 279 733 303 794 q 251 550 256 671 q 347 613 296 594 q 472 631 397 631 q 682 561 624 631 q 740 321 740 492 q 728 180 740 238 q 682 76 715 122 q 584 6 649 29 q 421 -17 519 -17 q 147 81 214 -17 q 81 468 81 179 q 97 690 81 599 q 141 836 113 781 q 220 923 169 892 q 327 965 271 954 q 467 975 383 975 q 678 951 593 975 m 422 125 q 547 169 518 125 q 575 319 575 213 q 544 458 575 419 q 424 496 513 496 q 250 432 336 496 q 279 183 250 240 q 422 125 308 125 z "},"7":{"ha":721,"x_min":44,"x_max":679,"o":"m 44 958 l 603 958 q 672 930 651 958 q 679 858 693 901 l 386 0 l 214 0 l 467 731 q 503 813 481 778 l 53 813 l 44 958 z "},"8":{"ha":847,"x_min":83,"x_max":765,"o":"m 243 494 l 243 500 q 139 567 172 508 q 106 719 106 626 q 172 915 106 857 q 424 974 239 974 q 676 916 610 974 q 743 719 743 858 q 709 567 743 626 q 604 500 675 508 l 604 494 q 729 420 693 486 q 765 239 765 354 q 694 43 765 101 q 424 -17 624 -15 q 156 42 228 -18 q 83 239 83 101 q 119 420 83 354 q 243 494 154 486 m 553 813 q 538 827 553 813 q 425 842 522 842 q 295 813 328 842 q 263 701 263 783 q 295 590 263 618 q 426 563 328 563 q 555 590 525 563 q 585 701 585 618 q 553 813 585 783 m 426 432 q 283 399 318 431 q 247 276 247 368 q 283 158 247 189 q 425 126 318 126 q 565 158 531 126 q 600 276 600 189 q 566 401 600 369 q 426 432 532 432 z "},"9":{"ha":804,"x_min":67,"x_max":722,"o":"m 108 7 l 121 129 q 336 125 193 125 q 501 184 456 125 q 554 413 547 243 q 457 347 508 365 q 329 328 406 328 q 67 638 67 328 q 139 894 65 814 q 389 975 213 975 q 534 960 476 975 q 630 913 592 944 q 688 822 668 882 q 715 685 707 761 q 722 490 722 610 q 702 231 722 331 q 633 77 682 132 q 516 3 583 22 q 338 -17 449 -17 q 108 7 203 -17 m 379 461 q 466 476 428 461 q 556 528 504 490 q 552 654 556 610 q 540 739 549 699 q 513 797 532 779 q 464 824 493 814 q 388 833 435 833 q 260 788 292 833 q 231 639 229 743 q 262 503 229 546 q 379 461 294 461 z "}," ":{"ha":306,"x_min":0,"x_max":0,"o":""},"!":{"ha":399,"x_min":115,"x_max":283,"o":"m 283 569 l 265 300 l 133 300 l 115 569 l 115 965 l 283 965 l 283 569 m 181 190 l 221 190 q 267 177 254 190 q 281 131 281 164 l 281 60 q 267 13 281 26 q 221 0 254 0 l 181 0 q 133 13 146 0 q 119 60 119 26 l 119 131 q 133 177 119 164 q 181 190 146 190 z "},"\"":{"ha":510,"x_min":83,"x_max":428,"o":"m 203 656 l 93 656 l 83 958 l 214 958 l 203 656 m 417 656 l 308 656 l 297 958 l 428 958 l 417 656 z "},"#":{"ha":969,"x_min":50,"x_max":918,"o":"m 746 604 l 707 386 l 860 386 l 839 283 l 690 283 l 640 0 l 511 0 l 560 283 l 342 283 l 292 0 l 163 0 l 211 283 l 50 283 l 69 386 l 229 386 l 267 604 l 108 604 l 128 708 l 285 708 l 329 958 l 458 958 l 415 708 l 633 708 l 678 958 l 807 958 l 764 708 l 918 708 l 897 604 l 746 604 m 615 604 l 397 604 l 358 386 l 578 386 l 615 604 z "},"$":{"ha":792,"x_min":69,"x_max":731,"o":"m 453 556 l 535 531 q 687 428 643 496 q 731 251 731 361 q 656 38 731 93 q 392 -17 582 -17 l 389 -17 l 376 -169 l 300 -169 l 314 -15 q 81 14 203 -10 l 92 146 l 328 142 l 351 413 l 263 440 q 114 541 158 474 q 69 718 69 608 q 142 925 69 875 q 397 975 214 975 l 414 975 l 425 1106 l 500 1106 l 489 974 q 697 943 608 967 l 686 819 q 475 824 507 824 l 453 556 m 378 579 l 400 825 q 274 806 306 824 q 243 715 243 788 q 267 631 243 656 q 351 588 290 607 l 378 579 m 424 389 l 403 140 q 525 163 494 142 q 556 253 556 185 q 534 338 556 314 q 454 379 513 361 l 424 389 z "},"%":{"ha":1251,"x_min":54,"x_max":1196,"o":"m 106 913 q 131 944 106 913 q 286 976 157 976 q 467 913 415 976 q 518 692 518 849 q 466 472 518 536 q 286 407 414 407 q 106 472 158 407 q 54 692 54 536 q 106 913 54 849 m 383 0 l 271 0 l 865 958 l 976 958 l 383 0 m 369 838 q 357 857 369 838 q 285 876 346 876 q 202 838 224 876 q 181 692 181 799 q 202 545 181 583 q 285 507 224 507 q 369 545 346 507 q 392 692 392 583 q 369 838 392 799 m 785 491 q 810 523 785 491 q 964 556 836 556 q 1144 491 1092 556 q 1196 271 1196 426 q 1144 49 1196 113 q 964 -15 1093 -15 q 785 49 836 -15 q 733 271 733 113 q 785 491 733 426 m 964 454 q 880 417 901 454 q 860 271 858 379 q 881 124 858 163 q 964 85 903 85 q 1047 124 1025 85 q 1069 271 1069 163 q 1047 417 1069 379 q 964 454 1025 454 z "},"&":{"ha":1065,"x_min":81,"x_max":1008,"o":"m 990 128 l 1008 8 q 844 -15 940 -15 q 672 93 706 -15 q 544 10 614 35 q 365 -15 474 -15 q 146 42 211 -15 q 81 243 81 100 q 124 422 81 358 q 269 494 168 486 l 269 500 q 147 563 183 508 q 110 724 110 617 q 128 856 110 807 q 197 932 147 906 q 308 966 246 958 q 476 974 369 974 q 700 958 608 974 l 679 832 q 471 836 615 836 q 323 810 360 836 q 286 697 286 785 q 318 587 286 615 q 438 558 350 558 l 668 558 l 681 717 l 822 717 l 822 558 l 982 558 l 982 432 l 822 432 l 822 207 q 838 145 822 163 q 897 128 854 128 l 990 128 m 664 432 l 428 432 q 299 399 335 432 q 264 275 264 365 q 295 160 264 190 q 413 131 326 131 q 664 211 567 133 l 664 432 z "},"'":{"ha":296,"x_min":83,"x_max":214,"o":"m 203 656 l 93 656 l 83 958 l 214 958 l 203 656 z "},"(":{"ha":503,"x_min":63,"x_max":469,"o":"m 450 1097 l 469 1022 q 284 816 342 963 q 226 435 226 669 q 469 -154 226 -32 l 450 -229 q 156 1 250 -160 q 63 433 63 163 q 156 868 63 707 q 450 1097 250 1029 z "},")":{"ha":503,"x_min":33,"x_max":442,"o":"m 33 1022 l 54 1097 q 348 868 254 1029 q 442 433 442 707 q 348 1 442 163 q 54 -229 254 -160 l 33 -154 q 276 435 276 -32 q 219 816 276 669 q 33 1022 161 963 z "},"*":{"ha":625,"x_min":61,"x_max":564,"o":"m 346 732 l 490 553 l 414 496 l 313 665 l 211 497 l 133 553 l 278 731 l 264 960 l 361 960 l 346 732 m 564 751 l 393 710 l 371 736 l 371 778 l 533 843 l 564 751 m 253 778 l 253 736 l 233 710 l 61 753 l 92 843 l 253 778 z "},"+":{"ha":758,"x_min":68,"x_max":690,"o":"m 690 354 l 442 354 l 442 117 l 315 117 l 315 354 l 68 354 l 68 479 l 315 479 l 315 717 l 442 717 l 442 479 l 690 479 l 690 354 z "},",":{"ha":331,"x_min":81,"x_max":247,"o":"m 143 190 l 189 190 q 235 177 222 190 q 247 131 247 164 l 247 42 q 186 -194 246 -89 l 110 -174 q 128 0 128 -89 q 81 53 81 0 l 81 131 q 97 177 82 164 q 143 190 111 190 z "},"-":{"ha":594,"x_min":89,"x_max":506,"o":"m 506 293 l 89 293 l 89 413 l 506 413 l 506 293 z "},".":{"ha":333,"x_min":81,"x_max":253,"o":"m 142 190 l 192 190 q 240 177 226 190 q 253 131 253 164 l 253 60 q 240 13 253 26 q 192 0 226 0 l 142 0 q 94 13 107 0 q 81 60 81 26 l 81 131 q 94 177 81 164 q 142 190 107 190 z "},"/":{"ha":742,"x_min":31,"x_max":711,"o":"m 165 -96 l 31 -96 l 576 958 l 711 958 l 165 -96 z "},":":{"ha":349,"x_min":82,"x_max":254,"o":"m 143 619 l 193 619 q 241 606 228 619 q 254 560 254 593 l 254 489 q 241 442 254 456 q 193 429 228 429 l 143 429 q 95 442 108 429 q 82 489 82 456 l 82 560 q 95 606 82 593 q 143 619 108 619 m 143 190 l 193 190 q 241 178 228 190 q 254 131 254 165 l 254 61 q 241 13 254 26 q 193 0 228 0 l 143 0 q 95 13 108 0 q 82 61 82 26 l 82 131 q 95 178 82 165 q 143 190 108 190 z "},";":{"ha":350,"x_min":92,"x_max":263,"o":"m 151 619 l 203 619 q 249 606 236 619 q 263 560 263 593 l 263 489 q 249 442 263 456 q 203 429 236 429 l 151 429 q 105 442 118 429 q 92 489 92 456 l 92 560 q 105 606 92 593 q 151 619 118 619 m 154 190 l 199 190 q 245 177 232 190 q 258 131 258 164 l 258 42 q 196 -194 257 -86 l 121 -174 q 139 0 138 -99 q 92 53 92 0 l 92 131 q 108 177 94 164 q 154 190 121 190 z "},"<":{"ha":726,"x_min":64,"x_max":639,"o":"m 639 583 l 207 417 l 639 250 l 639 118 l 64 350 l 64 482 l 639 717 l 639 583 z "},"=":{"ha":808,"x_min":92,"x_max":717,"o":"m 717 496 l 92 496 l 92 618 l 717 618 l 717 496 m 717 201 l 92 201 l 92 324 l 717 324 l 717 201 z "},">":{"ha":726,"x_min":88,"x_max":663,"o":"m 663 482 l 663 350 l 88 118 l 88 250 l 519 417 l 88 583 l 88 717 l 663 482 z "},"?":{"ha":706,"x_min":47,"x_max":657,"o":"m 54 839 l 47 957 q 93 966 60 960 q 138 974 126 972 q 180 979 150 975 q 232 985 210 983 q 290 988 254 986 q 368 989 326 989 q 585 936 514 989 q 657 774 657 883 q 633 669 657 717 q 573 585 608 621 q 502 511 538 549 q 440 419 467 474 q 408 300 413 365 l 268 300 q 287 428 267 369 q 338 527 307 488 q 399 601 368 567 q 454 672 431 636 q 479 742 478 707 q 447 823 482 797 q 331 849 411 849 q 54 839 219 849 m 318 190 l 358 190 q 406 177 393 190 q 419 131 419 164 l 419 60 q 406 13 419 26 q 358 0 393 0 l 318 0 q 270 13 283 0 q 257 60 257 26 l 257 131 q 270 177 257 164 q 318 190 283 190 z "},"@":{"ha":1024,"x_min":89,"x_max":935,"o":"m 504 825 l 708 825 q 878 775 821 825 q 935 608 935 725 l 935 186 l 810 186 l 794 285 q 685 206 753 240 q 540 172 617 172 q 403 217 456 172 q 351 346 351 263 l 351 414 q 394 523 351 483 q 517 563 436 563 l 776 563 l 776 604 q 755 674 776 656 q 675 692 733 692 l 504 692 q 405 690 438 692 q 338 677 372 689 q 290 648 303 665 q 264 591 276 631 q 249 503 251 551 q 247 371 247 454 q 248 283 247 319 q 253 214 249 247 q 261 159 258 181 q 277 118 264 138 q 298 88 290 99 q 329 67 306 76 q 368 55 353 58 q 419 49 383 51 q 481 46 456 46 q 558 46 507 46 l 933 46 l 933 -74 q 558 -89 739 -89 q 376 -85 446 -90 q 250 -60 307 -81 q 165 -13 193 -40 q 117 72 136 14 q 94 195 99 129 q 89 371 89 261 q 93 544 89 479 q 114 665 97 608 q 156 748 131 721 q 231 795 181 775 q 343 820 282 815 q 504 825 404 825 m 776 468 l 579 463 q 522 447 538 461 q 506 397 506 432 l 506 375 q 579 299 506 299 q 684 318 629 299 q 776 374 739 338 l 776 468 z "},"A":{"ha":883,"x_min":7,"x_max":876,"o":"m 619 271 l 264 271 l 185 0 l 7 0 l 294 913 q 357 958 307 958 l 526 958 q 589 913 576 958 l 876 0 l 699 0 l 619 271 m 578 414 l 482 744 q 461 826 463 819 l 424 826 l 401 744 l 306 414 l 578 414 z "},"B":{"ha":872,"x_min":107,"x_max":803,"o":"m 610 500 l 610 494 q 758 422 714 485 q 803 239 803 358 q 732 42 803 94 q 489 -11 661 -11 q 107 0 239 -11 l 107 958 q 446 969 225 969 q 702 917 631 969 q 774 719 774 865 q 735 562 774 615 q 610 500 696 508 m 278 560 l 451 560 q 574 588 540 560 q 607 697 607 617 q 571 803 607 776 q 438 829 535 829 l 278 829 l 278 560 m 278 131 l 460 129 q 594 158 558 129 q 629 271 629 186 q 592 399 629 365 q 454 433 554 432 l 278 433 l 278 131 z "},"C":{"ha":803,"x_min":74,"x_max":758,"o":"m 743 150 l 758 19 q 464 -17 643 -17 q 161 94 249 -17 q 74 479 74 206 q 161 864 74 753 q 464 975 249 975 q 739 944 624 975 l 722 813 q 464 822 601 822 q 301 749 344 822 q 257 479 257 676 q 301 209 257 282 q 464 136 344 136 q 743 150 640 136 z "},"D":{"ha":932,"x_min":107,"x_max":857,"o":"m 107 0 l 107 958 q 465 971 297 971 q 770 864 683 971 q 857 479 857 757 q 770 94 857 201 q 465 -12 683 -12 q 107 0 297 -12 m 281 825 l 281 136 q 465 133 389 133 q 629 208 585 133 q 674 479 674 282 q 628 751 674 676 q 465 826 583 826 q 367 826 428 826 q 281 825 307 825 z "},"E":{"ha":789,"x_min":99,"x_max":726,"o":"m 718 140 l 726 8 q 304 -3 600 -3 q 155 46 210 -3 q 99 179 100 94 l 99 779 q 155 913 100 864 q 304 961 210 961 q 726 950 600 961 l 718 817 l 343 817 q 290 799 306 817 q 274 736 274 781 l 274 568 l 667 568 l 667 435 l 274 435 l 274 221 q 290 158 274 176 q 343 140 306 140 l 718 140 z "},"F":{"ha":758,"x_min":104,"x_max":718,"o":"m 708 817 l 361 817 q 297 799 315 817 q 279 736 279 781 l 279 551 l 657 551 l 657 417 l 279 417 l 279 0 l 104 0 l 104 772 q 160 911 104 861 q 310 961 215 961 q 718 949 596 961 l 708 817 z "},"G":{"ha":882,"x_min":75,"x_max":800,"o":"m 800 553 l 800 0 l 671 0 l 656 94 q 375 -18 536 -18 q 146 102 217 -18 q 75 483 75 222 q 167 872 75 767 q 494 976 258 976 q 769 944 654 976 l 756 815 q 503 824 621 824 q 386 813 428 824 q 313 766 344 803 q 269 660 281 729 q 257 474 257 592 q 294 206 257 281 q 429 132 332 132 q 631 199 522 132 l 631 553 l 800 553 z "},"H":{"ha":942,"x_min":107,"x_max":833,"o":"m 833 958 l 833 0 l 660 0 l 660 439 l 281 439 l 281 0 l 107 0 l 107 958 l 281 958 l 281 582 l 660 582 l 660 958 l 833 958 z "},"I":{"ha":388,"x_min":107,"x_max":281,"o":"m 281 0 l 107 0 l 107 958 l 281 958 l 281 0 z "},"J":{"ha":492,"x_min":35,"x_max":388,"o":"m 388 958 l 388 211 q 335 43 388 101 q 188 -15 283 -15 q 35 8 94 -15 l 53 129 l 118 129 q 215 215 215 129 l 215 958 l 388 958 z "},"K":{"ha":850,"x_min":107,"x_max":835,"o":"m 365 432 l 271 432 q 281 338 281 388 l 281 0 l 107 0 l 107 958 l 281 958 l 281 676 q 271 565 281 615 l 365 565 l 628 958 l 817 958 l 558 572 q 494 500 535 535 l 494 496 q 569 414 543 456 l 835 0 l 640 0 l 365 432 z "},"L":{"ha":724,"x_min":104,"x_max":700,"o":"m 278 958 l 278 224 q 296 162 278 179 q 360 144 314 144 l 693 144 l 700 10 q 319 -3 564 -3 q 104 196 104 -3 l 104 958 l 278 958 z "},"M":{"ha":1242,"x_min":89,"x_max":1154,"o":"m 868 958 l 1047 958 q 1115 890 1113 958 l 1154 0 l 983 0 l 951 818 l 925 818 l 760 181 q 688 122 744 122 l 554 122 q 481 181 496 122 l 313 818 l 289 818 l 258 0 l 89 0 l 125 890 q 193 958 128 958 l 374 958 q 444 900 431 958 l 581 381 q 610 250 583 371 l 631 250 q 660 382 646 331 l 796 900 q 868 958 811 958 z "},"N":{"ha":993,"x_min":107,"x_max":886,"o":"m 886 958 l 886 64 q 822 0 886 0 l 685 0 q 613 53 635 0 l 343 640 q 286 783 294 744 l 269 783 q 278 639 278 725 l 278 0 l 107 0 l 107 894 q 172 958 107 958 l 307 958 q 351 946 335 958 q 379 906 367 933 l 640 335 q 669 269 644 325 q 707 183 694 214 l 724 183 q 717 339 717 271 l 717 958 l 886 958 z "},"O":{"ha":938,"x_min":74,"x_max":864,"o":"m 468 976 q 777 869 690 976 q 864 479 864 763 q 777 89 864 196 q 468 -18 690 -18 q 160 89 247 -18 q 74 479 74 196 q 160 869 74 763 q 468 976 247 976 m 468 828 q 302 753 347 828 q 257 479 257 679 q 302 205 257 279 q 468 131 347 131 q 635 205 590 131 q 681 479 681 279 q 635 753 681 679 q 468 828 590 828 z "},"P":{"ha":835,"x_min":107,"x_max":783,"o":"m 107 0 l 107 958 q 454 971 231 971 q 713 906 643 971 q 783 663 783 842 q 717 419 783 483 q 476 354 650 354 q 281 365 374 354 l 281 0 l 107 0 m 281 496 l 450 496 q 575 531 542 497 q 608 663 608 565 q 575 794 608 760 q 450 828 542 828 l 281 828 l 281 496 z "},"Q":{"ha":940,"x_min":75,"x_max":865,"o":"m 162 869 q 205 923 162 869 q 469 976 249 976 q 778 869 690 976 q 865 479 865 761 q 778 90 865 197 q 469 -18 690 -18 q 162 89 249 -18 q 75 479 75 196 q 162 869 75 763 m 469 828 q 303 753 349 828 q 257 479 257 679 q 303 205 257 279 q 469 131 349 131 q 637 205 592 131 q 682 479 682 279 q 637 753 682 679 q 469 828 592 828 m 363 -154 l 406 -53 q 806 -144 579 -114 l 751 -311 q 363 -154 567 -267 z "},"R":{"ha":874,"x_min":107,"x_max":824,"o":"m 824 0 l 639 0 l 563 297 q 451 383 536 383 l 279 385 l 279 0 l 107 0 l 107 958 q 456 971 231 971 q 713 910 638 971 q 789 690 789 850 q 747 520 789 579 q 610 449 706 461 l 610 442 q 688 397 651 432 q 738 300 724 363 l 824 0 m 279 526 l 451 526 q 578 560 544 528 q 613 679 613 592 q 578 797 613 767 q 451 828 544 828 l 279 828 l 279 526 z "},"S":{"ha":792,"x_min":67,"x_max":731,"o":"m 453 379 l 260 440 q 111 541 156 474 q 67 718 67 608 q 140 925 67 875 q 396 975 213 975 q 697 943 572 975 l 686 819 q 401 825 528 825 q 274 806 306 825 q 242 715 242 788 q 265 631 242 656 q 349 588 288 607 l 533 531 q 687 428 643 496 q 731 251 731 361 q 656 38 731 93 q 390 -17 581 -17 q 79 14 232 -17 l 90 142 q 394 136 333 136 q 522 158 490 136 q 554 253 554 181 q 533 338 554 314 q 453 379 511 361 z "},"T":{"ha":822,"x_min":29,"x_max":793,"o":"m 793 810 l 497 810 l 497 0 l 322 0 l 322 810 l 29 810 l 29 958 l 793 958 l 793 810 z "},"U":{"ha":932,"x_min":100,"x_max":832,"o":"m 832 958 l 832 375 q 751 71 832 160 q 474 -18 671 -18 q 184 71 268 -18 q 100 375 100 160 l 100 958 l 274 958 l 274 375 q 316 184 274 238 q 467 131 358 131 q 615 184 574 131 q 657 375 657 238 l 657 958 l 832 958 z "},"V":{"ha":864,"x_min":15,"x_max":849,"o":"m 849 958 l 578 49 q 514 0 564 0 l 350 0 q 310 13 328 0 q 288 49 293 26 l 15 958 l 194 958 l 390 239 q 403 185 394 222 q 415 132 411 149 l 450 132 q 476 239 458 176 l 669 958 l 849 958 z "},"W":{"ha":1335,"x_min":40,"x_max":1294,"o":"m 1294 958 l 1129 49 q 1106 13 1124 26 q 1065 0 1089 0 l 883 0 q 819 50 829 0 l 699 718 q 681 831 692 756 l 653 831 q 635 718 640 750 l 515 50 q 493 14 511 28 q 450 0 475 0 l 269 0 q 228 13 246 0 q 206 49 210 26 l 40 958 l 221 958 l 335 260 q 350 129 343 213 l 379 129 q 401 260 392 210 l 519 903 q 583 958 529 958 l 753 958 q 794 943 776 958 q 815 903 811 928 l 933 258 q 953 129 947 189 l 983 129 q 991 192 986 149 q 999 257 996 236 l 1114 958 l 1294 958 z "},"X":{"ha":869,"x_min":24,"x_max":846,"o":"m 447 433 l 421 433 l 207 0 l 24 0 l 278 493 l 42 958 l 224 958 l 419 558 l 449 558 l 644 958 l 828 958 l 590 493 l 846 0 l 661 0 l 447 433 z "},"Y":{"ha":818,"x_min":7,"x_max":810,"o":"m 496 324 l 496 0 l 322 0 l 322 326 l 7 958 l 190 958 l 365 586 q 404 471 375 564 l 415 471 q 454 586 444 564 l 629 958 l 810 958 l 496 324 z "},"Z":{"ha":797,"x_min":63,"x_max":736,"o":"m 736 142 l 736 0 l 63 0 l 63 142 l 535 817 l 71 817 l 71 958 l 726 958 l 726 817 l 254 142 l 736 142 z "},"[":{"ha":471,"x_min":115,"x_max":421,"o":"m 421 960 l 296 960 q 272 935 272 960 l 272 -97 q 296 -122 272 -122 l 421 -122 l 421 -229 l 208 -229 q 115 -136 115 -229 l 115 974 q 142 1040 115 1014 q 208 1067 168 1067 l 421 1067 l 421 960 z "},"\\":{"ha":743,"x_min":31,"x_max":713,"o":"m 713 -96 l 576 -96 l 31 958 l 167 958 l 713 -96 z "},"]":{"ha":471,"x_min":50,"x_max":356,"o":"m 50 1067 l 261 1067 q 329 1040 303 1067 q 356 974 356 1014 l 356 -136 q 329 -203 356 -176 q 261 -229 303 -229 l 50 -229 l 50 -122 l 174 -122 q 197 -97 197 -122 l 197 935 q 174 960 197 960 l 50 960 l 50 1067 z "},"^":{"ha":621,"x_min":42,"x_max":579,"o":"m 579 551 l 513 513 l 317 747 l 306 747 l 108 513 l 42 551 l 250 856 l 372 856 l 579 551 z "},"_":{"ha":789,"x_min":88,"x_max":701,"o":"m 701 -119 l 88 -119 l 88 0 l 701 0 l 701 -119 z "},"`":{"ha":468,"x_min":33,"x_max":381,"o":"m 381 811 l 328 736 l 33 892 l 119 1015 l 381 811 z "},"a":{"ha":775,"x_min":60,"x_max":686,"o":"m 107 547 l 90 667 q 431 700 269 700 q 624 647 563 700 q 686 463 686 594 l 686 0 l 553 0 l 535 104 q 275 -15 428 -15 q 119 37 179 -15 q 60 182 60 89 l 60 251 q 113 378 60 333 q 261 422 165 422 l 517 422 l 517 464 q 490 542 515 522 q 392 561 465 561 q 107 547 285 561 m 228 231 l 228 204 q 317 121 228 121 q 517 201 418 121 l 517 307 l 300 307 q 244 286 260 306 q 228 231 228 267 z "},"b":{"ha":807,"x_min":92,"x_max":743,"o":"m 261 972 l 261 743 q 244 585 261 644 q 494 700 353 700 q 683 617 624 700 q 743 344 743 533 q 673 75 743 167 q 424 -17 603 -17 q 249 -3 344 -17 q 92 35 153 10 l 92 972 l 261 972 m 261 482 l 261 135 q 419 118 342 115 q 535 168 501 119 q 569 344 568 217 q 542 514 568 469 q 431 558 515 558 q 353 540 389 558 q 261 482 317 522 z "},"c":{"ha":692,"x_min":64,"x_max":646,"o":"m 631 136 l 646 25 q 396 -17 544 -17 q 139 64 214 -17 q 64 342 64 144 q 140 619 64 539 q 397 700 215 700 q 635 661 540 700 l 615 556 q 426 558 547 558 q 281 513 321 558 q 240 342 240 467 q 281 169 240 215 q 426 122 321 122 q 631 136 538 122 z "},"d":{"ha":810,"x_min":65,"x_max":715,"o":"m 715 972 l 715 0 l 582 0 l 568 93 q 304 -17 450 -17 q 122 74 179 -17 q 65 344 65 165 q 128 620 65 540 q 326 700 192 700 q 553 640 457 700 q 546 776 546 696 l 546 972 l 715 972 m 546 197 l 546 535 q 376 563 435 563 q 268 520 297 563 q 239 346 239 478 q 267 172 239 217 q 367 126 296 126 q 449 141 414 126 q 546 197 483 156 z "},"e":{"ha":761,"x_min":64,"x_max":703,"o":"m 521 269 l 243 269 q 293 151 253 181 q 425 121 333 121 q 669 138 529 121 l 685 29 q 404 -17 589 -17 q 142 65 219 -17 q 64 342 64 147 q 140 620 64 540 q 393 700 217 700 q 629 641 556 700 q 703 464 703 582 q 521 269 703 269 m 240 388 l 474 388 q 535 467 535 388 q 506 544 535 522 q 400 567 476 567 q 277 530 311 567 q 240 388 243 493 z "},"f":{"ha":549,"x_min":33,"x_max":574,"o":"m 560 867 l 426 867 q 347 845 369 867 q 324 771 324 824 l 324 681 l 522 681 l 522 558 l 324 558 l 324 0 l 154 0 l 154 558 l 33 558 l 33 674 l 154 681 l 154 793 q 204 946 154 893 q 367 999 254 999 q 574 986 500 999 l 560 867 z "},"g":{"ha":789,"x_min":43,"x_max":767,"o":"m 757 599 l 668 589 q 686 481 686 544 q 618 312 686 363 q 379 261 550 261 q 254 271 304 261 q 247 215 238 246 q 294 179 257 183 l 543 144 q 687 83 643 131 q 731 -54 731 36 q 656 -226 731 -179 q 388 -272 582 -272 q 117 -227 190 -272 q 43 -64 43 -182 q 68 22 43 -11 q 150 86 93 56 q 112 197 104 129 q 168 296 119 264 q 72 479 72 342 q 140 650 72 600 q 381 700 208 700 q 551 681 482 700 l 767 681 l 757 599 m 260 401 q 276 390 260 401 q 379 379 293 379 q 498 401 465 379 q 531 481 531 424 q 498 559 531 538 q 379 581 465 581 q 260 559 293 581 q 226 481 226 538 q 260 401 226 424 m 453 26 l 258 50 q 206 -46 206 1 q 240 -122 206 -106 q 386 -137 274 -137 q 533 -121 499 -137 q 568 -47 568 -104 q 547 6 568 -6 q 453 26 526 18 z "},"h":{"ha":819,"x_min":94,"x_max":729,"o":"m 265 972 l 265 722 q 254 585 265 647 q 542 700 406 700 q 681 651 632 700 q 729 511 729 603 l 729 0 l 560 0 l 560 460 q 544 537 560 517 q 488 557 529 557 q 264 474 407 557 l 264 0 l 94 0 l 94 972 l 265 972 z "},"i":{"ha":368,"x_min":96,"x_max":271,"o":"m 144 976 l 222 976 q 271 928 271 976 l 271 851 q 222 803 271 803 l 144 803 q 96 851 96 803 l 96 928 q 144 976 96 976 m 268 0 l 100 0 l 100 681 l 268 681 l 268 0 z "},"j":{"ha":371,"x_min":21,"x_max":274,"o":"m 147 978 l 225 978 q 274 929 274 978 l 274 854 q 225 806 274 806 l 147 806 q 99 854 99 806 l 99 929 q 147 978 99 978 m 271 681 l 271 13 q 229 -155 271 -76 q 115 -278 188 -233 l 21 -204 q 101 13 101 -108 l 101 681 l 271 681 z "},"k":{"ha":742,"x_min":94,"x_max":729,"o":"m 331 325 l 256 325 q 264 221 264 253 l 264 0 l 94 0 l 94 972 l 265 972 l 265 558 q 256 439 265 493 l 329 439 l 515 681 l 707 681 l 517 439 q 460 382 494 404 l 460 379 q 517 314 488 361 l 729 0 l 538 0 l 331 325 z "},"l":{"ha":436,"x_min":96,"x_max":424,"o":"m 265 972 l 265 213 q 284 153 264 172 q 346 133 304 133 l 404 133 l 424 8 q 279 -15 376 -15 q 145 33 194 -15 q 96 171 96 82 l 96 972 l 265 972 z "},"m":{"ha":1215,"x_min":94,"x_max":1125,"o":"m 232 681 l 242 581 q 508 700 378 700 q 682 586 646 700 q 940 700 810 700 q 1078 651 1031 700 q 1125 511 1125 603 l 1125 0 l 960 0 l 960 460 q 940 535 958 513 q 875 557 922 557 q 799 540 835 557 q 692 475 764 524 l 692 0 l 529 0 l 529 460 q 510 535 531 514 q 444 557 490 557 q 369 540 406 557 q 263 476 333 524 l 263 0 l 94 0 l 94 681 l 232 681 z "},"n":{"ha":819,"x_min":94,"x_max":729,"o":"m 236 681 l 247 581 q 542 700 406 700 q 681 651 632 700 q 729 511 729 603 l 729 0 l 560 0 l 560 460 q 544 537 560 517 q 488 557 529 557 q 391 538 440 557 q 264 474 342 518 l 264 0 l 94 0 l 94 681 l 236 681 z "},"o":{"ha":800,"x_min":64,"x_max":736,"o":"m 401 700 q 660 618 585 700 q 736 340 736 536 q 660 63 736 144 q 401 -18 585 -18 q 140 63 217 -18 q 64 340 64 144 q 140 618 64 536 q 401 700 217 700 m 401 565 q 274 519 307 565 q 240 340 240 472 q 274 163 240 210 q 401 117 307 117 q 527 163 493 117 q 561 340 561 210 q 527 519 561 472 q 401 565 493 565 z "},"p":{"ha":821,"x_min":94,"x_max":756,"o":"m 233 681 l 244 579 q 370 665 292 632 q 524 699 449 699 q 756 335 756 699 q 692 63 756 142 q 494 -17 629 -17 q 258 50 357 -17 q 263 -92 264 -21 l 263 -271 l 94 -271 l 94 681 l 233 681 m 263 475 l 263 150 q 444 121 393 121 q 552 163 522 121 q 582 336 582 206 q 555 512 582 464 q 461 560 528 560 q 372 540 415 560 q 263 475 328 519 z "},"q":{"ha":806,"x_min":64,"x_max":714,"o":"m 714 -271 l 544 -271 l 544 -61 q 558 86 544 26 q 303 -18 435 -18 q 123 69 182 -18 q 64 338 64 156 q 133 610 64 519 q 388 700 203 700 q 558 686 463 700 q 714 649 653 672 l 714 -271 m 546 194 l 546 547 q 385 565 468 568 q 269 514 300 563 q 238 329 238 465 q 263 173 238 219 q 363 126 289 126 q 450 143 410 126 q 546 194 490 160 z "},"r":{"ha":574,"x_min":94,"x_max":556,"o":"m 556 700 l 538 542 l 489 542 q 264 481 417 542 l 264 0 l 94 0 l 94 681 l 226 681 l 242 581 q 522 700 388 700 l 556 700 z "},"s":{"ha":718,"x_min":60,"x_max":661,"o":"m 399 258 l 219 307 q 95 378 131 332 q 60 507 60 424 q 122 658 60 617 q 338 700 185 700 q 639 675 504 697 l 626 558 q 367 564 454 564 q 249 555 275 564 q 222 506 222 546 q 224 488 222 496 q 228 474 226 479 q 235 463 229 468 q 244 456 242 458 q 258 449 247 453 q 274 443 269 444 q 293 438 278 442 q 315 432 308 433 l 499 382 q 624 315 586 357 q 661 186 661 272 q 593 26 661 67 q 357 -15 525 -15 q 72 7 204 -15 l 83 125 q 315 119 156 119 q 462 132 425 119 q 499 185 499 144 q 497 200 499 193 q 493 213 496 207 q 488 222 490 218 q 478 231 485 226 q 467 237 471 235 q 452 242 463 239 q 437 247 442 246 q 418 253 432 249 q 399 258 404 257 z "},"t":{"ha":556,"x_min":31,"x_max":521,"o":"m 321 558 l 321 213 q 339 151 321 168 q 403 133 357 133 l 496 133 l 514 8 q 339 -15 440 -15 q 202 36 250 -15 q 154 183 154 88 l 154 558 l 31 558 l 31 674 l 153 681 l 153 876 l 321 876 l 321 681 l 521 681 l 521 558 l 321 558 z "},"u":{"ha":804,"x_min":90,"x_max":710,"o":"m 710 681 l 710 0 l 576 0 l 564 92 q 279 -18 419 -18 q 90 171 90 -18 l 90 681 l 260 681 l 260 221 q 276 146 258 167 q 343 125 294 125 q 542 200 413 125 l 542 681 l 710 681 z "},"v":{"ha":758,"x_min":17,"x_max":743,"o":"m 743 681 l 510 40 q 453 0 494 0 l 306 0 q 250 40 261 0 l 17 681 l 194 681 l 336 232 q 369 114 367 125 l 388 114 l 424 232 l 564 681 l 743 681 z "},"w":{"ha":1158,"x_min":26,"x_max":1132,"o":"m 1132 681 l 953 46 q 893 0 942 0 l 750 0 q 688 53 697 0 l 606 471 q 597 524 603 486 q 588 582 592 561 l 571 582 l 551 471 l 472 53 q 450 15 468 29 q 408 0 432 0 l 268 0 q 207 46 215 0 l 26 681 l 199 681 l 311 213 q 329 104 326 149 l 347 104 q 354 138 350 117 q 362 178 358 160 q 368 213 365 196 l 451 631 q 511 681 461 681 l 649 681 q 689 667 672 681 q 710 629 706 653 l 790 213 q 801 153 793 192 q 811 104 808 115 l 829 104 q 847 213 842 189 l 960 681 l 1132 681 z "},"x":{"ha":758,"x_min":21,"x_max":738,"o":"m 389 292 l 369 292 l 199 0 l 21 0 l 236 350 l 38 681 l 214 681 l 368 414 l 390 414 l 544 681 l 721 681 l 522 350 l 738 0 l 560 0 l 389 292 z "},"y":{"ha":758,"x_min":17,"x_max":740,"o":"m 740 681 l 488 -21 q 364 -212 447 -136 q 144 -282 281 -289 l 131 -175 q 258 -115 211 -153 q 331 -15 306 -76 l 338 0 l 304 0 q 247 42 258 0 l 17 681 l 196 681 l 344 213 q 367 122 358 169 l 386 122 q 401 169 392 139 q 414 213 410 200 l 560 681 l 740 681 z "},"z":{"ha":719,"x_min":63,"x_max":657,"o":"m 657 129 l 657 0 l 63 0 l 63 129 l 463 551 l 68 551 l 68 681 l 651 681 l 651 551 l 251 129 l 657 129 z "},"{":{"ha":460,"x_min":54,"x_max":411,"o":"m 406 1067 l 406 963 q 315 941 339 963 q 292 863 292 919 l 292 636 q 265 509 293 549 q 157 456 236 469 q 267 394 238 432 q 297 281 296 356 l 297 -26 q 321 -104 297 -83 q 411 -125 344 -125 l 411 -229 q 136 -40 136 -258 l 136 303 q 121 365 136 350 q 54 399 106 379 l 54 513 q 94 525 86 522 q 114 539 101 528 q 128 566 126 550 q 131 614 131 582 l 131 878 q 406 1067 131 1096 z "},"|":{"ha":353,"x_min":117,"x_max":236,"o":"m 236 -235 l 117 -235 l 117 1085 l 236 1085 l 236 -235 z "},"}":{"ha":461,"x_min":50,"x_max":407,"o":"m 56 963 l 56 1067 q 331 878 331 1096 l 331 614 q 338 554 331 572 q 357 531 346 536 q 407 513 368 525 l 407 399 q 368 383 376 388 q 346 368 360 379 q 328 342 332 357 q 325 303 325 328 l 325 -40 q 50 -229 325 -258 l 50 -125 q 140 -104 117 -125 q 164 -26 164 -83 l 164 281 q 194 394 165 356 q 304 456 224 432 q 197 509 225 469 q 169 636 168 549 l 169 863 q 146 941 169 919 q 56 963 122 963 z "},"~":{"ha":721,"x_min":96,"x_max":626,"o":"m 178 307 l 96 307 q 115 450 83 401 q 206 496 147 499 q 356 459 253 493 q 490 422 460 425 q 534 432 524 417 q 544 489 544 447 l 626 489 q 608 348 639 396 q 517 303 576 300 q 360 339 464 304 q 231 376 257 374 q 188 365 197 381 q 178 307 178 350 z "}," ":{"ha":306,"x_min":0,"x_max":0,"o":""},"¡":{"ha":376,"x_min":104,"x_max":272,"o":"m 169 696 l 210 696 q 256 683 243 696 q 269 636 269 669 l 269 564 q 256 518 269 531 q 210 506 243 506 l 169 506 q 122 518 135 506 q 108 564 108 531 l 108 636 q 122 683 108 669 q 169 696 135 696 m 272 126 l 272 -264 l 104 -264 l 104 126 l 122 396 l 254 396 l 272 126 z "},"¢":{"ha":713,"x_min":63,"x_max":646,"o":"m 629 276 l 646 168 q 419 126 554 131 l 407 0 l 332 0 l 344 128 q 126 219 190 138 q 63 485 63 301 q 138 762 63 681 q 397 843 214 843 l 415 842 l 428 958 l 503 958 l 492 838 q 635 804 579 828 l 615 696 q 476 703 571 700 l 435 264 q 629 276 542 264 m 361 268 l 400 703 q 267 651 304 699 q 229 485 229 604 q 259 327 229 376 q 361 268 289 278 z "},"£":{"ha":801,"x_min":71,"x_max":738,"o":"m 738 146 l 738 0 l 76 0 l 76 146 q 167 235 144 176 q 183 382 189 294 l 179 458 l 72 458 l 71 551 l 174 551 l 163 719 q 220 924 154 872 q 438 975 286 975 q 707 961 554 975 l 697 825 q 451 829 599 829 q 354 806 381 829 q 333 714 328 782 l 344 551 l 611 551 l 606 458 l 350 458 l 356 382 q 338 238 361 290 q 257 138 314 186 q 356 146 290 146 l 738 146 z "},"¤":{"ha":818,"x_min":78,"x_max":738,"o":"m 665 160 l 565 260 q 408 211 494 211 q 251 260 322 211 l 154 161 l 78 238 l 176 336 q 131 488 131 404 q 179 646 131 575 l 82 743 l 154 815 l 250 717 q 408 765 322 765 q 567 715 497 765 l 667 815 l 738 743 l 638 644 q 685 488 685 576 q 636 331 685 401 l 738 232 l 665 160 m 408 310 q 533 361 481 308 q 585 489 585 414 q 533 616 585 564 q 408 668 481 668 q 282 616 335 668 q 229 489 229 564 q 282 361 229 414 q 408 310 335 308 z "},"¥":{"ha":882,"x_min":39,"x_max":843,"o":"m 589 463 l 763 463 l 763 368 l 540 368 l 529 346 l 529 301 l 763 301 l 763 208 l 529 208 l 529 0 l 356 0 l 356 208 l 128 208 l 126 301 l 356 301 l 356 344 l 343 368 l 128 368 l 125 463 l 294 463 l 39 958 l 219 958 l 396 599 q 436 483 401 586 l 449 483 q 489 600 469 556 l 664 958 l 843 958 l 589 463 z "},"¦":{"ha":356,"x_min":118,"x_max":238,"o":"m 238 529 l 118 529 l 118 1085 l 238 1085 l 238 529 m 238 -235 l 118 -235 l 118 321 l 238 321 l 238 -235 z "},"§":{"ha":761,"x_min":76,"x_max":686,"o":"m 440 436 l 215 565 q 112 651 147 604 q 76 783 76 697 q 146 937 76 897 q 369 976 215 976 q 675 960 546 974 l 664 832 q 417 839 567 839 q 294 830 331 840 q 256 778 258 819 q 274 717 254 740 q 338 671 294 694 l 540 560 q 670 422 644 506 q 661 224 696 339 l 542 224 q 526 354 547 310 q 440 436 506 399 m 101 517 l 221 517 q 234 385 214 429 q 321 304 254 342 l 546 176 q 651 90 615 138 q 686 -44 686 43 q 615 -200 686 -161 q 394 -239 544 -239 q 86 -222 208 -236 l 99 -94 q 347 -103 194 -101 q 435 -99 406 -103 q 485 -81 464 -96 q 506 -37 506 -67 q 488 24 508 0 q 426 68 467 47 l 224 181 q 93 317 119 233 q 101 517 67 400 z "},"¨":{"ha":581,"x_min":99,"x_max":486,"o":"m 139 976 l 196 976 q 236 933 236 976 l 236 857 q 196 815 236 815 l 139 815 q 99 857 99 815 l 99 933 q 139 976 99 976 m 389 976 l 443 976 q 486 933 486 976 l 486 857 q 443 815 486 815 l 389 815 q 346 857 346 815 l 346 933 q 389 976 346 976 z "},"©":{"ha":1142,"x_min":69,"x_max":1071,"o":"m 215 835 q 287 906 215 835 q 571 976 360 976 q 926 835 782 976 q 1071 479 1071 694 q 926 123 1071 264 q 571 -18 782 -18 q 215 124 360 -18 q 69 479 69 265 q 215 835 69 693 m 863 775 q 803 834 863 775 q 571 893 743 893 q 278 774 399 893 q 157 479 157 656 q 278 184 157 303 q 571 65 399 65 q 863 183 743 65 q 983 479 983 301 q 863 775 983 657 m 769 301 l 779 208 q 578 186 696 186 q 368 252 429 186 q 307 482 307 318 q 368 711 307 644 q 578 778 429 778 q 765 758 688 778 l 754 664 q 576 668 664 668 q 466 628 496 668 q 436 482 436 589 q 465 335 436 374 q 576 296 494 296 q 769 301 693 296 z "},"ª":{"ha":610,"x_min":75,"x_max":522,"o":"m 110 740 l 99 828 q 349 850 232 850 q 478 813 435 850 q 522 686 522 775 l 522 381 l 422 381 l 408 460 q 219 369 331 369 q 115 402 154 369 q 75 494 75 435 l 75 546 q 112 629 75 599 q 213 660 149 660 l 397 660 l 397 688 q 321 749 397 749 q 110 740 260 749 m 196 535 l 196 521 q 212 482 196 493 q 261 471 228 471 q 397 525 326 471 l 397 594 l 256 582 q 196 535 196 578 z "},"«":{"ha":700,"x_min":54,"x_max":638,"o":"m 364 585 l 206 349 l 365 107 l 276 50 l 54 331 l 54 367 l 275 642 l 364 585 m 636 585 l 478 349 l 638 107 l 549 50 l 326 331 l 326 367 l 547 642 l 636 585 z "},"¬":{"ha":815,"x_min":90,"x_max":717,"o":"m 717 478 l 717 186 l 590 186 l 590 354 l 90 354 l 90 478 l 717 478 z "},"­":{"ha":594,"x_min":89,"x_max":506,"o":"m 506 293 l 89 293 l 89 413 l 506 413 l 506 293 z "},"®":{"ha":744,"x_min":64,"x_max":682,"o":"m 374 975 q 592 885 501 975 q 682 667 682 794 q 592 447 682 538 q 374 357 501 357 q 154 447 244 357 q 64 667 64 538 q 154 885 64 794 q 374 975 244 975 m 374 410 q 553 485 478 410 q 628 667 628 561 q 553 849 628 774 q 374 924 478 924 q 192 849 267 924 q 118 667 118 774 q 193 485 118 560 q 374 410 268 410 m 449 661 l 449 658 q 504 606 492 653 l 540 500 l 463 500 l 431 603 q 382 635 418 635 l 308 635 l 308 500 l 235 500 l 235 839 q 383 843 282 843 q 494 822 461 843 q 526 744 526 800 q 449 661 526 671 m 308 686 l 382 686 q 438 698 424 688 q 451 738 453 708 q 438 778 453 768 q 382 788 424 788 l 308 788 l 308 686 z "},"¯":{"ha":556,"x_min":76,"x_max":479,"o":"m 479 835 l 76 835 l 76 951 l 479 951 l 479 835 z "},"°":{"ha":489,"x_min":60,"x_max":429,"o":"m 244 976 q 374 924 319 976 q 429 797 429 872 q 375 668 429 722 q 244 614 321 614 q 114 668 168 614 q 60 797 60 722 q 114 924 60 871 q 244 976 168 976 m 306 859 q 294 871 306 859 q 244 883 282 883 q 182 859 207 883 q 157 797 157 835 q 182 733 157 758 q 244 708 207 708 q 306 733 281 708 q 331 797 331 758 q 306 859 331 835 z "},"±":{"ha":807,"x_min":92,"x_max":715,"o":"m 715 571 l 715 446 l 465 446 l 465 272 l 340 272 l 340 446 l 92 446 l 92 571 l 340 571 l 340 746 l 467 746 l 467 571 l 715 571 m 92 201 l 715 201 l 715 76 l 92 76 l 92 201 z "},"²":{"ha":601,"x_min":75,"x_max":525,"o":"m 86 968 l 81 1065 q 283 1085 186 1085 q 453 1056 401 1085 q 504 943 504 1028 q 399 760 504 861 l 240 610 q 329 614 276 617 l 525 614 l 525 500 l 75 500 l 75 571 q 96 625 75 606 l 251 772 q 363 929 358 874 q 344 966 365 957 q 272 975 322 975 q 86 968 189 975 z "},"³":{"ha":575,"x_min":72,"x_max":506,"o":"m 89 978 l 83 1071 q 281 1086 188 1086 q 444 1058 399 1086 q 490 953 490 1029 q 467 851 490 888 q 383 807 444 815 l 383 804 q 477 760 450 794 q 506 660 504 726 q 458 528 508 568 q 288 489 408 489 q 72 504 197 489 l 78 600 q 254 594 174 594 q 348 612 322 594 q 374 678 374 629 q 352 733 374 714 q 271 751 331 751 l 153 751 l 153 844 l 271 844 q 346 865 328 844 q 364 919 364 885 q 342 968 364 956 q 260 981 321 981 q 89 978 181 981 z "},"´":{"ha":468,"x_min":71,"x_max":419,"o":"m 419 892 l 124 736 l 71 811 l 332 1015 l 419 892 z "},"¶":{"ha":828,"x_min":46,"x_max":704,"o":"m 364 -292 l 364 279 q 120 375 194 294 q 46 625 46 456 q 145 896 46 817 q 479 975 244 975 q 704 951 614 975 l 704 0 l 583 0 l 583 867 q 482 871 519 869 l 482 -292 l 364 -292 z "},"·":{"ha":346,"x_min":88,"x_max":258,"o":"m 147 454 l 199 454 q 245 441 232 454 q 258 393 258 428 l 258 324 q 245 276 258 289 q 199 263 232 263 l 147 263 q 101 276 114 263 q 88 324 88 289 l 88 393 q 101 441 88 428 q 147 454 114 454 z "},"¸":{"ha":336,"x_min":40,"x_max":297,"o":"m 99 -129 l 115 -56 q 258 -62 217 -44 q 297 -146 299 -79 q 222 -291 294 -242 q 40 -326 149 -340 l 64 -244 q 147 -223 114 -246 q 183 -160 181 -200 q 168 -135 185 -140 q 99 -129 151 -129 z "},"¹":{"ha":417,"x_min":36,"x_max":324,"o":"m 324 500 l 193 500 l 193 900 q 199 963 193 942 l 51 929 l 36 1017 l 193 1075 l 324 1075 l 324 500 z "},"º":{"ha":613,"x_min":69,"x_max":544,"o":"m 307 850 q 491 795 438 850 q 544 608 544 740 q 491 423 544 476 q 307 369 438 369 q 122 423 175 369 q 69 608 69 476 q 122 796 69 742 q 307 850 175 850 m 392 722 q 381 737 392 722 q 307 751 369 751 q 222 722 244 751 q 199 608 199 693 q 222 496 199 525 q 307 467 244 467 q 392 496 369 467 q 414 608 414 525 q 392 722 414 693 z "},"»":{"ha":700,"x_min":63,"x_max":646,"o":"m 646 367 l 646 331 l 424 50 l 335 107 l 494 349 l 336 585 l 425 642 l 646 367 m 374 367 l 374 331 l 151 50 l 63 107 l 222 349 l 64 585 l 153 642 l 374 367 z "},"¼":{"ha":1224,"x_min":42,"x_max":1174,"o":"m 199 383 l 199 783 q 204 846 199 818 l 57 813 l 42 900 l 199 958 l 328 958 l 328 383 l 199 383 m 910 958 l 315 0 l 201 0 l 796 958 l 910 958 m 1174 135 l 1106 125 l 1106 0 l 985 0 l 985 124 l 732 124 q 673 151 693 124 q 672 221 653 178 l 835 575 l 957 575 l 807 246 q 809 228 803 235 q 829 221 815 221 l 985 221 l 985 372 l 1006 464 l 1106 464 l 1106 221 l 1174 221 l 1174 135 z "},"½":{"ha":1250,"x_min":42,"x_max":1188,"o":"m 328 383 l 199 383 l 199 783 q 204 846 199 818 l 57 813 l 42 900 l 199 958 l 328 958 l 328 383 m 304 0 l 190 0 l 786 958 l 899 958 l 304 0 m 750 468 l 744 565 q 946 585 849 585 q 1116 556 1064 585 q 1168 443 1168 526 q 1063 260 1168 364 l 904 110 q 993 114 940 117 l 1188 114 l 1188 0 l 739 0 l 739 71 q 758 125 739 106 l 914 272 q 1026 429 1021 372 q 1006 466 1028 457 q 936 475 985 475 q 750 468 853 475 z "},"¾":{"ha":1347,"x_min":68,"x_max":1297,"o":"m 379 688 l 379 685 q 473 641 446 675 q 501 540 500 607 q 453 409 503 449 q 283 369 403 369 q 68 385 193 369 l 74 481 q 249 475 169 475 q 342 492 317 475 q 368 557 368 510 q 347 613 368 593 q 267 632 326 632 l 149 635 l 149 721 l 267 725 q 341 744 324 725 q 358 799 358 764 q 337 849 358 836 q 254 861 315 861 q 85 857 153 861 l 79 951 q 276 965 176 965 q 440 937 394 965 q 485 833 485 908 q 463 732 485 768 q 379 688 440 696 m 1044 958 l 449 0 l 336 0 l 931 958 l 1044 958 m 1297 135 l 1231 125 l 1231 0 l 1110 0 l 1110 124 l 857 124 q 797 151 817 124 q 797 221 776 178 l 960 575 l 1082 575 l 932 246 q 933 228 926 236 q 953 221 939 221 l 1110 221 l 1110 372 l 1131 464 l 1231 464 l 1231 221 l 1297 221 l 1297 135 z "},"¿":{"ha":699,"x_min":46,"x_max":656,"o":"m 347 701 l 386 701 q 434 688 421 701 q 447 642 447 675 l 447 569 q 434 523 447 536 q 386 510 421 510 l 347 510 q 299 523 313 510 q 286 569 286 536 l 286 642 q 299 688 286 675 q 347 701 313 701 m 296 401 l 435 401 q 417 273 438 332 q 366 174 397 214 q 303 99 335 133 q 249 29 272 65 q 224 -42 225 -7 q 256 -122 221 -96 q 374 -147 292 -147 q 649 -137 483 -147 l 656 -256 q 624 -262 649 -257 q 593 -268 600 -267 q 566 -273 586 -269 q 536 -277 546 -276 q 506 -281 526 -278 q 471 -284 486 -283 q 433 -286 456 -285 q 387 -287 411 -287 q 335 -287 363 -287 q 46 -72 46 -287 q 70 33 46 -15 q 130 117 94 81 q 201 190 165 153 q 265 282 238 228 q 296 401 292 336 z "},"À":{"ha":883,"x_min":7,"x_max":876,"o":"m 474 1006 l 178 1161 l 265 1286 l 526 1081 l 474 1006 m 619 271 l 264 271 l 185 0 l 7 0 l 294 913 q 357 958 307 958 l 526 958 q 589 913 576 958 l 876 0 l 699 0 l 619 271 m 578 414 l 482 744 q 461 826 463 819 l 424 826 l 401 744 l 306 414 l 578 414 z "},"Á":{"ha":883,"x_min":7,"x_max":876,"o":"m 390 1006 l 338 1081 l 599 1286 l 685 1161 l 390 1006 m 619 271 l 264 271 l 185 0 l 7 0 l 294 913 q 357 958 307 958 l 526 958 q 589 913 576 958 l 876 0 l 699 0 l 619 271 m 578 414 l 482 744 q 461 826 463 819 l 424 826 l 401 744 l 306 414 l 578 414 z "},"Â":{"ha":883,"x_min":7,"x_max":876,"o":"m 250 1004 l 199 1074 l 382 1257 l 504 1257 l 686 1072 l 633 1004 l 449 1138 l 438 1138 l 250 1004 m 619 271 l 264 271 l 185 0 l 7 0 l 294 913 q 357 958 307 958 l 526 958 q 589 913 576 958 l 876 0 l 699 0 l 619 271 m 578 414 l 482 744 q 461 826 463 819 l 424 826 l 401 744 l 306 414 l 578 414 z "},"Ã":{"ha":883,"x_min":7,"x_max":876,"o":"m 285 1056 l 211 1056 q 232 1193 199 1146 q 322 1236 265 1240 q 435 1201 368 1232 q 538 1167 501 1171 q 585 1176 572 1161 q 597 1229 597 1190 l 671 1229 q 651 1094 683 1142 q 560 1050 619 1046 q 439 1086 507 1054 q 343 1122 371 1118 q 297 1111 308 1126 q 285 1056 285 1096 m 619 271 l 264 271 l 185 0 l 7 0 l 294 913 q 357 958 307 958 l 526 958 q 589 913 576 958 l 876 0 l 699 0 l 619 271 m 578 414 l 482 744 q 461 826 463 819 l 424 826 l 401 744 l 306 414 l 578 414 z "},"Ä":{"ha":883,"x_min":7,"x_max":876,"o":"m 346 1060 l 290 1060 q 249 1101 249 1060 l 249 1178 q 290 1221 249 1221 l 346 1221 q 386 1178 386 1221 l 386 1101 q 346 1060 386 1060 m 594 1060 l 539 1060 q 497 1101 497 1060 l 497 1178 q 539 1221 497 1221 l 594 1221 q 636 1178 636 1221 l 636 1101 q 594 1060 636 1060 m 619 271 l 264 271 l 185 0 l 7 0 l 294 913 q 357 958 307 958 l 526 958 q 589 913 576 958 l 876 0 l 699 0 l 619 271 m 578 414 l 482 744 q 461 826 463 819 l 424 826 l 401 744 l 306 414 l 578 414 z "},"Å":{"ha":883,"x_min":7,"x_max":876,"o":"m 443 990 q 331 1034 376 990 q 285 1143 285 1078 q 331 1253 285 1208 q 443 1297 378 1297 q 553 1253 507 1297 q 600 1143 600 1208 q 554 1034 600 1078 q 443 990 508 990 m 443 1219 q 390 1199 411 1219 q 369 1143 369 1178 q 391 1090 369 1110 q 443 1069 413 1069 q 495 1090 474 1069 q 517 1143 517 1110 q 495 1199 517 1178 q 443 1219 474 1219 m 619 271 l 264 271 l 185 0 l 7 0 l 294 913 q 357 958 307 958 l 526 958 q 589 913 576 958 l 876 0 l 699 0 l 619 271 m 578 414 l 482 744 q 461 826 463 819 l 424 826 l 401 744 l 306 414 l 578 414 z "},"Æ":{"ha":1279,"x_min":-11,"x_max":1217,"o":"m 1208 142 l 1217 8 q 790 -3 1082 -3 q 667 48 714 -3 q 619 179 619 99 l 619 281 l 318 281 l 169 0 l -11 0 l 422 789 q 550 924 474 888 q 786 960 626 960 q 1217 950 1058 960 l 1208 815 l 864 815 q 804 792 826 815 q 782 731 782 769 l 782 569 l 1157 569 l 1157 435 l 782 435 l 782 222 q 801 160 782 178 q 864 142 819 142 l 1208 142 m 619 418 l 619 750 q 656 846 619 813 l 643 846 q 576 767 613 826 l 392 418 l 619 418 z "},"Ç":{"ha":803,"x_min":74,"x_max":758,"o":"m 743 150 l 758 19 q 464 -17 643 -17 q 161 94 249 -17 q 74 479 74 206 q 161 864 74 753 q 464 975 249 975 q 739 944 624 975 l 722 813 q 464 822 601 822 q 301 749 344 822 q 257 479 257 676 q 301 209 257 282 q 464 136 344 136 q 743 150 640 136 m 360 -150 l 376 -76 q 520 -83 479 -65 q 558 -167 561 -100 q 483 -312 556 -262 q 301 -346 410 -361 l 326 -264 q 410 -243 376 -265 q 444 -181 443 -221 q 430 -156 446 -161 q 360 -150 414 -150 z "},"È":{"ha":789,"x_min":99,"x_max":726,"o":"m 464 1029 l 168 1183 l 256 1308 l 517 1104 l 464 1029 m 718 140 l 726 8 q 304 -3 600 -3 q 155 46 210 -3 q 99 179 100 94 l 99 779 q 155 913 100 864 q 304 961 210 961 q 726 950 600 961 l 718 817 l 343 817 q 290 799 306 817 q 274 736 274 781 l 274 568 l 667 568 l 667 435 l 274 435 l 274 221 q 290 158 274 176 q 343 140 306 140 l 718 140 z "},"É":{"ha":789,"x_min":99,"x_max":726,"o":"m 381 1029 l 328 1104 l 589 1308 l 675 1183 l 381 1029 m 718 140 l 726 8 q 304 -3 600 -3 q 155 46 210 -3 q 99 179 100 94 l 99 779 q 155 913 100 864 q 304 961 210 961 q 726 950 600 961 l 718 817 l 343 817 q 290 799 306 817 q 274 736 274 781 l 274 568 l 667 568 l 667 435 l 274 435 l 274 221 q 290 158 274 176 q 343 140 306 140 l 718 140 z "},"Ê":{"ha":789,"x_min":99,"x_max":726,"o":"m 240 1028 l 189 1097 l 372 1279 l 494 1279 l 676 1096 l 624 1028 l 439 1160 l 428 1160 l 240 1028 m 718 140 l 726 8 q 304 -3 600 -3 q 155 46 210 -3 q 99 179 100 94 l 99 779 q 155 913 100 864 q 304 961 210 961 q 726 950 600 961 l 718 817 l 343 817 q 290 799 306 817 q 274 736 274 781 l 274 568 l 667 568 l 667 435 l 274 435 l 274 221 q 290 158 274 176 q 343 140 306 140 l 718 140 z "},"Ë":{"ha":789,"x_min":99,"x_max":726,"o":"m 336 1082 l 281 1082 q 239 1125 239 1082 l 239 1201 q 281 1243 239 1243 l 336 1243 q 376 1201 376 1243 l 376 1125 q 336 1082 376 1082 m 585 1082 l 529 1082 q 488 1125 488 1082 l 488 1201 q 529 1243 488 1243 l 585 1243 q 626 1201 626 1243 l 626 1125 q 585 1082 626 1082 m 718 140 l 726 8 q 304 -3 600 -3 q 155 46 210 -3 q 99 179 100 94 l 99 779 q 155 913 100 864 q 304 961 210 961 q 726 950 600 961 l 718 817 l 343 817 q 290 799 306 817 q 274 736 274 781 l 274 568 l 667 568 l 667 435 l 274 435 l 274 221 q 290 158 274 176 q 343 140 306 140 l 718 140 z "},"Ì":{"ha":388,"x_min":-69,"x_max":281,"o":"m 278 1081 l 225 1006 l -69 1161 l 17 1286 l 278 1081 m 281 0 l 107 0 l 107 958 l 281 958 l 281 0 z "},"Í":{"ha":388,"x_min":89,"x_max":438,"o":"m 438 1161 l 142 1006 l 89 1081 l 350 1286 l 438 1161 m 281 0 l 107 0 l 107 958 l 281 958 l 281 0 z "},"Î":{"ha":388,"x_min":-49,"x_max":439,"o":"m 439 1072 l 385 1004 l 200 1138 l 189 1138 l 3 1004 l -49 1074 l 133 1257 l 256 1257 l 439 1072 m 281 0 l 107 0 l 107 958 l 281 958 l 281 0 z "},"Ï":{"ha":388,"x_min":1,"x_max":388,"o":"m 42 1221 l 97 1221 q 139 1178 139 1221 l 139 1101 q 97 1060 139 1060 l 42 1060 q 1 1101 1 1060 l 1 1178 q 42 1221 1 1221 m 292 1221 l 346 1221 q 388 1178 388 1221 l 388 1101 q 346 1060 388 1060 l 292 1060 q 249 1101 249 1060 l 249 1178 q 292 1221 249 1221 m 281 0 l 107 0 l 107 958 l 281 958 l 281 0 z "},"Ð":{"ha":938,"x_min":26,"x_max":863,"o":"m 113 551 l 113 958 q 471 971 303 971 q 776 865 689 971 q 863 479 863 758 q 776 94 863 200 q 471 -12 689 -12 q 113 0 303 -12 l 113 460 l 26 460 l 26 551 l 113 551 m 288 460 l 288 136 q 471 133 393 133 q 635 208 590 133 q 679 479 679 282 q 634 751 679 676 q 471 826 589 826 q 374 826 435 826 q 288 825 313 825 l 288 551 l 474 551 l 474 460 l 288 460 z "},"Ñ":{"ha":993,"x_min":107,"x_max":886,"o":"m 347 1056 l 274 1056 q 295 1193 261 1146 q 385 1236 329 1240 q 499 1201 432 1232 q 600 1167 565 1171 q 647 1176 635 1161 q 660 1229 660 1190 l 733 1229 q 714 1094 746 1142 q 622 1050 682 1046 q 501 1086 569 1054 q 406 1122 433 1118 q 359 1111 371 1126 q 347 1056 347 1096 m 886 958 l 886 64 q 822 0 886 0 l 685 0 q 613 53 635 0 l 343 640 q 286 783 294 744 l 269 783 q 278 639 278 725 l 278 0 l 107 0 l 107 894 q 172 958 107 958 l 307 958 q 351 946 335 958 q 379 906 367 933 l 640 335 q 669 269 644 325 q 707 183 694 214 l 724 183 q 717 339 717 271 l 717 958 l 886 958 z "},"Ò":{"ha":938,"x_min":74,"x_max":864,"o":"m 550 1081 l 497 1006 l 203 1161 l 289 1286 l 550 1081 m 468 976 q 777 869 690 976 q 864 479 864 763 q 777 89 864 196 q 468 -18 690 -18 q 160 89 247 -18 q 74 479 74 196 q 160 869 74 763 q 468 976 247 976 m 468 828 q 302 753 347 828 q 257 479 257 679 q 302 205 257 279 q 468 131 347 131 q 635 205 590 131 q 681 479 681 279 q 635 753 681 679 q 468 828 590 828 z "},"Ó":{"ha":938,"x_min":74,"x_max":864,"o":"m 710 1161 l 414 1006 l 363 1081 l 622 1286 l 710 1161 m 468 976 q 777 869 690 976 q 864 479 864 763 q 777 89 864 196 q 468 -18 690 -18 q 160 89 247 -18 q 74 479 74 196 q 160 869 74 763 q 468 976 247 976 m 468 828 q 302 753 347 828 q 257 479 257 679 q 302 205 257 279 q 468 131 347 131 q 635 205 590 131 q 681 479 681 279 q 635 753 681 679 q 468 828 590 828 z "},"Ô":{"ha":938,"x_min":74,"x_max":864,"o":"m 711 1072 l 657 1004 l 472 1138 l 461 1138 l 275 1004 l 224 1074 l 407 1257 l 528 1257 l 711 1072 m 468 976 q 777 869 690 976 q 864 479 864 763 q 777 89 864 196 q 468 -18 690 -18 q 160 89 247 -18 q 74 479 74 196 q 160 869 74 763 q 468 976 247 976 m 468 828 q 302 753 347 828 q 257 479 257 679 q 302 205 257 279 q 468 131 347 131 q 635 205 590 131 q 681 479 681 279 q 635 753 681 679 q 468 828 590 828 z "},"Õ":{"ha":938,"x_min":74,"x_max":864,"o":"m 310 1056 l 236 1056 q 257 1193 224 1146 q 347 1236 290 1240 q 460 1201 393 1232 q 563 1167 526 1171 q 610 1176 597 1161 q 622 1229 622 1190 l 696 1229 q 676 1094 708 1142 q 585 1050 644 1046 q 463 1086 532 1054 q 368 1122 394 1118 q 322 1111 333 1126 q 310 1056 310 1096 m 468 976 q 777 869 690 976 q 864 479 864 763 q 777 89 864 196 q 468 -18 690 -18 q 160 89 247 -18 q 74 479 74 196 q 160 869 74 763 q 468 976 247 976 m 468 828 q 302 753 347 828 q 257 479 257 679 q 302 205 257 279 q 468 131 347 131 q 635 205 590 131 q 681 479 681 279 q 635 753 681 679 q 468 828 590 828 z "},"Ö":{"ha":938,"x_min":74,"x_max":864,"o":"m 314 1221 l 371 1221 q 411 1178 411 1221 l 411 1101 q 371 1060 411 1060 l 314 1060 q 274 1101 274 1060 l 274 1178 q 314 1221 274 1221 m 564 1221 l 618 1221 q 661 1178 661 1221 l 661 1101 q 618 1060 661 1060 l 564 1060 q 522 1101 522 1060 l 522 1178 q 564 1221 522 1221 m 468 976 q 777 869 690 976 q 864 479 864 763 q 777 89 864 196 q 468 -18 690 -18 q 160 89 247 -18 q 74 479 74 196 q 160 869 74 763 q 468 976 247 976 m 468 828 q 302 753 347 828 q 257 479 257 679 q 302 205 257 279 q 468 131 347 131 q 635 205 590 131 q 681 479 681 279 q 635 753 681 679 q 468 828 590 828 z "},"×":{"ha":675,"x_min":50,"x_max":631,"o":"m 50 579 l 550 131 l 631 228 l 132 676 l 50 579 z "},"Ø":{"ha":938,"x_min":74,"x_max":864,"o":"m 763 1015 l 719 921 q 830 766 796 871 q 864 479 864 661 q 777 89 864 196 q 468 -18 690 -18 q 290 4 363 -18 l 249 -85 l 171 -53 l 215 39 q 107 194 140 89 q 74 479 74 299 q 160 869 74 763 q 468 976 247 976 q 643 956 576 976 l 686 1047 l 763 1015 m 296 214 l 575 808 q 468 828 535 828 q 302 753 347 828 q 257 479 257 679 q 296 214 257 290 m 639 749 l 360 151 q 468 131 401 131 q 635 205 590 131 q 681 479 681 279 q 639 749 681 675 z "},"Ù":{"ha":932,"x_min":100,"x_max":832,"o":"m 550 1081 l 497 1006 l 203 1161 l 289 1286 l 550 1081 m 832 958 l 832 375 q 751 71 832 160 q 474 -18 671 -18 q 184 71 268 -18 q 100 375 100 160 l 100 958 l 274 958 l 274 375 q 316 184 274 238 q 467 131 358 131 q 615 184 574 131 q 657 375 657 238 l 657 958 l 832 958 z "},"Ú":{"ha":932,"x_min":100,"x_max":832,"o":"m 710 1161 l 414 1006 l 363 1081 l 622 1286 l 710 1161 m 832 958 l 832 375 q 751 71 832 160 q 474 -18 671 -18 q 184 71 268 -18 q 100 375 100 160 l 100 958 l 274 958 l 274 375 q 316 184 274 238 q 467 131 358 131 q 615 184 574 131 q 657 375 657 238 l 657 958 l 832 958 z "},"Û":{"ha":932,"x_min":100,"x_max":832,"o":"m 711 1072 l 657 1004 l 472 1138 l 461 1138 l 275 1004 l 224 1074 l 407 1257 l 528 1257 l 711 1072 m 832 958 l 832 375 q 751 71 832 160 q 474 -18 671 -18 q 184 71 268 -18 q 100 375 100 160 l 100 958 l 274 958 l 274 375 q 316 184 274 238 q 467 131 358 131 q 615 184 574 131 q 657 375 657 238 l 657 958 l 832 958 z "},"Ü":{"ha":932,"x_min":100,"x_max":832,"o":"m 314 1221 l 371 1221 q 411 1178 411 1221 l 411 1101 q 371 1060 411 1060 l 314 1060 q 274 1101 274 1060 l 274 1178 q 314 1221 274 1221 m 564 1221 l 618 1221 q 661 1178 661 1221 l 661 1101 q 618 1060 661 1060 l 564 1060 q 522 1101 522 1060 l 522 1178 q 564 1221 522 1221 m 832 958 l 832 375 q 751 71 832 160 q 474 -18 671 -18 q 184 71 268 -18 q 100 375 100 160 l 100 958 l 274 958 l 274 375 q 316 184 274 238 q 467 131 358 131 q 615 184 574 131 q 657 375 657 238 l 657 958 l 832 958 z "},"Ý":{"ha":818,"x_min":7,"x_max":810,"o":"m 356 1006 l 303 1081 l 564 1286 l 651 1161 l 356 1006 m 496 324 l 496 0 l 322 0 l 322 326 l 7 958 l 190 958 l 365 586 q 404 471 375 564 l 415 471 q 454 586 444 564 l 629 958 l 810 958 l 496 324 z "},"Þ":{"ha":835,"x_min":107,"x_max":781,"o":"m 282 958 l 282 794 q 454 796 329 796 q 710 730 640 796 q 781 482 781 664 q 714 236 781 301 q 475 171 647 171 q 282 182 374 171 l 282 0 l 107 0 l 107 782 l 107 783 l 107 958 l 282 958 m 282 314 l 449 314 q 573 349 540 315 q 606 482 606 382 q 573 618 606 583 q 449 653 540 653 l 282 653 l 282 314 z "},"ß":{"ha":960,"x_min":32,"x_max":921,"o":"m 682 429 l 804 364 q 895 290 869 328 q 921 181 921 251 q 861 27 921 69 q 663 -15 801 -15 q 438 0 560 -15 l 447 121 q 625 117 543 117 q 728 129 703 117 q 754 188 754 142 q 750 216 754 204 q 730 241 746 228 q 705 260 714 254 q 664 283 696 265 l 542 347 q 433 508 433 406 q 440 557 433 536 q 465 599 446 578 q 493 629 485 621 q 537 662 501 638 q 579 692 572 686 q 640 748 624 725 q 656 803 656 771 q 624 859 656 840 q 492 878 592 878 q 356 851 390 878 q 322 744 322 825 l 322 0 l 153 0 l 153 557 l 32 557 l 32 681 l 153 681 l 153 764 q 231 960 153 910 q 485 1010 308 1010 q 741 966 669 1010 q 813 810 813 922 q 791 718 813 758 q 706 631 769 678 q 661 599 690 618 q 622 571 632 579 q 603 547 613 563 q 593 514 593 532 q 606 480 593 496 q 631 457 619 464 q 682 429 643 450 z "},"à":{"ha":775,"x_min":60,"x_max":686,"o":"m 411 756 l 117 911 l 203 1035 l 464 831 l 411 756 m 107 547 l 90 667 q 431 700 269 700 q 624 647 563 700 q 686 463 686 594 l 686 0 l 553 0 l 535 104 q 275 -15 428 -15 q 119 37 179 -15 q 60 182 60 89 l 60 251 q 113 378 60 333 q 261 422 165 422 l 517 422 l 517 464 q 490 542 515 522 q 392 561 465 561 q 107 547 285 561 m 228 231 l 228 204 q 317 121 228 121 q 517 201 418 121 l 517 307 l 300 307 q 244 286 260 306 q 228 231 228 267 z "},"á":{"ha":775,"x_min":60,"x_max":686,"o":"m 328 756 l 275 831 l 536 1035 l 624 911 l 328 756 m 107 547 l 90 667 q 431 700 269 700 q 624 647 563 700 q 686 463 686 594 l 686 0 l 553 0 l 535 104 q 275 -15 428 -15 q 119 37 179 -15 q 60 182 60 89 l 60 251 q 113 378 60 333 q 261 422 165 422 l 517 422 l 517 464 q 490 542 515 522 q 392 561 465 561 q 107 547 285 561 m 228 231 l 228 204 q 317 121 228 121 q 517 201 418 121 l 517 307 l 300 307 q 244 286 260 306 q 228 231 228 267 z "},"â":{"ha":775,"x_min":60,"x_max":686,"o":"m 189 754 l 138 824 l 319 1006 l 442 1006 l 625 822 l 571 754 l 386 888 l 375 888 l 189 754 m 107 547 l 90 667 q 431 700 269 700 q 624 647 563 700 q 686 463 686 594 l 686 0 l 553 0 l 535 104 q 275 -15 428 -15 q 119 37 179 -15 q 60 182 60 89 l 60 251 q 113 378 60 333 q 261 422 165 422 l 517 422 l 517 464 q 490 542 515 522 q 392 561 465 561 q 107 547 285 561 m 228 231 l 228 204 q 317 121 228 121 q 517 201 418 121 l 517 307 l 300 307 q 244 286 260 306 q 228 231 228 267 z "},"ã":{"ha":775,"x_min":60,"x_max":686,"o":"m 224 804 l 150 804 q 171 942 138 894 q 260 985 204 989 q 374 951 307 981 q 476 917 440 921 q 523 926 511 911 q 535 978 535 940 l 610 978 q 590 843 622 890 q 499 800 558 796 q 377 836 446 804 q 282 872 308 868 q 235 860 247 876 q 224 804 224 844 m 107 547 l 90 667 q 431 700 269 700 q 624 647 563 700 q 686 463 686 594 l 686 0 l 553 0 l 535 104 q 275 -15 428 -15 q 119 37 179 -15 q 60 182 60 89 l 60 251 q 113 378 60 333 q 261 422 165 422 l 517 422 l 517 464 q 490 542 515 522 q 392 561 465 561 q 107 547 285 561 m 228 231 l 228 204 q 317 121 228 121 q 517 201 418 121 l 517 307 l 300 307 q 244 286 260 306 q 228 231 228 267 z "},"ä":{"ha":775,"x_min":60,"x_max":686,"o":"m 285 810 l 228 810 q 188 851 188 810 l 188 928 q 228 971 188 971 l 285 971 q 325 928 325 971 l 325 851 q 285 810 325 810 m 532 810 l 478 810 q 435 851 435 810 l 435 928 q 478 971 435 971 l 532 971 q 575 928 575 971 l 575 851 q 532 810 575 810 m 107 547 l 90 667 q 431 700 269 700 q 624 647 563 700 q 686 463 686 594 l 686 0 l 553 0 l 535 104 q 275 -15 428 -15 q 119 37 179 -15 q 60 182 60 89 l 60 251 q 113 378 60 333 q 261 422 165 422 l 517 422 l 517 464 q 490 542 515 522 q 392 561 465 561 q 107 547 285 561 m 228 231 l 228 204 q 317 121 228 121 q 517 201 418 121 l 517 307 l 300 307 q 244 286 260 306 q 228 231 228 267 z "},"å":{"ha":775,"x_min":60,"x_max":686,"o":"m 382 740 q 269 784 315 740 q 224 893 224 828 q 269 1003 224 958 q 382 1047 315 1047 q 492 1003 446 1047 q 539 893 539 958 q 493 784 539 828 q 382 740 447 740 m 382 969 q 328 949 349 969 q 308 893 308 928 q 329 838 308 858 q 382 818 350 818 q 433 838 413 818 q 454 893 454 858 q 433 949 454 928 q 382 969 413 969 m 107 547 l 90 667 q 431 700 269 700 q 624 647 563 700 q 686 463 686 594 l 686 0 l 553 0 l 535 104 q 275 -15 428 -15 q 119 37 179 -15 q 60 182 60 89 l 60 251 q 113 378 60 333 q 261 422 165 422 l 517 422 l 517 464 q 490 542 515 522 q 392 561 465 561 q 107 547 285 561 m 228 231 l 228 204 q 317 121 228 121 q 517 201 418 121 l 517 307 l 300 307 q 244 286 260 306 q 228 231 228 267 z "},"æ":{"ha":1208,"x_min":60,"x_max":1151,"o":"m 969 269 l 692 269 q 742 151 701 181 q 875 121 782 121 q 1118 138 978 121 l 1133 29 q 853 -17 1038 -17 q 660 17 733 -17 q 553 122 588 50 q 275 -15 439 -15 q 119 37 179 -15 q 60 182 60 89 l 60 251 q 113 377 60 332 q 260 422 165 422 l 515 422 l 515 464 q 490 542 515 522 q 390 561 464 561 q 106 547 283 561 l 90 667 q 429 700 269 700 q 622 647 561 700 q 843 700 694 700 q 1077 642 1004 700 q 1151 464 1150 583 q 969 269 1151 269 m 689 388 l 922 388 q 983 467 983 388 q 955 544 983 522 q 850 567 926 567 q 726 530 760 567 q 689 388 692 493 m 228 231 l 228 204 q 249 140 228 160 q 317 121 269 121 q 525 210 425 121 q 514 307 515 258 l 300 307 q 244 286 260 306 q 228 231 228 267 z "},"ç":{"ha":692,"x_min":64,"x_max":646,"o":"m 631 136 l 646 25 q 396 -17 544 -17 q 139 64 214 -17 q 64 342 64 144 q 140 619 64 539 q 397 700 215 700 q 635 661 540 700 l 615 556 q 426 558 547 558 q 281 513 321 558 q 240 342 240 467 q 281 169 240 215 q 426 122 321 122 q 631 136 538 122 m 294 -147 l 311 -74 q 455 -80 414 -62 q 493 -164 496 -97 q 417 -309 490 -260 q 236 -343 344 -358 l 261 -261 q 344 -240 311 -262 q 379 -178 378 -218 q 365 -153 381 -158 q 294 -147 349 -147 z "},"è":{"ha":761,"x_min":64,"x_max":703,"o":"m 426 756 l 131 911 l 218 1035 l 479 831 l 426 756 m 521 269 l 243 269 q 293 151 253 181 q 425 121 333 121 q 669 138 529 121 l 685 29 q 404 -17 589 -17 q 142 65 219 -17 q 64 342 64 147 q 140 620 64 540 q 393 700 217 700 q 629 641 556 700 q 703 464 703 582 q 521 269 703 269 m 240 388 l 474 388 q 535 467 535 388 q 506 544 535 522 q 400 567 476 567 q 277 530 311 567 q 240 388 243 493 z "},"é":{"ha":761,"x_min":64,"x_max":703,"o":"m 343 756 l 290 831 l 551 1035 l 639 911 l 343 756 m 521 269 l 243 269 q 293 151 253 181 q 425 121 333 121 q 669 138 529 121 l 685 29 q 404 -17 589 -17 q 142 65 219 -17 q 64 342 64 147 q 140 620 64 540 q 393 700 217 700 q 629 641 556 700 q 703 464 703 582 q 521 269 703 269 m 240 388 l 474 388 q 535 467 535 388 q 506 544 535 522 q 400 567 476 567 q 277 530 311 567 q 240 388 243 493 z "},"ê":{"ha":761,"x_min":64,"x_max":703,"o":"m 204 754 l 153 824 l 335 1006 l 457 1006 l 640 822 l 586 754 l 401 888 l 390 888 l 204 754 m 521 269 l 243 269 q 293 151 253 181 q 425 121 333 121 q 669 138 529 121 l 685 29 q 404 -17 589 -17 q 142 65 219 -17 q 64 342 64 147 q 140 620 64 540 q 393 700 217 700 q 629 641 556 700 q 703 464 703 582 q 521 269 703 269 m 240 388 l 474 388 q 535 467 535 388 q 506 544 535 522 q 400 567 476 567 q 277 530 311 567 q 240 388 243 493 z "},"ë":{"ha":761,"x_min":64,"x_max":703,"o":"m 299 810 l 243 810 q 203 851 203 810 l 203 928 q 243 971 203 971 l 299 971 q 340 928 340 971 l 340 851 q 299 810 340 810 m 547 810 l 492 810 q 450 851 450 810 l 450 928 q 492 971 450 971 l 547 971 q 589 928 589 971 l 589 851 q 547 810 589 810 m 521 269 l 243 269 q 293 151 253 181 q 425 121 333 121 q 669 138 529 121 l 685 29 q 404 -17 589 -17 q 142 65 219 -17 q 64 342 64 147 q 140 620 64 540 q 393 700 217 700 q 629 641 556 700 q 703 464 703 582 q 521 269 703 269 m 240 388 l 474 388 q 535 467 535 388 q 506 544 535 522 q 400 567 476 567 q 277 530 311 567 q 240 388 243 493 z "},"ì":{"ha":369,"x_min":-79,"x_max":269,"o":"m 269 831 l 217 756 l -79 911 l 8 1035 l 269 831 m 269 0 l 100 0 l 100 681 l 269 681 l 269 0 z "},"í":{"ha":369,"x_min":81,"x_max":428,"o":"m 428 911 l 133 756 l 81 831 l 342 1035 l 428 911 m 269 0 l 100 0 l 100 681 l 269 681 l 269 0 z "},"î":{"ha":369,"x_min":-57,"x_max":429,"o":"m 429 822 l 376 754 l 192 888 l 181 888 l -6 754 l -57 824 l 125 1006 l 247 1006 l 429 822 m 269 0 l 100 0 l 100 681 l 269 681 l 269 0 z "},"ï":{"ha":369,"x_min":-8,"x_max":379,"o":"m 33 971 l 89 971 q 131 928 131 971 l 131 851 q 89 810 131 810 l 33 810 q -8 851 -8 810 l -8 928 q 33 971 -8 971 m 282 971 l 338 971 q 379 928 379 971 l 379 851 q 338 810 379 810 l 282 810 q 240 851 240 810 l 240 928 q 282 971 240 971 m 269 0 l 100 0 l 100 681 l 269 681 l 269 0 z "},"ð":{"ha":789,"x_min":65,"x_max":715,"o":"m 632 931 l 547 863 q 715 396 715 717 q 643 83 715 185 q 389 -18 571 -18 q 144 59 222 -18 q 65 301 65 136 q 133 544 65 464 q 354 625 200 625 q 524 588 450 625 q 435 772 500 710 l 335 693 l 279 760 l 360 824 q 168 851 288 856 l 185 969 q 472 914 351 978 l 576 999 l 632 931 m 390 117 q 512 179 483 117 q 540 400 540 242 q 540 436 540 413 q 539 471 539 460 q 388 490 472 490 q 274 447 307 490 q 242 304 242 403 q 276 158 242 200 q 390 117 310 117 z "},"ñ":{"ha":819,"x_min":94,"x_max":729,"o":"m 261 804 l 188 804 q 208 942 175 896 q 299 985 242 989 q 413 951 346 981 q 514 917 479 921 q 561 926 549 911 q 574 978 574 940 l 647 978 q 628 843 660 890 q 536 800 596 796 q 415 836 483 804 q 319 872 347 868 q 273 860 285 876 q 261 804 261 844 m 236 681 l 247 581 q 542 700 406 700 q 681 651 632 700 q 729 511 729 603 l 729 0 l 560 0 l 560 460 q 544 537 560 517 q 488 557 529 557 q 391 538 440 557 q 264 474 342 518 l 264 0 l 94 0 l 94 681 l 236 681 z "},"ò":{"ha":800,"x_min":64,"x_max":736,"o":"m 483 831 l 431 756 l 136 911 l 222 1035 l 483 831 m 401 700 q 660 618 585 700 q 736 340 736 536 q 660 63 736 144 q 401 -18 585 -18 q 140 63 217 -18 q 64 340 64 144 q 140 618 64 536 q 401 700 217 700 m 401 565 q 274 519 307 565 q 240 340 240 472 q 274 163 240 210 q 401 117 307 117 q 527 163 493 117 q 561 340 561 210 q 527 519 561 472 q 401 565 493 565 z "},"ó":{"ha":800,"x_min":64,"x_max":736,"o":"m 643 911 l 347 756 l 294 831 l 556 1035 l 643 911 m 401 700 q 660 618 585 700 q 736 340 736 536 q 660 63 736 144 q 401 -18 585 -18 q 140 63 217 -18 q 64 340 64 144 q 140 618 64 536 q 401 700 217 700 m 401 565 q 274 519 307 565 q 240 340 240 472 q 274 163 240 210 q 401 117 307 117 q 527 163 493 117 q 561 340 561 210 q 527 519 561 472 q 401 565 493 565 z "},"ô":{"ha":800,"x_min":64,"x_max":736,"o":"m 644 822 l 590 754 l 406 888 l 394 888 l 208 754 l 157 824 l 339 1006 l 461 1006 l 644 822 m 401 700 q 660 618 585 700 q 736 340 736 536 q 660 63 736 144 q 401 -18 585 -18 q 140 63 217 -18 q 64 340 64 144 q 140 618 64 536 q 401 700 217 700 m 401 565 q 274 519 307 565 q 240 340 240 472 q 274 163 240 210 q 401 117 307 117 q 527 163 493 117 q 561 340 561 210 q 527 519 561 472 q 401 565 493 565 z "},"õ":{"ha":800,"x_min":64,"x_max":736,"o":"m 243 804 l 168 804 q 190 942 156 894 q 279 985 224 989 q 393 951 326 981 q 494 917 460 921 q 542 926 531 911 q 554 978 554 940 l 628 978 q 609 843 640 890 q 518 800 578 796 q 397 836 465 804 q 301 872 328 868 q 254 861 265 876 q 243 804 243 846 m 401 700 q 660 618 585 700 q 736 340 736 536 q 660 63 736 144 q 401 -18 585 -18 q 140 63 217 -18 q 64 340 64 144 q 140 618 64 536 q 401 700 217 700 m 401 565 q 274 519 307 565 q 240 340 240 472 q 274 163 240 210 q 401 117 307 117 q 527 163 493 117 q 561 340 561 210 q 527 519 561 472 q 401 565 493 565 z "},"ö":{"ha":800,"x_min":64,"x_max":736,"o":"m 247 971 l 303 971 q 344 928 344 971 l 344 851 q 303 810 344 810 l 247 810 q 207 851 207 810 l 207 928 q 247 971 207 971 m 497 971 l 551 971 q 593 928 593 971 l 593 851 q 551 810 593 810 l 497 810 q 454 851 454 810 l 454 928 q 497 971 454 971 m 401 700 q 660 618 585 700 q 736 340 736 536 q 660 63 736 144 q 401 -18 585 -18 q 140 63 217 -18 q 64 340 64 144 q 140 618 64 536 q 401 700 217 700 m 401 565 q 274 519 307 565 q 240 340 240 472 q 274 163 240 210 q 401 117 307 117 q 527 163 493 117 q 561 340 561 210 q 527 519 561 472 q 401 565 493 565 z "},"÷":{"ha":778,"x_min":76,"x_max":701,"o":"m 367 749 l 408 749 q 456 735 443 749 q 469 688 469 722 l 469 631 q 456 583 469 596 q 408 571 443 571 l 367 571 q 319 583 332 571 q 306 631 306 596 l 306 688 q 319 735 306 722 q 367 749 332 749 m 701 347 l 76 347 l 76 469 l 701 469 l 701 347 m 367 244 l 408 244 q 456 231 443 244 q 469 183 469 218 l 469 128 q 456 80 469 93 q 408 67 443 67 l 367 67 q 319 80 332 67 q 306 128 306 93 l 306 183 q 319 231 306 218 q 367 244 332 244 z "},"ø":{"ha":800,"x_min":64,"x_max":736,"o":"m 633 763 l 589 668 q 701 554 667 633 q 736 340 736 475 q 660 63 736 144 q 401 -18 585 -18 q 275 -7 335 -18 l 226 -114 l 161 -83 l 207 15 q 98 130 132 51 q 64 340 64 208 q 140 618 64 536 q 401 700 217 700 q 519 689 464 700 l 568 794 l 633 763 m 275 163 l 460 560 q 401 565 438 565 q 274 519 307 565 q 240 340 240 472 q 275 163 240 208 m 522 525 l 336 124 q 401 117 358 117 q 527 163 493 117 q 561 340 561 210 q 522 525 561 479 z "},"ù":{"ha":804,"x_min":90,"x_max":710,"o":"m 436 764 l 142 918 l 228 1043 l 489 839 l 436 764 m 710 681 l 710 0 l 576 0 l 564 92 q 279 -18 419 -18 q 90 171 90 -18 l 90 681 l 260 681 l 260 221 q 276 146 258 167 q 343 125 294 125 q 542 200 413 125 l 542 681 l 710 681 z "},"ú":{"ha":804,"x_min":90,"x_max":710,"o":"m 353 764 l 301 839 l 561 1043 l 649 918 l 353 764 m 710 681 l 710 0 l 576 0 l 564 92 q 279 -18 419 -18 q 90 171 90 -18 l 90 681 l 260 681 l 260 221 q 276 146 258 167 q 343 125 294 125 q 542 200 413 125 l 542 681 l 710 681 z "},"û":{"ha":804,"x_min":90,"x_max":710,"o":"m 214 763 l 163 832 l 346 1014 l 467 1014 l 650 831 l 596 763 l 411 894 l 400 894 l 214 763 m 710 681 l 710 0 l 576 0 l 564 92 q 279 -18 419 -18 q 90 171 90 -18 l 90 681 l 260 681 l 260 221 q 276 146 258 167 q 343 125 294 125 q 542 200 413 125 l 542 681 l 710 681 z "},"ü":{"ha":804,"x_min":90,"x_max":710,"o":"m 310 818 l 253 818 q 213 860 213 818 l 213 936 q 253 978 213 978 l 310 978 q 350 936 350 978 l 350 860 q 310 818 350 818 m 557 818 l 503 818 q 461 860 461 818 l 461 936 q 503 978 461 978 l 557 978 q 600 936 600 978 l 600 860 q 557 818 600 818 m 710 681 l 710 0 l 576 0 l 564 92 q 279 -18 419 -18 q 90 171 90 -18 l 90 681 l 260 681 l 260 221 q 276 146 258 167 q 343 125 294 125 q 542 200 413 125 l 542 681 l 710 681 z "},"ý":{"ha":758,"x_min":17,"x_max":740,"o":"m 329 756 l 278 831 l 538 1035 l 625 911 l 329 756 m 740 681 l 488 -21 q 364 -212 447 -136 q 144 -282 281 -289 l 131 -175 q 258 -115 211 -153 q 331 -15 306 -76 l 338 0 l 304 0 q 247 42 258 0 l 17 681 l 196 681 l 344 213 q 367 122 358 169 l 386 122 q 401 169 392 139 q 414 213 410 200 l 560 681 l 740 681 z "},"þ":{"ha":811,"x_min":94,"x_max":744,"o":"m 264 972 l 264 765 q 258 613 264 679 q 499 697 361 697 q 688 610 631 697 q 744 335 744 524 q 685 60 744 138 q 492 -18 625 -18 q 260 38 365 -18 q 264 -92 264 -25 l 264 -271 l 94 -271 l 94 972 l 264 972 m 264 486 l 264 154 q 432 113 368 113 q 540 160 508 113 q 571 335 571 207 q 541 513 571 465 q 439 560 511 560 q 264 486 365 560 z "},"ÿ":{"ha":758,"x_min":17,"x_max":740,"o":"m 286 810 l 229 810 q 189 851 189 810 l 189 928 q 229 971 189 971 l 286 971 q 326 928 326 971 l 326 851 q 286 810 326 810 m 533 810 l 479 810 q 438 851 438 810 l 438 928 q 479 971 438 971 l 533 971 q 576 928 576 971 l 576 851 q 533 810 576 810 m 740 681 l 488 -21 q 364 -212 447 -136 q 144 -282 281 -289 l 131 -175 q 258 -115 211 -153 q 331 -15 306 -76 l 338 0 l 304 0 q 247 42 258 0 l 17 681 l 196 681 l 344 213 q 367 122 358 169 l 386 122 q 401 169 392 139 q 414 213 410 200 l 560 681 l 740 681 z "},"Ā":{"ha":883,"x_min":7,"x_max":876,"o":"m 644 1081 l 242 1081 l 242 1197 l 644 1197 l 644 1081 m 619 271 l 264 271 l 185 0 l 7 0 l 294 913 q 357 958 307 958 l 526 958 q 589 913 576 958 l 876 0 l 699 0 l 619 271 m 578 414 l 482 744 q 461 826 463 819 l 424 826 l 401 744 l 306 414 l 578 414 z "},"ā":{"ha":775,"x_min":60,"x_max":686,"o":"m 583 831 l 179 831 l 179 947 l 583 947 l 583 831 m 107 547 l 90 667 q 431 700 269 700 q 624 647 563 700 q 686 463 686 594 l 686 0 l 553 0 l 535 104 q 275 -15 428 -15 q 119 37 179 -15 q 60 182 60 89 l 60 251 q 113 378 60 333 q 261 422 165 422 l 517 422 l 517 464 q 490 542 515 522 q 392 561 465 561 q 107 547 285 561 m 228 231 l 228 204 q 317 121 228 121 q 517 201 418 121 l 517 307 l 300 307 q 244 286 260 306 q 228 231 228 267 z "},"Ă":{"ha":883,"x_min":7,"x_max":876,"o":"m 579 1239 l 661 1228 q 610 1085 669 1142 q 443 1029 550 1029 q 274 1085 335 1029 q 222 1228 214 1142 l 304 1239 q 443 1147 304 1147 q 579 1239 579 1147 m 619 271 l 264 271 l 185 0 l 7 0 l 294 913 q 357 958 307 958 l 526 958 q 589 913 576 958 l 876 0 l 699 0 l 619 271 m 578 414 l 482 744 q 461 826 463 819 l 424 826 l 401 744 l 306 414 l 578 414 z "},"ă":{"ha":775,"x_min":60,"x_max":686,"o":"m 518 989 l 600 978 q 548 835 608 892 q 381 779 488 779 q 213 835 274 779 q 161 978 151 892 l 243 989 q 382 896 243 896 q 518 989 518 896 m 107 547 l 90 667 q 431 700 269 700 q 624 647 563 700 q 686 463 686 594 l 686 0 l 553 0 l 535 104 q 275 -15 428 -15 q 119 37 179 -15 q 60 182 60 89 l 60 251 q 113 378 60 333 q 261 422 165 422 l 517 422 l 517 464 q 490 542 515 522 q 392 561 465 561 q 107 547 285 561 m 228 231 l 228 204 q 317 121 228 121 q 517 201 418 121 l 517 307 l 300 307 q 244 286 260 306 q 228 231 228 267 z "},"Ą":{"ha":883,"x_min":7,"x_max":899,"o":"m 881 -201 l 899 -268 q 747 -295 803 -306 q 672 -247 692 -285 q 671 -158 653 -208 q 803 0 699 -76 l 699 0 l 619 271 l 264 271 l 185 0 l 7 0 l 294 913 q 357 958 307 958 l 526 958 q 589 913 576 958 l 876 0 q 785 -147 810 -85 q 794 -206 765 -192 q 881 -201 822 -221 m 578 414 l 482 744 q 461 826 463 819 l 424 826 l 401 744 l 306 414 l 578 414 z "},"ą":{"ha":775,"x_min":60,"x_max":708,"o":"m 690 -201 l 708 -268 q 556 -295 613 -306 q 481 -247 500 -285 q 479 -158 461 -208 q 613 0 506 -78 l 553 0 l 535 104 q 275 -15 428 -15 q 119 37 179 -15 q 60 182 60 89 l 60 251 q 113 378 60 333 q 261 422 165 422 l 517 422 l 517 464 q 490 542 515 522 q 392 561 465 561 q 107 547 285 561 l 90 667 q 431 700 269 700 q 624 647 563 700 q 686 463 686 594 l 686 0 q 594 -147 622 -79 q 603 -206 575 -192 q 690 -201 632 -221 m 228 231 l 228 204 q 317 121 228 121 q 517 201 418 121 l 517 307 l 300 307 q 244 286 260 306 q 228 231 228 267 z "},"Ć":{"ha":803,"x_min":74,"x_max":758,"o":"m 692 1161 l 396 1006 l 343 1081 l 604 1286 l 692 1161 m 743 150 l 758 19 q 464 -17 643 -17 q 161 94 249 -17 q 74 479 74 206 q 161 864 74 753 q 464 975 249 975 q 739 944 624 975 l 722 813 q 464 822 601 822 q 301 749 344 822 q 257 479 257 676 q 301 209 257 282 q 464 136 344 136 q 743 150 640 136 z "},"ć":{"ha":692,"x_min":64,"x_max":646,"o":"m 617 911 l 321 756 l 268 831 l 529 1035 l 617 911 m 631 136 l 646 25 q 396 -17 544 -17 q 139 64 214 -17 q 64 342 64 144 q 140 619 64 539 q 397 700 215 700 q 635 661 540 700 l 615 556 q 426 558 547 558 q 281 513 321 558 q 240 342 240 467 q 281 169 240 215 q 426 122 321 122 q 631 136 538 122 z "},"Ċ":{"ha":803,"x_min":74,"x_max":758,"o":"m 422 1217 l 475 1217 q 524 1168 524 1217 l 524 1093 q 475 1046 524 1046 l 422 1046 q 375 1093 375 1046 l 375 1168 q 422 1217 375 1217 m 743 150 l 758 19 q 464 -17 643 -17 q 161 94 249 -17 q 74 479 74 206 q 161 864 74 753 q 464 975 249 975 q 739 944 624 975 l 722 813 q 464 822 601 822 q 301 749 344 822 q 257 479 257 676 q 301 209 257 282 q 464 136 344 136 q 743 150 640 136 z "},"ċ":{"ha":692,"x_min":64,"x_max":646,"o":"m 349 967 l 400 967 q 449 918 449 967 l 449 843 q 400 796 449 796 l 349 796 q 300 843 300 796 l 300 918 q 349 967 300 967 m 631 136 l 646 25 q 396 -17 544 -17 q 139 64 214 -17 q 64 342 64 144 q 140 619 64 539 q 397 700 215 700 q 635 661 540 700 l 615 556 q 426 558 547 558 q 281 513 321 558 q 240 342 240 467 q 281 169 240 215 q 426 122 321 122 q 631 136 538 122 z "},"Č":{"ha":803,"x_min":74,"x_max":758,"o":"m 692 1211 l 486 1029 l 414 1029 l 208 1211 l 260 1281 l 444 1168 l 456 1168 l 639 1281 l 692 1211 m 743 150 l 758 19 q 464 -17 643 -17 q 161 94 249 -17 q 74 479 74 206 q 161 864 74 753 q 464 975 249 975 q 739 944 624 975 l 722 813 q 464 822 601 822 q 301 749 344 822 q 257 479 257 676 q 301 209 257 282 q 464 136 344 136 q 743 150 640 136 z "},"č":{"ha":692,"x_min":64,"x_max":646,"o":"m 618 960 l 411 778 l 339 778 l 133 960 l 185 1031 l 369 917 l 381 917 l 564 1031 l 618 960 m 631 136 l 646 25 q 396 -17 544 -17 q 139 64 214 -17 q 64 342 64 144 q 140 619 64 539 q 397 700 215 700 q 635 661 540 700 l 615 556 q 426 558 547 558 q 281 513 321 558 q 240 342 240 467 q 281 169 240 215 q 426 122 321 122 q 631 136 538 122 z "},"Ď":{"ha":932,"x_min":107,"x_max":857,"o":"m 410 1029 l 204 1211 l 256 1281 l 440 1168 l 451 1168 l 635 1281 l 689 1211 l 482 1029 l 410 1029 m 107 0 l 107 958 q 465 971 297 971 q 770 864 683 971 q 857 479 857 757 q 770 94 857 201 q 465 -12 683 -12 q 107 0 297 -12 m 281 825 l 281 136 q 465 133 389 133 q 629 208 585 133 q 674 479 674 282 q 628 751 674 676 q 465 826 583 826 q 367 826 428 826 q 281 825 307 825 z "},"ď":{"ha":810,"x_min":65,"x_max":925,"o":"m 925 931 l 925 864 q 871 688 925 769 l 803 704 q 818 833 818 764 q 776 872 776 833 l 776 931 q 791 965 779 956 q 833 975 803 975 l 874 975 q 915 965 903 975 q 925 931 926 956 m 546 972 l 715 972 l 715 0 l 582 0 l 568 93 q 304 -17 450 -17 q 122 74 179 -17 q 65 344 65 165 q 128 620 65 540 q 326 700 192 700 q 553 640 457 700 q 546 776 546 696 l 546 972 m 546 197 l 546 535 q 376 563 435 563 q 268 520 297 563 q 239 346 239 478 q 267 172 239 217 q 367 126 296 126 q 449 141 414 126 q 546 197 483 156 z "},"Đ":{"ha":938,"x_min":26,"x_max":863,"o":"m 113 551 l 113 958 q 471 971 303 971 q 776 865 689 971 q 863 479 863 758 q 776 94 863 200 q 471 -12 689 -12 q 113 0 303 -12 l 113 460 l 26 460 l 26 551 l 113 551 m 288 460 l 288 136 q 471 133 393 133 q 635 208 590 133 q 679 479 679 282 q 634 751 679 676 q 471 826 589 826 q 374 826 435 826 q 288 825 313 825 l 288 551 l 474 551 l 474 460 l 288 460 z "},"đ":{"ha":804,"x_min":65,"x_max":803,"o":"m 803 783 l 715 783 l 715 0 l 582 0 l 568 93 q 304 -17 450 -17 q 122 74 179 -17 q 65 344 65 165 q 128 620 65 540 q 326 700 192 700 q 553 640 457 700 q 546 776 546 696 l 546 783 l 351 783 l 351 872 l 546 872 l 546 972 l 715 972 l 715 872 l 803 872 l 803 783 m 546 197 l 546 535 q 376 563 435 563 q 268 520 297 563 q 239 346 239 478 q 267 172 239 217 q 367 126 296 126 q 449 141 414 126 q 546 197 483 156 z "},"Ē":{"ha":789,"x_min":99,"x_max":726,"o":"m 635 1104 l 232 1104 l 232 1221 l 635 1221 l 635 1104 m 718 140 l 726 8 q 304 -3 600 -3 q 155 46 210 -3 q 99 179 100 94 l 99 779 q 155 913 100 864 q 304 961 210 961 q 726 950 600 961 l 718 817 l 343 817 q 290 799 306 817 q 274 736 274 781 l 274 568 l 667 568 l 667 435 l 274 435 l 274 221 q 290 158 274 176 q 343 140 306 140 l 718 140 z "},"ē":{"ha":761,"x_min":64,"x_max":703,"o":"m 599 831 l 194 831 l 194 947 l 599 947 l 599 831 m 521 269 l 243 269 q 293 151 253 181 q 425 121 333 121 q 669 138 529 121 l 685 29 q 404 -17 589 -17 q 142 65 219 -17 q 64 342 64 147 q 140 620 64 540 q 393 700 217 700 q 629 641 556 700 q 703 464 703 582 q 521 269 703 269 m 240 388 l 474 388 q 535 467 535 388 q 506 544 535 522 q 400 567 476 567 q 277 530 311 567 q 240 388 243 493 z "},"Ė":{"ha":789,"x_min":99,"x_max":726,"o":"m 460 1068 l 407 1068 q 358 1117 358 1068 l 358 1192 q 407 1239 358 1239 l 460 1239 q 507 1192 507 1239 l 507 1117 q 460 1068 507 1068 m 718 140 l 726 8 q 304 -3 600 -3 q 155 46 210 -3 q 99 179 100 94 l 99 779 q 155 913 100 864 q 304 961 210 961 q 726 950 600 961 l 718 817 l 343 817 q 290 799 306 817 q 274 736 274 781 l 274 568 l 667 568 l 667 435 l 274 435 l 274 221 q 290 158 274 176 q 343 140 306 140 l 718 140 z "},"ė":{"ha":761,"x_min":64,"x_max":703,"o":"m 422 796 l 369 796 q 322 843 322 796 l 322 918 q 369 967 322 967 l 422 967 q 471 918 471 967 l 471 843 q 422 796 471 796 m 521 269 l 243 269 q 293 151 253 181 q 425 121 333 121 q 669 138 529 121 l 685 29 q 404 -17 589 -17 q 142 65 219 -17 q 64 342 64 147 q 140 620 64 540 q 393 700 217 700 q 629 641 556 700 q 703 464 703 582 q 521 269 703 269 m 240 388 l 474 388 q 535 467 535 388 q 506 544 535 522 q 400 567 476 567 q 277 530 311 567 q 240 388 243 493 z "},"Ę":{"ha":789,"x_min":99,"x_max":749,"o":"m 731 -193 l 749 -258 q 597 -286 653 -296 q 521 -238 540 -276 q 519 -149 501 -200 q 644 3 546 -72 q 304 -3 536 -3 q 155 46 210 -3 q 99 179 100 94 l 99 779 q 155 913 100 864 q 304 961 210 961 q 726 950 600 961 l 718 817 l 343 817 q 290 799 306 817 q 274 736 274 781 l 274 568 l 667 568 l 667 435 l 274 435 l 274 221 q 290 158 274 176 q 343 140 306 140 l 718 140 l 726 8 q 635 -139 663 -71 q 644 -197 615 -182 q 731 -193 672 -211 z "},"ę":{"ha":761,"x_min":64,"x_max":707,"o":"m 690 -172 l 707 -239 q 556 -266 611 -276 q 481 -217 500 -256 q 479 -129 461 -179 q 571 -3 500 -65 q 404 -17 489 -17 q 142 65 219 -17 q 64 342 64 147 q 140 620 64 540 q 393 700 217 700 q 629 641 556 700 q 703 464 703 582 q 521 269 703 269 l 243 269 q 293 151 253 181 q 425 121 333 121 q 669 138 529 121 l 685 29 q 593 -118 618 -56 q 603 -177 574 -162 q 690 -172 632 -192 m 240 388 l 474 388 q 535 467 535 388 q 506 544 535 522 q 400 567 476 567 q 277 530 311 567 q 240 388 243 493 z "},"Ě":{"ha":789,"x_min":99,"x_max":726,"o":"m 397 1051 l 193 1233 l 244 1303 l 428 1190 l 439 1190 l 624 1303 l 676 1233 l 471 1051 l 397 1051 m 718 140 l 726 8 q 304 -3 600 -3 q 155 46 210 -3 q 99 179 100 94 l 99 779 q 155 913 100 864 q 304 961 210 961 q 726 950 600 961 l 718 817 l 343 817 q 290 799 306 817 q 274 736 274 781 l 274 568 l 667 568 l 667 435 l 274 435 l 274 221 q 290 158 274 176 q 343 140 306 140 l 718 140 z "},"ě":{"ha":761,"x_min":64,"x_max":703,"o":"m 361 778 l 156 960 l 207 1031 l 392 917 l 403 917 l 586 1031 l 639 960 l 433 778 l 361 778 m 521 269 l 243 269 q 293 151 253 181 q 425 121 333 121 q 669 138 529 121 l 685 29 q 404 -17 589 -17 q 142 65 219 -17 q 64 342 64 147 q 140 620 64 540 q 393 700 217 700 q 629 641 556 700 q 703 464 703 582 q 521 269 703 269 m 240 388 l 474 388 q 535 467 535 388 q 506 544 535 522 q 400 567 476 567 q 277 530 311 567 q 240 388 243 493 z "},"Ğ":{"ha":882,"x_min":75,"x_max":800,"o":"m 597 1239 l 681 1228 q 628 1085 689 1142 q 461 1029 568 1029 q 293 1085 354 1029 q 240 1228 232 1142 l 322 1239 q 461 1147 322 1147 q 563 1171 528 1147 q 597 1239 599 1194 m 800 553 l 800 0 l 671 0 l 656 94 q 375 -18 536 -18 q 146 102 217 -18 q 75 483 75 222 q 167 872 75 767 q 494 976 258 976 q 769 944 654 976 l 756 815 q 503 824 621 824 q 386 813 428 824 q 313 766 344 803 q 269 660 281 729 q 257 474 257 592 q 294 206 257 281 q 429 132 332 132 q 631 199 522 132 l 631 553 l 800 553 z "},"ğ":{"ha":789,"x_min":43,"x_max":767,"o":"m 519 989 l 601 978 q 549 835 610 892 q 383 779 489 779 q 215 835 275 779 q 163 978 154 892 l 244 989 q 383 896 244 896 q 519 989 519 896 m 757 599 l 668 589 q 686 481 686 544 q 618 312 686 363 q 379 261 550 261 q 254 271 304 261 q 247 215 238 246 q 294 179 257 183 l 543 144 q 687 83 643 131 q 731 -54 731 36 q 656 -226 731 -179 q 388 -272 582 -272 q 117 -227 190 -272 q 43 -64 43 -182 q 68 22 43 -11 q 150 86 93 56 q 112 197 104 129 q 168 296 119 264 q 72 479 72 342 q 140 650 72 600 q 381 700 208 700 q 551 681 482 700 l 767 681 l 757 599 m 260 401 q 276 390 260 401 q 379 379 293 379 q 498 401 465 379 q 531 481 531 424 q 498 559 531 538 q 379 581 465 581 q 260 559 293 581 q 226 481 226 538 q 260 401 226 424 m 453 26 l 258 50 q 206 -46 206 1 q 240 -122 206 -106 q 386 -137 274 -137 q 533 -121 499 -137 q 568 -47 568 -104 q 547 6 568 -6 q 453 26 526 18 z "},"Ġ":{"ha":882,"x_min":75,"x_max":800,"o":"m 488 1046 l 435 1046 q 386 1093 386 1046 l 386 1168 q 435 1217 386 1217 l 488 1217 q 536 1168 536 1217 l 536 1093 q 488 1046 536 1046 m 800 553 l 800 0 l 671 0 l 656 94 q 375 -18 536 -18 q 146 102 217 -18 q 75 483 75 222 q 167 872 75 767 q 494 976 258 976 q 769 944 654 976 l 756 815 q 503 824 621 824 q 386 813 428 824 q 313 766 344 803 q 269 660 281 729 q 257 474 257 592 q 294 206 257 281 q 429 132 332 132 q 631 199 522 132 l 631 553 l 800 553 z "},"ġ":{"ha":789,"x_min":43,"x_max":767,"o":"m 410 796 l 357 796 q 308 843 308 796 l 308 918 q 357 967 308 967 l 410 967 q 457 918 457 967 l 457 843 q 410 796 457 796 m 757 599 l 668 589 q 686 481 686 544 q 618 312 686 363 q 379 261 550 261 q 254 271 304 261 q 247 215 238 246 q 294 179 257 183 l 543 144 q 687 83 643 131 q 731 -54 731 36 q 656 -226 731 -179 q 388 -272 582 -272 q 117 -227 190 -272 q 43 -64 43 -182 q 68 22 43 -11 q 150 86 93 56 q 112 197 104 129 q 168 296 119 264 q 72 479 72 342 q 140 650 72 600 q 381 700 208 700 q 551 681 482 700 l 767 681 l 757 599 m 260 401 q 276 390 260 401 q 379 379 293 379 q 498 401 465 379 q 531 481 531 424 q 498 559 531 538 q 379 581 465 581 q 260 559 293 581 q 226 481 226 538 q 260 401 226 424 m 453 26 l 258 50 q 206 -46 206 1 q 240 -122 206 -106 q 386 -137 274 -137 q 533 -121 499 -137 q 568 -47 568 -104 q 547 6 568 -6 q 453 26 526 18 z "},"Ģ":{"ha":882,"x_min":75,"x_max":800,"o":"m 800 553 l 800 0 l 671 0 l 656 94 q 375 -18 536 -18 q 146 102 217 -18 q 75 483 75 222 q 167 872 75 767 q 494 976 258 976 q 769 944 654 976 l 756 815 q 503 824 621 824 q 386 813 428 824 q 313 766 344 803 q 269 660 281 729 q 257 474 257 592 q 294 206 257 281 q 429 132 332 132 q 631 199 522 132 l 631 553 l 800 553 m 438 -76 l 479 -76 q 521 -87 510 -76 q 532 -126 532 -99 l 532 -200 q 476 -396 531 -310 l 407 -378 q 424 -235 424 -307 q 381 -190 381 -235 l 381 -126 q 395 -87 382 -99 q 438 -76 408 -76 z "},"ģ":{"ha":789,"x_min":43,"x_max":767,"o":"m 422 769 l 382 769 q 340 780 351 769 q 328 818 328 790 l 328 892 q 383 1088 329 999 l 453 1069 q 436 926 436 999 q 479 883 479 926 l 479 818 q 465 780 476 790 q 422 769 453 769 m 757 599 l 668 589 q 686 481 686 544 q 618 312 686 363 q 379 261 550 261 q 254 271 304 261 q 247 215 238 246 q 294 179 257 183 l 543 144 q 687 83 643 131 q 731 -54 731 36 q 656 -226 731 -179 q 388 -272 582 -272 q 117 -227 190 -272 q 43 -64 43 -182 q 68 22 43 -11 q 150 86 93 56 q 112 197 104 129 q 168 296 119 264 q 72 479 72 342 q 140 650 72 600 q 381 700 208 700 q 551 681 482 700 l 767 681 l 757 599 m 260 401 q 276 390 260 401 q 379 379 293 379 q 498 401 465 379 q 531 481 531 424 q 498 559 531 538 q 379 581 465 581 q 260 559 293 581 q 226 481 226 538 q 260 401 226 424 m 453 26 l 258 50 q 206 -46 206 1 q 240 -122 206 -106 q 386 -137 274 -137 q 533 -121 499 -137 q 568 -47 568 -104 q 547 6 568 -6 q 453 26 526 18 z "},"Ħ":{"ha":951,"x_min":22,"x_max":928,"o":"m 928 717 l 839 717 l 839 0 l 665 0 l 665 439 l 286 439 l 286 0 l 113 0 l 113 717 l 22 717 l 22 803 l 113 803 l 113 958 l 286 958 l 286 803 l 665 803 l 665 958 l 839 958 l 839 803 l 928 803 l 928 717 m 665 717 l 286 717 l 286 582 l 665 582 l 665 717 z "},"ħ":{"ha":825,"x_min":3,"x_max":735,"o":"m 271 783 l 271 722 q 260 585 271 663 q 547 700 411 700 q 686 651 638 700 q 735 511 735 603 l 735 0 l 565 0 l 565 460 q 549 537 565 517 q 492 557 533 557 q 269 474 413 557 l 269 0 l 100 0 l 100 783 l 3 783 l 3 872 l 100 872 l 100 972 l 269 972 l 269 872 l 454 872 l 454 783 l 271 783 z "},"Ī":{"ha":388,"x_min":-7,"x_max":397,"o":"m 397 1081 l -7 1081 l -7 1197 l 397 1197 l 397 1081 m 281 0 l 107 0 l 107 958 l 281 958 l 281 0 z "},"ī":{"ha":369,"x_min":-15,"x_max":388,"o":"m 388 831 l -15 831 l -15 947 l 388 947 l 388 831 m 269 0 l 100 0 l 100 681 l 269 681 l 269 0 z "},"Į":{"ha":388,"x_min":54,"x_max":282,"o":"m 264 -201 l 282 -268 q 130 -295 186 -306 q 54 -247 74 -285 q 54 -158 35 -208 q 186 0 78 -79 l 107 0 l 107 958 l 281 958 l 281 0 l 260 0 q 168 -147 193 -85 q 177 -206 149 -192 q 264 -201 206 -221 z "},"į":{"ha":369,"x_min":49,"x_max":276,"o":"m 213 796 l 160 796 q 111 843 111 796 l 111 918 q 160 967 111 967 l 213 967 q 261 918 261 967 l 261 843 q 213 796 261 796 m 258 -201 l 276 -268 q 125 -295 181 -306 q 50 -247 69 -285 q 49 -158 31 -208 q 181 0 76 -76 l 100 0 l 100 681 l 269 681 l 269 0 l 254 0 q 163 -147 188 -85 q 172 -206 143 -192 q 258 -201 200 -221 z "},"İ":{"ha":388,"x_min":107,"x_max":281,"o":"m 168 1217 l 221 1217 q 269 1168 269 1217 l 269 1093 q 221 1046 269 1046 l 168 1046 q 121 1093 121 1046 l 121 1168 q 168 1217 121 1217 m 281 0 l 107 0 l 107 958 l 281 958 l 281 0 z "},"ı":{"ha":369,"x_min":100,"x_max":269,"o":"m 269 0 l 100 0 l 100 681 l 269 681 l 269 0 z "},"Ĳ":{"ha":879,"x_min":107,"x_max":776,"o":"m 281 0 l 107 0 l 107 958 l 281 958 l 281 0 m 776 958 l 776 211 q 724 44 776 103 q 576 -15 672 -15 q 422 8 481 -15 l 442 129 l 507 129 q 603 215 603 129 l 603 958 l 776 958 z "},"ĳ":{"ha":739,"x_min":96,"x_max":642,"o":"m 515 978 l 593 978 q 642 929 642 978 l 642 854 q 593 806 642 806 l 515 806 q 467 854 467 806 l 467 929 q 515 978 467 978 m 144 976 l 222 976 q 271 928 271 976 l 271 851 q 222 803 271 803 l 144 803 q 96 851 96 803 l 96 928 q 144 976 96 976 m 268 0 l 100 0 l 100 681 l 268 681 l 268 0 m 638 681 l 638 13 q 597 -156 638 -78 q 483 -278 556 -233 l 389 -204 q 469 13 469 -108 l 469 681 l 638 681 z "},"Ķ":{"ha":850,"x_min":107,"x_max":835,"o":"m 835 0 l 640 0 l 365 432 l 271 432 q 281 338 281 388 l 281 0 l 107 0 l 107 958 l 281 958 l 281 676 q 271 565 281 615 l 365 565 l 628 958 l 817 958 l 558 572 q 494 500 535 535 l 494 496 q 569 414 543 456 l 835 0 m 428 -76 l 468 -76 q 510 -87 499 -76 q 522 -126 522 -99 l 522 -200 q 467 -396 521 -307 l 397 -378 q 414 -235 414 -307 q 371 -190 371 -235 l 371 -126 q 385 -87 374 -99 q 428 -76 397 -76 z "},"ķ":{"ha":742,"x_min":94,"x_max":729,"o":"m 729 0 l 538 0 l 331 325 l 256 325 q 264 221 264 253 l 264 0 l 94 0 l 94 972 l 265 972 l 265 558 q 256 439 265 493 l 329 439 l 515 681 l 707 681 l 517 439 q 460 382 494 404 l 460 379 q 517 314 488 361 l 729 0 m 376 -75 l 418 -75 q 460 -86 449 -75 q 471 -125 471 -97 l 471 -199 q 415 -394 469 -307 l 346 -376 q 363 -232 363 -304 q 319 -189 319 -232 l 319 -125 q 334 -86 321 -97 q 376 -75 347 -75 z "},"Ĺ":{"ha":724,"x_min":90,"x_max":700,"o":"m 438 1161 l 143 1006 l 90 1081 l 351 1286 l 438 1161 m 278 958 l 278 224 q 296 162 278 179 q 360 144 314 144 l 693 144 l 700 10 q 319 -3 564 -3 q 104 196 104 -3 l 104 958 l 278 958 z "},"ĺ":{"ha":436,"x_min":79,"x_max":428,"o":"m 428 1188 l 132 1032 l 79 1107 l 340 1311 l 428 1188 m 265 972 l 265 213 q 284 153 264 172 q 346 133 304 133 l 404 133 l 424 8 q 279 -15 376 -15 q 145 33 194 -15 q 96 171 96 82 l 96 972 l 265 972 z "},"Ļ":{"ha":724,"x_min":104,"x_max":700,"o":"m 278 958 l 278 224 q 296 162 278 179 q 360 144 314 144 l 693 144 l 700 10 q 319 -3 564 -3 q 104 196 104 -3 l 104 958 l 278 958 m 389 -76 l 429 -76 q 472 -87 460 -76 q 483 -126 483 -99 l 483 -200 q 428 -396 482 -307 l 358 -378 q 375 -235 375 -307 q 332 -190 332 -235 l 332 -126 q 347 -87 335 -99 q 389 -76 358 -76 z "},"ļ":{"ha":436,"x_min":96,"x_max":424,"o":"m 265 972 l 265 213 q 284 153 264 172 q 346 133 304 133 l 404 133 l 424 8 q 279 -15 376 -15 q 145 33 194 -15 q 96 171 96 82 l 96 972 l 265 972 m 226 -76 l 267 -76 q 309 -87 297 -76 q 321 -126 321 -99 l 321 -200 q 265 -396 319 -307 l 196 -378 q 213 -235 213 -307 q 169 -190 169 -235 l 169 -126 q 184 -87 171 -99 q 226 -76 197 -76 z "},"Ľ":{"ha":724,"x_min":104,"x_max":700,"o":"m 472 960 l 514 960 q 556 949 544 960 q 567 910 567 938 l 567 836 q 511 642 567 731 l 442 658 q 458 803 458 732 q 415 846 415 803 l 415 910 q 430 949 417 938 q 472 960 443 960 m 278 958 l 278 224 q 296 162 278 179 q 360 144 314 144 l 693 144 l 700 10 q 319 -3 564 -3 q 104 196 104 -3 l 104 958 l 278 958 z "},"ľ":{"ha":436,"x_min":96,"x_max":476,"o":"m 382 975 l 422 975 q 464 965 453 975 q 476 931 475 956 l 476 864 q 421 688 475 768 l 353 704 q 368 833 368 764 q 326 872 326 833 l 326 931 q 341 965 329 956 q 382 975 353 975 m 265 972 l 265 213 q 284 153 264 172 q 346 133 304 133 l 404 133 l 424 8 q 279 -15 376 -15 q 145 33 194 -15 q 96 171 96 82 l 96 972 l 265 972 z "},"Ŀ":{"ha":724,"x_min":104,"x_max":700,"o":"m 278 958 l 278 224 q 296 162 278 179 q 360 144 314 144 l 693 144 l 700 10 q 319 -3 564 -3 q 104 196 104 -3 l 104 958 l 278 958 m 585 474 l 532 474 q 483 522 483 474 l 483 597 q 532 644 483 644 l 585 644 q 633 597 633 644 l 633 522 q 585 474 633 474 z "},"ŀ":{"ha":488,"x_min":96,"x_max":496,"o":"m 265 972 l 265 213 q 284 153 264 172 q 346 133 304 133 l 404 133 l 424 8 q 279 -15 376 -15 q 145 33 194 -15 q 96 171 96 82 l 96 972 l 265 972 m 449 456 l 396 456 q 347 504 347 456 l 347 579 q 396 626 347 626 l 449 626 q 496 579 496 626 l 496 504 q 449 456 496 456 z "},"Ł":{"ha":733,"x_min":24,"x_max":708,"o":"m 701 144 l 708 10 q 329 -3 572 -3 q 113 196 113 -3 l 113 446 l 24 410 l 24 510 l 113 546 l 113 958 l 286 958 l 286 617 l 439 679 l 439 579 l 286 517 l 286 224 q 304 162 286 179 q 368 144 322 144 l 701 144 z "},"ł":{"ha":478,"x_min":21,"x_max":454,"o":"m 435 133 l 454 8 q 310 -15 407 -15 q 176 33 225 -15 q 126 171 126 82 l 126 443 l 21 400 l 21 500 l 126 543 l 126 972 l 294 972 l 294 613 l 436 669 l 436 568 l 294 511 l 294 213 q 376 133 294 133 l 435 133 z "},"Ń":{"ha":993,"x_min":107,"x_max":886,"o":"m 747 1161 l 453 1006 l 400 1081 l 661 1286 l 747 1161 m 886 958 l 886 64 q 822 0 886 0 l 685 0 q 613 53 635 0 l 343 640 q 286 783 294 744 l 269 783 q 278 639 278 725 l 278 0 l 107 0 l 107 894 q 172 958 107 958 l 307 958 q 351 946 335 958 q 379 906 367 933 l 640 335 q 669 269 644 325 q 707 183 694 214 l 724 183 q 717 339 717 271 l 717 958 l 886 958 z "},"ń":{"ha":819,"x_min":94,"x_max":729,"o":"m 367 756 l 314 831 l 575 1035 l 661 911 l 367 756 m 236 681 l 247 581 q 542 700 406 700 q 681 651 632 700 q 729 511 729 603 l 729 0 l 560 0 l 560 460 q 544 537 560 517 q 488 557 529 557 q 391 538 440 557 q 264 474 342 518 l 264 0 l 94 0 l 94 681 l 236 681 z "},"Ņ":{"ha":993,"x_min":107,"x_max":886,"o":"m 886 958 l 886 64 q 822 0 886 0 l 685 0 q 613 53 635 0 l 343 640 q 286 783 294 744 l 269 783 q 278 639 278 725 l 278 0 l 107 0 l 107 894 q 172 958 107 958 l 307 958 q 351 946 335 958 q 379 906 367 933 l 640 335 q 669 269 644 325 q 707 183 694 214 l 724 183 q 717 339 717 271 l 717 958 l 886 958 m 464 -76 l 504 -76 q 547 -87 535 -76 q 558 -126 558 -99 l 558 -200 q 501 -396 557 -308 l 433 -378 q 449 -235 449 -312 q 407 -190 407 -235 l 407 -126 q 422 -87 410 -99 q 464 -76 433 -76 z "},"ņ":{"ha":819,"x_min":94,"x_max":729,"o":"m 236 681 l 247 581 q 542 700 406 700 q 681 651 632 700 q 729 511 729 603 l 729 0 l 560 0 l 560 460 q 544 537 560 517 q 488 557 529 557 q 391 538 440 557 q 264 474 342 518 l 264 0 l 94 0 l 94 681 l 236 681 m 386 -75 l 426 -75 q 469 -86 457 -75 q 481 -125 481 -97 l 481 -199 q 425 -394 479 -303 l 356 -376 q 372 -232 372 -304 q 329 -189 329 -232 l 329 -125 q 344 -86 331 -97 q 386 -75 357 -75 z "},"Ň":{"ha":993,"x_min":107,"x_max":886,"o":"m 749 1211 l 543 1029 l 469 1029 l 265 1211 l 317 1281 l 501 1168 l 513 1168 l 696 1281 l 749 1211 m 886 958 l 886 64 q 822 0 886 0 l 685 0 q 613 53 635 0 l 343 640 q 286 783 294 744 l 269 783 q 278 639 278 725 l 278 0 l 107 0 l 107 894 q 172 958 107 958 l 307 958 q 351 946 335 958 q 379 906 367 933 l 640 335 q 669 269 644 325 q 707 183 694 214 l 724 183 q 717 339 717 271 l 717 958 l 886 958 z "},"ň":{"ha":819,"x_min":94,"x_max":729,"o":"m 383 778 l 179 960 l 231 1031 l 415 917 l 426 917 l 610 1031 l 663 960 l 457 778 l 383 778 m 236 681 l 247 581 q 542 700 406 700 q 681 651 632 700 q 729 511 729 603 l 729 0 l 560 0 l 560 460 q 544 537 560 517 q 488 557 529 557 q 391 538 440 557 q 264 474 342 518 l 264 0 l 94 0 l 94 681 l 236 681 z "},"Ŋ":{"ha":993,"x_min":107,"x_max":886,"o":"m 886 958 l 886 -92 q 833 -242 886 -187 q 692 -296 779 -297 q 547 -272 607 -296 l 565 -162 l 628 -162 q 726 -78 726 -162 l 726 1 l 682 1 q 638 47 664 1 l 342 617 q 283 758 317 667 l 269 758 q 278 615 278 701 l 278 0 l 107 0 l 107 894 q 172 958 107 958 l 281 958 q 324 947 308 958 q 354 906 340 935 l 639 358 q 706 208 665 307 l 722 208 q 715 360 715 292 l 715 958 l 886 958 z "},"ŋ":{"ha":819,"x_min":94,"x_max":729,"o":"m 226 681 l 240 575 q 540 700 394 700 q 729 511 729 700 l 729 -76 q 681 -228 729 -175 q 544 -281 633 -282 q 399 -257 454 -281 l 418 -150 l 474 -150 q 560 -62 560 -150 l 560 460 q 544 528 560 510 q 483 547 528 547 q 264 472 404 547 l 264 0 l 94 0 l 94 681 l 226 681 z "},"Ō":{"ha":938,"x_min":74,"x_max":864,"o":"m 669 1081 l 265 1081 l 265 1197 l 669 1197 l 669 1081 m 468 976 q 777 869 690 976 q 864 479 864 763 q 777 89 864 196 q 468 -18 690 -18 q 160 89 247 -18 q 74 479 74 196 q 160 869 74 763 q 468 976 247 976 m 468 828 q 302 753 347 828 q 257 479 257 679 q 302 205 257 279 q 468 131 347 131 q 635 205 590 131 q 681 479 681 279 q 635 753 681 679 q 468 828 590 828 z "},"ō":{"ha":800,"x_min":64,"x_max":736,"o":"m 603 831 l 199 831 l 199 947 l 603 947 l 603 831 m 401 700 q 660 618 585 700 q 736 340 736 536 q 660 63 736 144 q 401 -18 585 -18 q 140 63 217 -18 q 64 340 64 144 q 140 618 64 536 q 401 700 217 700 m 401 565 q 274 519 307 565 q 240 340 240 472 q 274 163 240 210 q 401 117 307 117 q 527 163 493 117 q 561 340 561 210 q 527 519 561 472 q 401 565 493 565 z "},"Ő":{"ha":938,"x_min":74,"x_max":864,"o":"m 528 1222 l 326 996 l 256 1050 l 411 1303 l 528 1222 m 775 1222 l 574 996 l 506 1050 l 658 1303 l 775 1222 m 468 976 q 777 869 690 976 q 864 479 864 763 q 777 89 864 196 q 468 -18 690 -18 q 160 89 247 -18 q 74 479 74 196 q 160 869 74 763 q 468 976 247 976 m 468 828 q 302 753 347 828 q 257 479 257 679 q 302 205 257 279 q 468 131 347 131 q 635 205 590 131 q 681 479 681 279 q 635 753 681 679 q 468 828 590 828 z "},"ő":{"ha":800,"x_min":64,"x_max":736,"o":"m 460 972 l 260 744 l 189 800 l 343 1051 l 460 972 m 708 972 l 507 744 l 438 799 l 592 1051 l 708 972 m 401 700 q 660 618 585 700 q 736 340 736 536 q 660 63 736 144 q 401 -18 585 -18 q 140 63 217 -18 q 64 340 64 144 q 140 618 64 536 q 401 700 217 700 m 401 565 q 274 519 307 565 q 240 340 240 472 q 274 163 240 210 q 401 117 307 117 q 527 163 493 117 q 561 340 561 210 q 527 519 561 472 q 401 565 493 565 z "},"Œ":{"ha":1292,"x_min":74,"x_max":1229,"o":"m 1221 140 l 1229 8 q 796 -3 1099 -3 q 696 28 739 -3 q 468 -18 600 -18 q 160 89 247 -18 q 74 479 74 196 q 160 869 74 763 q 468 976 247 976 q 707 935 597 976 q 808 961 753 961 q 1229 950 1103 961 l 1221 817 l 872 817 q 810 799 828 817 q 792 736 792 781 l 792 569 l 1169 569 l 1169 435 l 792 435 l 792 221 q 810 158 792 176 q 872 140 828 140 l 1221 140 m 617 196 l 617 763 q 622 811 617 790 q 468 828 551 828 q 302 754 347 828 q 257 479 257 681 q 302 205 257 279 q 468 131 347 131 q 621 147 561 131 q 617 196 617 171 z "},"œ":{"ha":1254,"x_min":64,"x_max":1196,"o":"m 974 276 l 736 276 q 785 151 744 182 q 921 121 825 121 q 1163 138 1022 121 l 1178 29 q 897 -17 1081 -17 q 649 53 724 -17 q 400 -18 569 -18 q 140 63 217 -18 q 64 340 64 144 q 140 618 64 536 q 400 700 217 700 q 644 631 569 700 q 878 699 717 699 q 1196 479 1196 699 q 1146 320 1196 364 q 974 276 1096 276 m 733 389 l 954 389 q 1015 409 999 389 q 1029 482 1031 429 q 991 545 1025 525 q 882 565 957 565 q 769 528 801 565 q 733 389 736 490 m 400 117 q 522 156 488 117 q 560 304 556 196 l 558 344 q 559 363 558 351 q 560 381 560 375 q 521 526 556 488 q 400 565 486 565 q 274 519 307 565 q 240 340 240 472 q 274 163 240 210 q 400 117 307 117 z "},"Ŕ":{"ha":874,"x_min":107,"x_max":824,"o":"m 375 1006 l 322 1081 l 583 1286 l 669 1161 l 375 1006 m 824 0 l 639 0 l 563 297 q 451 383 536 383 l 279 385 l 279 0 l 107 0 l 107 958 q 456 971 231 971 q 713 910 638 971 q 789 690 789 850 q 747 520 789 579 q 610 449 706 461 l 610 442 q 688 397 651 432 q 738 300 724 363 l 824 0 m 279 526 l 451 526 q 578 560 544 528 q 613 679 613 592 q 578 797 613 767 q 451 828 544 828 l 279 828 l 279 526 z "},"ŕ":{"ha":574,"x_min":94,"x_max":565,"o":"m 269 756 l 218 831 l 478 1035 l 565 911 l 269 756 m 226 681 l 242 581 q 522 700 388 700 l 556 700 l 538 542 l 489 542 q 264 481 417 542 l 264 0 l 94 0 l 94 681 l 226 681 z "},"Ŗ":{"ha":874,"x_min":107,"x_max":824,"o":"m 824 0 l 639 0 l 563 297 q 451 383 536 383 l 279 385 l 279 0 l 107 0 l 107 958 q 456 971 231 971 q 713 910 638 971 q 789 690 789 850 q 747 520 789 579 q 610 449 706 461 l 610 442 q 688 397 651 432 q 738 300 724 363 l 824 0 m 279 526 l 451 526 q 578 560 544 528 q 613 679 613 592 q 578 797 613 767 q 451 828 544 828 l 279 828 l 279 526 m 439 -76 l 481 -76 q 522 -87 511 -76 q 535 -126 533 -99 l 535 -200 q 478 -396 533 -308 l 408 -378 q 425 -235 425 -315 q 383 -190 381 -235 l 383 -126 q 397 -87 385 -99 q 439 -76 410 -76 z "},"ŗ":{"ha":574,"x_min":90,"x_max":556,"o":"m 556 700 l 538 542 l 489 542 q 264 481 417 542 l 264 0 l 94 0 l 94 681 l 226 681 l 242 581 q 522 700 388 700 l 556 700 m 146 -75 l 188 -75 q 229 -86 218 -75 q 242 -125 240 -97 l 242 -199 q 185 -394 240 -304 l 115 -376 q 132 -232 132 -311 q 90 -189 88 -232 l 90 -125 q 104 -86 92 -97 q 146 -75 117 -75 z "},"Ř":{"ha":874,"x_min":107,"x_max":824,"o":"m 392 1029 l 188 1211 l 239 1281 l 424 1168 l 435 1168 l 618 1281 l 671 1211 l 465 1029 l 392 1029 m 824 0 l 639 0 l 563 297 q 451 383 536 383 l 279 385 l 279 0 l 107 0 l 107 958 q 456 971 231 971 q 713 910 638 971 q 789 690 789 850 q 747 520 789 579 q 610 449 706 461 l 610 442 q 688 397 651 432 q 738 300 724 363 l 824 0 m 279 526 l 451 526 q 578 560 544 528 q 613 679 613 592 q 578 797 613 767 q 451 828 544 828 l 279 828 l 279 526 z "},"ř":{"ha":574,"x_min":82,"x_max":567,"o":"m 288 778 l 82 960 l 133 1031 l 318 917 l 329 917 l 513 1031 l 567 960 l 361 778 l 288 778 m 226 681 l 242 581 q 522 700 388 700 l 556 700 l 538 542 l 489 542 q 264 481 417 542 l 264 0 l 94 0 l 94 681 l 226 681 z "},"Ś":{"ha":792,"x_min":67,"x_max":731,"o":"m 635 1161 l 340 1006 l 288 1081 l 549 1286 l 635 1161 m 453 379 l 260 440 q 111 541 156 474 q 67 718 67 608 q 140 925 67 875 q 396 975 213 975 q 697 943 572 975 l 686 819 q 401 825 528 825 q 274 806 306 825 q 242 715 242 788 q 265 631 242 656 q 349 588 288 607 l 533 531 q 687 428 643 496 q 731 251 731 361 q 656 38 731 93 q 390 -17 581 -17 q 79 14 232 -17 l 90 142 q 394 136 333 136 q 522 158 490 136 q 554 253 554 181 q 533 338 554 314 q 453 379 511 361 z "},"ś":{"ha":718,"x_min":60,"x_max":661,"o":"m 607 911 l 313 756 l 260 831 l 521 1035 l 607 911 m 399 258 l 219 307 q 95 378 131 332 q 60 507 60 424 q 122 658 60 617 q 338 700 185 700 q 639 675 504 697 l 626 558 q 367 564 454 564 q 249 555 275 564 q 222 506 222 546 q 224 488 222 496 q 228 474 226 479 q 235 463 229 468 q 244 456 242 458 q 258 449 247 453 q 274 443 269 444 q 293 438 278 442 q 315 432 308 433 l 499 382 q 624 315 586 357 q 661 186 661 272 q 593 26 661 67 q 357 -15 525 -15 q 72 7 204 -15 l 83 125 q 315 119 156 119 q 462 132 425 119 q 499 185 499 144 q 497 200 499 193 q 493 213 496 207 q 488 222 490 218 q 478 231 485 226 q 467 237 471 235 q 452 242 463 239 q 437 247 442 246 q 418 253 432 249 q 399 258 404 257 z "},"Ş":{"ha":792,"x_min":67,"x_max":731,"o":"m 453 379 l 260 440 q 111 541 156 474 q 67 718 67 608 q 140 925 67 875 q 396 975 213 975 q 697 943 572 975 l 686 819 q 401 825 528 825 q 274 806 306 825 q 242 715 242 788 q 265 631 242 656 q 349 588 288 607 l 533 531 q 687 428 643 496 q 731 251 731 361 q 656 38 731 93 q 390 -17 581 -17 q 79 14 232 -17 l 90 142 q 394 136 333 136 q 522 158 490 136 q 554 253 554 181 q 533 338 554 314 q 453 379 511 361 m 311 -150 l 328 -76 q 470 -83 429 -65 q 510 -167 511 -100 q 434 -312 507 -262 q 253 -347 361 -361 l 276 -265 q 360 -243 328 -265 q 396 -181 393 -221 q 381 -156 397 -161 q 311 -150 364 -150 z "},"ş":{"ha":718,"x_min":60,"x_max":661,"o":"m 399 258 l 219 307 q 95 378 131 332 q 60 507 60 424 q 122 658 60 617 q 338 700 185 700 q 639 675 504 697 l 626 558 q 367 564 454 564 q 249 555 275 564 q 222 506 222 546 q 224 488 222 496 q 228 474 226 479 q 235 463 229 468 q 244 456 242 458 q 258 449 247 453 q 274 443 269 444 q 293 438 278 442 q 315 432 308 433 l 499 382 q 624 315 586 357 q 661 186 661 272 q 593 26 661 67 q 357 -15 525 -15 q 72 7 204 -15 l 83 125 q 315 119 156 119 q 462 132 425 119 q 499 185 499 144 q 497 200 499 193 q 493 213 496 207 q 488 222 490 218 q 478 231 485 226 q 467 237 471 235 q 452 242 463 239 q 437 247 442 246 q 418 253 432 249 q 399 258 404 257 m 261 -146 l 278 -72 q 420 -78 379 -61 q 460 -162 461 -96 q 384 -308 457 -258 q 203 -342 311 -357 l 226 -260 q 310 -239 278 -261 q 346 -176 343 -217 q 331 -151 347 -157 q 261 -146 315 -146 z "},"Š":{"ha":792,"x_min":67,"x_max":731,"o":"m 636 1211 l 431 1029 l 357 1029 l 153 1211 l 204 1281 l 389 1168 l 400 1168 l 583 1281 l 636 1211 m 453 379 l 260 440 q 111 541 156 474 q 67 718 67 608 q 140 925 67 875 q 396 975 213 975 q 697 943 572 975 l 686 819 q 401 825 528 825 q 274 806 306 825 q 242 715 242 788 q 265 631 242 656 q 349 588 288 607 l 533 531 q 687 428 643 496 q 731 251 731 361 q 656 38 731 93 q 390 -17 581 -17 q 79 14 232 -17 l 90 142 q 394 136 333 136 q 522 158 490 136 q 554 253 554 181 q 533 338 554 314 q 453 379 511 361 z "},"š":{"ha":718,"x_min":60,"x_max":661,"o":"m 608 960 l 403 778 l 329 778 l 125 960 l 176 1031 l 361 917 l 372 917 l 556 1031 l 608 960 m 399 258 l 219 307 q 95 378 131 332 q 60 507 60 424 q 122 658 60 617 q 338 700 185 700 q 639 675 504 697 l 626 558 q 367 564 454 564 q 249 555 275 564 q 222 506 222 546 q 224 488 222 496 q 228 474 226 479 q 235 463 229 468 q 244 456 242 458 q 258 449 247 453 q 274 443 269 444 q 293 438 278 442 q 315 432 308 433 l 499 382 q 624 315 586 357 q 661 186 661 272 q 593 26 661 67 q 357 -15 525 -15 q 72 7 204 -15 l 83 125 q 315 119 156 119 q 462 132 425 119 q 499 185 499 144 q 497 200 499 193 q 493 213 496 207 q 488 222 490 218 q 478 231 485 226 q 467 237 471 235 q 452 242 463 239 q 437 247 442 246 q 418 253 432 249 q 399 258 404 257 z "},"Ţ":{"ha":822,"x_min":29,"x_max":793,"o":"m 793 958 l 793 810 l 497 810 l 497 0 l 322 0 l 322 810 l 29 810 l 29 958 l 793 958 m 317 -133 l 333 -60 q 476 -66 435 -49 q 515 -150 517 -83 q 440 -295 513 -246 q 258 -329 367 -344 l 282 -247 q 366 -226 333 -249 q 401 -164 399 -204 q 387 -139 403 -144 q 317 -133 371 -133 z "},"ţ":{"ha":556,"x_min":31,"x_max":521,"o":"m 321 558 l 321 213 q 339 151 321 168 q 403 133 357 133 l 496 133 l 514 8 q 339 -15 440 -15 q 202 36 250 -15 q 154 183 154 88 l 154 558 l 31 558 l 31 674 l 153 681 l 153 876 l 321 876 l 321 681 l 521 681 l 521 558 l 321 558 m 222 -144 l 239 -71 q 381 -77 340 -60 q 421 -161 422 -94 q 345 -306 418 -257 q 163 -342 272 -356 l 188 -260 q 272 -238 239 -261 q 306 -175 304 -215 q 291 -151 307 -157 q 222 -144 275 -144 z "},"Ť":{"ha":822,"x_min":29,"x_max":793,"o":"m 375 1029 l 169 1211 l 221 1281 l 406 1168 l 417 1168 l 600 1281 l 654 1211 l 447 1029 l 375 1029 m 793 810 l 497 810 l 497 0 l 322 0 l 322 810 l 29 810 l 29 958 l 793 958 l 793 810 z "},"ť":{"ha":556,"x_min":31,"x_max":536,"o":"m 481 769 l 411 788 q 428 931 428 858 q 385 975 385 931 l 385 1039 q 399 1078 386 1067 q 442 1089 413 1089 l 483 1089 q 525 1078 514 1089 q 536 1039 536 1067 l 536 965 q 481 769 535 856 m 321 681 l 521 681 l 521 558 l 321 558 l 321 213 q 339 151 321 168 q 403 133 357 133 l 496 133 l 514 8 q 339 -15 440 -15 q 202 36 250 -15 q 154 183 154 88 l 154 558 l 31 558 l 31 674 l 153 681 l 153 876 l 321 876 l 321 681 z "},"Ŧ":{"ha":822,"x_min":31,"x_max":793,"o":"m 499 810 l 499 579 l 683 579 l 683 489 l 499 489 l 499 0 l 324 0 l 324 489 l 138 489 l 138 579 l 324 579 l 324 810 l 31 810 l 31 958 l 793 958 l 793 810 l 499 810 z "},"ŧ":{"ha":556,"x_min":31,"x_max":521,"o":"m 321 558 l 321 444 l 482 444 l 482 357 l 321 357 l 321 213 q 339 151 321 168 q 403 133 357 133 l 496 133 l 514 8 q 339 -15 440 -15 q 202 36 250 -15 q 154 183 154 88 l 154 357 l 68 357 l 68 444 l 154 444 l 154 558 l 31 558 l 31 674 l 153 681 l 153 876 l 321 876 l 321 681 l 521 681 l 521 558 l 321 558 z "},"Ū":{"ha":932,"x_min":100,"x_max":832,"o":"m 669 1081 l 265 1081 l 265 1197 l 669 1197 l 669 1081 m 832 958 l 832 375 q 751 71 832 160 q 474 -18 671 -18 q 184 71 268 -18 q 100 375 100 160 l 100 958 l 274 958 l 274 375 q 316 184 274 238 q 467 131 358 131 q 615 184 574 131 q 657 375 657 238 l 657 958 l 832 958 z "},"ū":{"ha":804,"x_min":90,"x_max":710,"o":"m 608 839 l 204 839 l 204 956 l 608 956 l 608 839 m 710 681 l 710 0 l 576 0 l 564 92 q 279 -18 419 -18 q 90 171 90 -18 l 90 681 l 260 681 l 260 221 q 276 146 258 167 q 343 125 294 125 q 542 200 413 125 l 542 681 l 710 681 z "},"Ů":{"ha":932,"x_min":100,"x_max":832,"o":"m 468 1297 q 578 1253 532 1297 q 625 1143 625 1208 q 579 1034 625 1078 q 468 990 533 990 q 356 1034 401 990 q 310 1143 310 1078 q 356 1253 310 1208 q 468 1297 401 1297 m 468 1219 q 415 1199 436 1219 q 394 1143 394 1178 q 415 1090 394 1110 q 468 1069 436 1069 q 519 1090 499 1069 q 540 1143 540 1110 q 519 1199 540 1178 q 468 1219 499 1219 m 832 958 l 832 375 q 751 71 832 160 q 474 -18 671 -18 q 184 71 268 -18 q 100 375 100 160 l 100 958 l 274 958 l 274 375 q 316 184 274 238 q 467 131 358 131 q 615 184 574 131 q 657 375 657 238 l 657 958 l 832 958 z "},"ů":{"ha":804,"x_min":90,"x_max":710,"o":"m 407 749 q 294 792 340 749 q 249 901 249 836 q 294 1011 249 967 q 407 1056 340 1056 q 517 1011 471 1056 q 564 901 564 967 q 518 792 564 836 q 407 749 472 749 m 407 976 q 354 956 375 976 q 333 901 333 935 q 354 847 333 867 q 407 826 375 826 q 458 847 438 826 q 479 901 479 867 q 458 956 479 935 q 407 976 438 976 m 710 681 l 710 0 l 576 0 l 564 92 q 279 -18 419 -18 q 90 171 90 -18 l 90 681 l 260 681 l 260 221 q 276 146 258 167 q 343 125 294 125 q 542 200 413 125 l 542 681 l 710 681 z "},"Ű":{"ha":932,"x_min":100,"x_max":832,"o":"m 528 1222 l 326 996 l 256 1050 l 411 1303 l 528 1222 m 775 1222 l 574 996 l 506 1050 l 658 1303 l 775 1222 m 832 958 l 832 375 q 751 71 832 160 q 474 -18 671 -18 q 184 71 268 -18 q 100 375 100 160 l 100 958 l 274 958 l 274 375 q 316 184 274 238 q 467 131 358 131 q 615 184 574 131 q 657 375 657 238 l 657 958 l 832 958 z "},"ű":{"ha":804,"x_min":90,"x_max":714,"o":"m 265 753 l 194 807 l 350 1060 l 467 981 l 265 753 m 444 807 l 597 1060 l 714 981 l 513 753 l 444 807 m 542 681 l 710 681 l 710 0 l 576 0 l 564 92 q 279 -18 419 -18 q 90 171 90 -18 l 90 681 l 260 681 l 260 221 q 276 146 258 167 q 343 125 294 125 q 542 200 413 125 l 542 681 z "},"Ų":{"ha":932,"x_min":100,"x_max":832,"o":"m 832 958 l 832 375 q 761 83 832 174 q 521 -17 690 -7 q 432 -160 460 -96 q 442 -219 413 -204 q 529 -214 471 -233 l 546 -281 q 394 -308 450 -318 q 319 -259 339 -297 q 318 -171 300 -221 q 443 -18 342 -94 q 178 78 256 -12 q 100 375 100 168 l 100 958 l 274 958 l 274 375 q 316 184 274 238 q 467 131 358 131 q 615 184 574 131 q 657 375 657 238 l 657 958 l 832 958 z "},"ų":{"ha":804,"x_min":90,"x_max":736,"o":"m 718 -201 l 736 -268 q 584 -295 640 -306 q 508 -247 528 -285 q 507 -158 489 -208 q 640 0 533 -78 l 576 0 l 564 92 q 279 -18 419 -18 q 90 171 90 -18 l 90 681 l 260 681 l 260 221 q 276 146 258 167 q 343 125 294 125 q 542 200 413 125 l 542 681 l 710 681 l 710 0 l 714 0 q 622 -147 650 -79 q 631 -206 603 -192 q 718 -201 660 -221 z "},"Ŵ":{"ha":1335,"x_min":40,"x_max":1294,"o":"m 913 1071 l 858 1003 l 674 1136 l 663 1136 l 476 1003 l 425 1074 l 607 1256 l 729 1256 l 913 1071 m 1294 958 l 1129 49 q 1106 13 1124 26 q 1065 0 1089 0 l 883 0 q 819 50 829 0 l 699 718 q 681 831 692 756 l 653 831 q 635 718 640 750 l 515 50 q 493 14 511 28 q 450 0 475 0 l 269 0 q 228 13 246 0 q 206 49 210 26 l 40 958 l 221 958 l 335 260 q 350 129 343 213 l 379 129 q 401 260 392 210 l 519 903 q 583 958 529 958 l 753 958 q 794 943 776 958 q 815 903 811 928 l 933 258 q 953 129 947 189 l 983 129 q 991 192 986 149 q 999 257 996 236 l 1114 958 l 1294 958 z "},"ŵ":{"ha":1158,"x_min":26,"x_max":1132,"o":"m 825 822 l 771 754 l 586 888 l 575 888 l 389 754 l 338 824 l 519 1006 l 642 1006 l 825 822 m 1132 681 l 953 46 q 893 0 942 0 l 750 0 q 688 53 697 0 l 606 471 q 597 524 603 486 q 588 582 592 561 l 571 582 l 551 471 l 472 53 q 450 15 468 29 q 408 0 432 0 l 268 0 q 207 46 215 0 l 26 681 l 199 681 l 311 213 q 329 104 326 149 l 347 104 q 354 138 350 117 q 362 178 358 160 q 368 213 365 196 l 451 631 q 511 681 461 681 l 649 681 q 689 667 672 681 q 710 629 706 653 l 790 213 q 801 153 793 192 q 811 104 808 115 l 829 104 q 847 213 842 189 l 960 681 l 1132 681 z "},"Ŷ":{"ha":818,"x_min":7,"x_max":810,"o":"m 217 1004 l 165 1074 l 347 1257 l 469 1257 l 651 1072 l 599 1004 l 414 1138 l 403 1138 l 217 1004 m 496 324 l 496 0 l 322 0 l 322 326 l 7 958 l 190 958 l 365 586 q 404 471 375 564 l 415 471 q 454 586 444 564 l 629 958 l 810 958 l 496 324 z "},"ŷ":{"ha":758,"x_min":17,"x_max":740,"o":"m 190 754 l 139 824 l 322 1006 l 443 1006 l 626 822 l 572 754 l 388 888 l 376 888 l 190 754 m 740 681 l 488 -21 q 364 -212 447 -136 q 144 -282 281 -289 l 131 -175 q 258 -115 211 -153 q 331 -15 306 -76 l 338 0 l 304 0 q 247 42 258 0 l 17 681 l 196 681 l 344 213 q 367 122 358 169 l 386 122 q 401 169 392 139 q 414 213 410 200 l 560 681 l 740 681 z "},"Ÿ":{"ha":818,"x_min":7,"x_max":810,"o":"m 311 1060 l 256 1060 q 214 1101 214 1060 l 214 1178 q 256 1221 214 1221 l 311 1221 q 353 1178 353 1221 l 353 1101 q 311 1060 353 1060 m 560 1060 l 504 1060 q 463 1101 463 1060 l 463 1178 q 504 1221 463 1221 l 560 1221 q 601 1178 601 1221 l 601 1101 q 560 1060 601 1060 m 496 324 l 496 0 l 322 0 l 322 326 l 7 958 l 190 958 l 365 586 q 404 471 375 564 l 415 471 q 454 586 444 564 l 629 958 l 810 958 l 496 324 z "},"Ź":{"ha":797,"x_min":63,"x_max":736,"o":"m 351 1006 l 299 1081 l 560 1286 l 646 1161 l 351 1006 m 736 142 l 736 0 l 63 0 l 63 142 l 535 817 l 71 817 l 71 958 l 726 958 l 726 817 l 254 142 l 736 142 z "},"ź":{"ha":719,"x_min":63,"x_max":657,"o":"m 308 756 l 256 831 l 517 1035 l 604 911 l 308 756 m 657 129 l 657 0 l 63 0 l 63 129 l 463 551 l 68 551 l 68 681 l 651 681 l 651 551 l 251 129 l 657 129 z "},"Ż":{"ha":797,"x_min":63,"x_max":736,"o":"m 431 1046 l 378 1046 q 329 1093 329 1046 l 329 1168 q 378 1217 329 1217 l 431 1217 q 479 1168 479 1217 l 479 1093 q 431 1046 479 1046 m 736 142 l 736 0 l 63 0 l 63 142 l 535 817 l 71 817 l 71 958 l 726 958 l 726 817 l 254 142 l 736 142 z "},"ż":{"ha":719,"x_min":63,"x_max":657,"o":"m 388 796 l 336 796 q 288 843 288 796 l 288 918 q 336 967 288 967 l 388 967 q 436 918 436 967 l 436 843 q 388 796 436 796 m 657 129 l 657 0 l 63 0 l 63 129 l 463 551 l 68 551 l 68 681 l 651 681 l 651 551 l 251 129 l 657 129 z "},"Ž":{"ha":797,"x_min":63,"x_max":736,"o":"m 368 1029 l 164 1211 l 215 1281 l 400 1168 l 411 1168 l 594 1281 l 647 1211 l 442 1029 l 368 1029 m 736 142 l 736 0 l 63 0 l 63 142 l 535 817 l 71 817 l 71 958 l 726 958 l 726 817 l 254 142 l 736 142 z "},"ž":{"ha":719,"x_min":63,"x_max":657,"o":"m 326 778 l 121 960 l 172 1031 l 357 917 l 368 917 l 551 1031 l 606 960 l 399 778 l 326 778 m 657 129 l 657 0 l 63 0 l 63 129 l 463 551 l 68 551 l 68 681 l 651 681 l 651 551 l 251 129 l 657 129 z "},"ƒ":{"ha":644,"x_min":-53,"x_max":628,"o":"m 604 842 l 506 842 q 430 822 453 842 q 403 747 407 803 l 385 561 l 564 561 l 553 438 l 374 438 l 332 -10 q 271 -164 324 -111 q 108 -217 218 -217 q -53 -204 13 -217 l -31 -83 l 60 -83 q 136 -62 113 -83 q 165 11 160 -42 l 204 438 l 68 438 l 76 556 l 215 561 l 235 768 q 464 974 253 974 q 628 963 568 974 l 604 842 z "},"Ș":{"ha":792,"x_min":67,"x_max":731,"o":"m 453 379 l 260 440 q 111 541 156 474 q 67 718 67 608 q 140 925 67 875 q 396 975 213 975 q 697 943 572 975 l 686 819 q 401 825 528 825 q 274 806 306 825 q 242 715 242 788 q 265 631 242 656 q 349 588 288 607 l 533 531 q 687 428 643 496 q 731 251 731 361 q 656 38 731 93 q 390 -17 581 -17 q 79 14 232 -17 l 90 142 q 394 136 333 136 q 522 158 490 136 q 554 253 554 181 q 533 338 554 314 q 453 379 511 361 m 372 -76 l 413 -76 q 455 -87 443 -76 q 467 -126 467 -99 l 467 -200 q 410 -396 465 -308 l 342 -378 q 357 -235 357 -312 q 315 -190 315 -235 l 315 -126 q 330 -87 318 -99 q 372 -76 342 -76 z "},"ș":{"ha":718,"x_min":60,"x_max":661,"o":"m 399 258 l 219 307 q 95 378 131 332 q 60 507 60 424 q 122 658 60 617 q 338 700 185 700 q 639 675 504 697 l 626 558 q 367 564 454 564 q 249 555 275 564 q 222 506 222 546 q 224 488 222 496 q 228 474 226 479 q 235 463 229 468 q 244 456 242 458 q 258 449 247 453 q 274 443 269 444 q 293 438 278 442 q 315 432 308 433 l 499 382 q 624 315 586 357 q 661 186 661 272 q 593 26 661 67 q 357 -15 525 -15 q 72 7 204 -15 l 83 125 q 315 119 156 119 q 462 132 425 119 q 499 185 499 144 q 497 200 499 193 q 493 213 496 207 q 488 222 490 218 q 478 231 485 226 q 467 237 471 235 q 452 242 463 239 q 437 247 442 246 q 418 253 432 249 q 399 258 404 257 m 343 -75 l 383 -75 q 426 -86 414 -75 q 438 -125 438 -97 l 438 -199 q 381 -394 436 -304 l 313 -376 q 328 -232 328 -310 q 286 -189 283 -232 l 286 -125 q 300 -86 288 -97 q 343 -75 313 -75 z "},"Ț":{"ha":822,"x_min":29,"x_max":793,"o":"m 793 810 l 497 810 l 497 0 l 322 0 l 322 810 l 29 810 l 29 958 l 793 958 l 793 810 m 375 -76 l 417 -76 q 458 -87 447 -76 q 469 -126 469 -99 l 469 -200 q 414 -396 468 -310 l 344 -378 q 361 -235 361 -307 q 318 -190 318 -235 l 318 -126 q 333 -87 319 -99 q 375 -76 346 -76 z "},"ț":{"ha":556,"x_min":31,"x_max":521,"o":"m 321 558 l 321 213 q 339 151 321 168 q 403 133 357 133 l 496 133 l 514 8 q 339 -15 440 -15 q 202 36 250 -15 q 154 183 154 88 l 154 558 l 31 558 l 31 674 l 153 681 l 153 876 l 321 876 l 321 681 l 521 681 l 521 558 l 321 558 m 300 -76 l 342 -76 q 383 -87 372 -76 q 394 -126 394 -99 l 394 -200 q 339 -396 394 -307 l 269 -378 q 286 -235 286 -315 q 243 -190 243 -235 l 243 -126 q 258 -87 244 -99 q 300 -76 271 -76 z "},"ˆ":{"ha":606,"x_min":61,"x_max":549,"o":"m 549 814 l 494 746 l 310 879 l 299 879 l 113 746 l 61 815 l 243 999 l 365 999 l 549 814 z "},"ˇ":{"ha":606,"x_min":63,"x_max":547,"o":"m 547 951 l 340 769 l 268 769 l 63 951 l 114 1021 l 299 908 l 310 908 l 493 1021 l 547 951 z "},"˘":{"ha":535,"x_min":49,"x_max":488,"o":"m 406 975 l 488 964 q 435 822 496 878 q 269 765 375 765 q 101 822 161 765 q 49 964 40 878 l 131 975 q 269 883 131 883 q 406 975 406 883 z "},"˙":{"ha":318,"x_min":85,"x_max":233,"o":"m 133 964 l 186 964 q 233 915 233 964 l 233 840 q 186 793 233 793 l 133 793 q 85 840 85 793 l 85 915 q 133 964 85 964 z "},"˚":{"ha":425,"x_min":56,"x_max":369,"o":"m 213 1042 q 323 997 276 1042 q 369 888 369 951 q 324 778 369 822 q 213 733 278 733 q 101 777 146 733 q 56 888 56 821 q 101 997 56 951 q 213 1042 147 1042 m 213 963 q 160 942 181 963 q 139 888 139 921 q 160 833 139 853 q 213 813 181 813 q 265 833 244 813 q 286 888 286 853 q 265 942 286 921 q 213 963 243 963 z "},"˛":{"ha":349,"x_min":61,"x_max":290,"o":"m 197 3 l 268 0 q 176 -147 201 -82 q 185 -206 156 -192 q 272 -201 214 -221 l 290 -268 q 138 -295 194 -306 q 63 -247 82 -285 q 61 -158 43 -208 q 197 3 89 -76 z "},"˜":{"ha":599,"x_min":69,"x_max":529,"o":"m 143 801 l 69 801 q 91 939 57 892 q 181 982 125 986 q 294 947 228 978 q 396 913 361 917 q 443 922 431 907 q 456 975 456 936 l 529 975 q 510 840 542 888 q 418 796 478 792 q 297 832 365 800 q 201 868 229 864 q 155 857 167 872 q 143 801 143 842 z "},"˝":{"ha":668,"x_min":71,"x_max":592,"o":"m 343 953 l 142 725 l 71 779 l 226 1032 l 343 953 m 592 953 l 390 725 l 321 779 l 475 1032 l 592 953 z "},"Δ":{"ha":890,"x_min":28,"x_max":861,"o":"m 861 64 l 861 0 l 28 0 l 28 64 l 358 958 l 532 958 l 861 64 m 660 136 l 476 674 q 446 792 474 682 q 432 738 443 781 q 414 672 421 694 l 228 136 l 660 136 z "},"Ω":{"ha":999,"x_min":68,"x_max":931,"o":"m 68 149 l 193 149 q 288 133 240 149 q 138 303 182 214 q 96 531 94 392 q 190 867 96 758 q 500 976 285 976 q 808 867 714 976 q 903 528 903 757 q 860 298 903 385 q 711 133 817 211 q 806 149 765 149 l 931 149 l 931 0 l 561 0 l 561 140 q 687 290 651 208 q 722 506 722 371 q 672 756 722 683 q 499 829 621 829 q 326 756 375 829 q 276 503 276 683 q 312 289 276 364 q 436 140 347 214 l 436 0 l 68 0 l 68 149 z "},"μ":{"ha":844,"x_min":108,"x_max":732,"o":"m 732 681 l 732 0 l 600 0 l 585 99 q 325 -18 453 -18 q 247 -7 285 -18 q 256 -87 256 -46 l 256 -271 l 108 -271 l 108 681 l 278 681 l 278 221 q 300 158 276 178 q 374 138 324 138 q 563 196 447 138 l 563 681 l 732 681 z "},"π":{"ha":896,"x_min":33,"x_max":863,"o":"m 863 553 l 744 553 l 744 0 l 576 0 l 576 553 l 319 553 l 319 0 l 151 0 l 151 553 l 33 553 l 33 682 l 863 682 l 863 553 z "},"Ё":{"ha":789,"x_min":100,"x_max":725,"o":"m 335 1082 l 279 1082 q 238 1125 238 1082 l 238 1201 q 279 1243 238 1243 l 335 1243 q 376 1201 376 1243 l 376 1125 q 335 1082 376 1082 m 583 1082 l 528 1082 q 486 1125 486 1082 l 486 1201 q 528 1243 486 1243 l 583 1243 q 625 1201 625 1243 l 625 1125 q 583 1082 625 1082 m 718 140 l 725 8 q 303 -3 599 -3 q 154 46 208 -3 q 100 179 100 94 l 100 779 q 154 913 100 864 q 303 961 208 961 q 725 950 599 961 l 718 817 l 342 817 q 289 799 304 817 q 274 736 274 781 l 274 568 l 665 568 l 665 435 l 274 435 l 274 221 q 289 158 274 176 q 342 140 304 140 l 718 140 z "},"Ђ":{"ha":1051,"x_min":29,"x_max":1001,"o":"m 497 810 l 497 553 q 760 621 619 621 q 938 560 875 621 q 1001 328 1001 499 q 908 62 1001 140 q 640 -10 814 -17 l 624 115 q 782 167 736 126 q 828 313 828 207 q 801 446 828 417 q 699 475 774 475 q 497 422 603 475 l 497 0 l 322 0 l 322 810 l 29 810 l 29 958 l 792 958 l 792 810 l 497 810 z "},"Ѓ":{"ha":728,"x_min":106,"x_max":706,"o":"m 653 1161 l 357 1006 l 304 1081 l 565 1286 l 653 1161 m 106 0 l 106 763 q 160 906 106 850 q 297 961 214 961 q 706 949 582 961 l 697 817 l 361 817 q 297 798 315 817 q 279 729 279 779 l 279 0 l 106 0 z "},"Є":{"ha":810,"x_min":74,"x_max":758,"o":"m 742 151 l 758 19 q 471 -17 646 -17 q 163 94 251 -17 q 74 479 74 206 q 163 864 74 753 q 471 975 251 975 q 750 944 635 975 l 733 813 q 471 821 604 821 q 313 765 361 821 q 256 569 264 710 l 650 569 l 650 439 l 253 439 q 305 203 257 268 q 471 138 353 138 q 742 151 643 138 z "},"Ѕ":{"ha":792,"x_min":67,"x_max":731,"o":"m 453 379 l 260 440 q 111 541 156 474 q 67 718 67 608 q 140 925 67 875 q 396 975 213 975 q 697 943 572 975 l 686 819 q 401 825 528 825 q 274 806 306 825 q 242 715 242 788 q 265 631 242 656 q 349 588 288 607 l 533 531 q 687 428 643 496 q 731 251 731 361 q 656 38 731 93 q 390 -17 581 -17 q 79 14 232 -17 l 90 142 q 394 136 333 136 q 522 158 490 136 q 554 253 554 181 q 533 338 554 314 q 453 379 511 361 z "},"І":{"ha":389,"x_min":108,"x_max":282,"o":"m 282 0 l 108 0 l 108 958 l 282 958 l 282 0 z "},"Ї":{"ha":389,"x_min":1,"x_max":389,"o":"m 43 1219 l 99 1219 q 139 1178 139 1219 l 139 1100 q 99 1058 139 1058 l 43 1058 q 1 1100 1 1058 l 1 1178 q 43 1219 1 1219 m 292 1219 l 347 1219 q 389 1178 389 1219 l 389 1100 q 347 1058 389 1058 l 292 1058 q 250 1100 250 1058 l 250 1178 q 292 1219 250 1219 m 282 0 l 108 0 l 108 958 l 282 958 l 282 0 z "},"Ј":{"ha":492,"x_min":35,"x_max":388,"o":"m 388 958 l 388 211 q 335 43 388 101 q 188 -15 283 -15 q 35 8 94 -15 l 53 129 l 118 129 q 215 215 215 129 l 215 958 l 388 958 z "},"Љ":{"ha":1351,"x_min":26,"x_max":1297,"o":"m 804 592 l 965 592 q 1225 526 1153 592 q 1297 289 1297 460 q 1228 53 1297 117 q 994 -11 1160 -11 q 633 0 763 -11 l 633 824 l 488 824 q 408 736 415 824 q 369 387 385 490 q 321 194 354 283 q 213 42 278 86 q 39 -3 149 -3 l 26 115 q 160 242 113 144 q 176 283 169 261 q 190 330 183 304 q 201 376 197 356 q 210 430 206 396 q 218 484 215 464 q 224 547 221 504 q 230 611 228 590 q 236 685 232 632 q 242 761 240 738 q 460 958 251 958 l 804 958 l 804 592 m 804 135 l 965 133 q 1092 165 1063 133 q 1122 293 1122 196 q 1092 422 1122 388 q 965 457 1061 457 l 804 457 l 804 135 z "},"Њ":{"ha":1357,"x_min":108,"x_max":1303,"o":"m 810 588 l 972 588 q 1231 522 1158 588 q 1303 288 1303 457 q 1235 53 1303 117 q 1001 -11 1167 -11 q 638 0 767 -11 l 638 451 l 282 451 l 282 0 l 108 0 l 108 958 l 282 958 l 282 588 l 638 588 l 638 958 l 810 958 l 810 588 m 810 135 l 972 133 q 1098 164 1068 133 q 1128 290 1128 194 q 1098 419 1128 385 q 972 454 1068 454 l 810 454 l 810 135 z "},"Ћ":{"ha":1078,"x_min":29,"x_max":1011,"o":"m 497 810 l 497 556 q 779 622 640 622 q 955 567 899 622 q 1011 397 1011 513 l 1011 0 l 838 0 l 838 361 q 812 448 838 424 q 718 472 786 472 q 497 422 614 472 l 497 0 l 322 0 l 322 810 l 29 810 l 29 958 l 792 958 l 792 810 l 497 810 z "},"Ќ":{"ha":860,"x_min":108,"x_max":826,"o":"m 385 1006 l 332 1081 l 593 1286 l 681 1161 l 385 1006 m 496 503 l 496 497 q 667 402 614 485 q 799 82 719 319 q 826 0 817 29 l 644 0 q 535 306 563 247 q 411 425 485 404 q 353 432 386 432 l 272 432 q 282 338 282 376 l 282 0 l 108 0 l 108 958 l 282 958 l 282 676 q 272 565 282 628 l 353 565 q 430 581 396 565 q 490 630 464 597 q 536 706 515 663 q 578 812 557 750 q 621 943 599 874 q 625 958 624 953 l 801 958 q 696 665 724 721 q 554 517 640 547 q 496 503 528 507 z "},"Ѝ":{"ha":974,"x_min":108,"x_max":865,"o":"m 575 1081 l 522 1006 l 228 1161 l 314 1286 l 575 1081 m 865 0 l 697 0 l 697 628 q 708 749 697 685 l 700 749 q 647 632 672 674 l 285 0 l 108 0 l 108 958 l 275 958 l 275 339 q 264 214 275 269 l 274 214 q 326 329 292 267 l 688 958 l 865 958 l 865 0 z "},"Ў":{"ha":804,"x_min":18,"x_max":797,"o":"m 539 1239 l 622 1228 q 570 1085 631 1142 q 403 1029 510 1029 q 235 1085 296 1029 q 182 1228 174 1142 l 264 1239 q 403 1147 264 1147 q 505 1171 469 1147 q 539 1239 540 1194 m 797 958 l 551 243 q 458 60 510 122 q 317 -11 406 -3 q 115 10 219 -18 l 135 136 q 213 132 189 133 q 266 133 236 131 q 306 142 296 136 q 332 161 317 147 q 355 192 347 175 q 375 240 363 208 l 388 275 l 338 275 q 226 356 253 275 l 18 958 l 196 958 l 367 435 q 392 417 371 417 l 438 417 l 618 958 l 797 958 z "},"Џ":{"ha":949,"x_min":108,"x_max":840,"o":"m 840 958 l 840 0 l 546 0 l 539 -210 l 419 -210 l 411 0 l 108 0 l 108 958 l 282 958 l 282 135 l 665 135 l 665 958 l 840 958 z "},"А":{"ha":883,"x_min":7,"x_max":876,"o":"m 619 271 l 264 271 l 185 0 l 7 0 l 294 913 q 357 958 307 958 l 526 958 q 589 913 576 958 l 876 0 l 699 0 l 619 271 m 578 414 l 482 744 q 461 826 463 819 l 424 826 l 401 744 l 306 414 l 578 414 z "},"Б":{"ha":843,"x_min":108,"x_max":785,"o":"m 282 561 l 450 561 q 711 498 638 561 q 785 272 785 435 q 764 119 785 176 q 693 33 743 61 q 586 -4 643 4 q 429 -12 529 -12 q 113 0 257 -12 l 108 0 l 108 958 q 421 968 293 968 q 728 958 550 968 l 714 818 l 282 818 l 282 561 m 282 131 l 450 129 q 579 158 549 129 q 610 279 610 188 q 579 401 610 369 q 450 433 549 433 l 282 433 l 282 131 z "},"В":{"ha":872,"x_min":108,"x_max":804,"o":"m 610 500 l 610 494 q 759 422 714 485 q 804 239 804 358 q 733 42 804 94 q 489 -11 661 -11 q 108 0 240 -11 l 108 958 q 446 969 226 969 q 703 917 632 969 q 775 719 775 865 q 736 562 775 615 q 610 500 697 508 m 278 560 l 453 560 q 574 588 542 560 q 607 697 607 617 q 571 803 607 776 q 438 829 535 829 l 278 829 l 278 560 m 278 131 l 461 129 q 594 158 558 129 q 629 271 629 186 q 592 399 629 365 q 454 433 556 432 l 278 433 l 278 131 z "},"Г":{"ha":728,"x_min":106,"x_max":706,"o":"m 106 0 l 106 763 q 160 906 106 850 q 297 961 214 961 q 706 949 582 961 l 697 817 l 361 817 q 297 798 315 817 q 279 729 279 779 l 279 0 l 106 0 z "},"Д":{"ha":996,"x_min":28,"x_max":958,"o":"m 958 135 l 958 -210 l 838 -210 l 822 0 l 164 0 l 149 -210 l 28 -210 l 28 135 l 126 135 q 256 763 228 372 q 319 906 261 853 q 474 958 376 958 l 836 958 l 836 135 l 958 135 m 663 135 l 663 824 l 513 824 q 445 804 465 824 q 422 735 425 785 q 377 390 406 528 q 292 135 349 253 l 663 135 z "},"Е":{"ha":789,"x_min":100,"x_max":725,"o":"m 718 140 l 725 8 q 303 -3 599 -3 q 154 46 208 -3 q 100 179 100 94 l 100 779 q 154 913 100 864 q 303 961 208 961 q 725 950 599 961 l 718 817 l 342 817 q 289 799 304 817 q 274 736 274 781 l 274 568 l 665 568 l 665 435 l 274 435 l 274 221 q 289 158 274 176 q 342 140 304 140 l 718 140 z "},"Ж":{"ha":1286,"x_min":33,"x_max":1251,"o":"m 922 503 l 922 497 q 1100 390 1038 485 q 1221 96 1147 321 q 1235 50 1225 82 q 1251 0 1246 17 l 1069 0 q 956 307 981 256 q 844 425 908 406 q 794 432 822 432 l 718 432 q 728 338 728 376 l 728 0 l 561 0 l 561 338 q 572 432 561 381 l 490 432 q 358 360 403 432 q 238 64 314 288 q 215 0 224 22 l 33 0 q 150 331 118 264 q 290 481 207 447 q 363 497 322 493 l 363 503 q 277 531 314 508 q 217 576 240 553 q 165 661 193 599 q 124 762 138 724 q 79 899 111 800 q 60 958 67 938 l 236 958 q 344 672 314 731 q 489 565 404 567 l 571 565 q 561 676 561 628 l 561 958 l 728 958 l 728 676 q 718 565 728 615 l 793 565 q 896 615 851 565 q 963 719 940 664 q 1036 919 986 774 q 1050 958 1046 944 l 1226 958 q 1122 664 1149 721 q 981 517 1067 547 q 922 503 954 507 z "},"З":{"ha":774,"x_min":44,"x_max":703,"o":"m 81 815 l 67 944 q 353 969 190 969 q 604 917 535 969 q 674 719 674 865 q 635 562 674 615 q 513 500 597 508 l 513 494 q 659 422 615 485 q 703 239 703 358 q 633 42 703 94 q 394 -11 563 -11 q 44 26 182 -11 l 58 150 q 363 128 219 128 q 490 156 456 128 q 524 271 524 185 q 488 397 524 364 q 354 432 451 431 l 181 432 l 181 563 l 354 563 q 469 590 438 563 q 501 697 501 618 q 467 804 501 776 q 340 832 433 832 q 81 815 264 832 z "},"И":{"ha":974,"x_min":108,"x_max":865,"o":"m 865 0 l 697 0 l 697 628 q 708 749 697 685 l 700 749 q 647 632 672 674 l 285 0 l 108 0 l 108 958 l 275 958 l 275 339 q 264 214 275 269 l 274 214 q 326 329 292 267 l 688 958 l 865 958 l 865 0 z "},"Й":{"ha":974,"x_min":108,"x_max":865,"o":"m 592 1233 l 711 1233 q 659 1088 719 1147 q 493 1029 599 1029 q 324 1088 386 1029 q 272 1233 263 1147 l 392 1233 q 493 1117 389 1117 q 592 1233 594 1117 m 865 0 l 697 0 l 697 628 q 708 749 697 685 l 700 749 q 647 632 672 674 l 285 0 l 108 0 l 108 958 l 275 958 l 275 339 q 264 214 275 269 l 274 214 q 326 329 292 267 l 688 958 l 865 958 l 865 0 z "},"К":{"ha":860,"x_min":108,"x_max":826,"o":"m 496 503 l 496 497 q 667 402 614 485 q 799 82 719 319 q 826 0 817 29 l 644 0 q 535 306 563 247 q 411 425 485 404 q 353 432 386 432 l 272 432 q 282 338 282 376 l 282 0 l 108 0 l 108 958 l 282 958 l 282 676 q 272 565 282 628 l 353 565 q 430 581 396 565 q 490 630 464 597 q 536 706 515 663 q 578 812 557 750 q 621 943 599 874 q 625 958 624 953 l 801 958 q 696 665 724 721 q 554 517 640 547 q 496 503 528 507 z "},"Л":{"ha":924,"x_min":10,"x_max":815,"o":"m 815 958 l 815 0 l 640 0 l 640 824 l 492 824 q 399 736 407 824 q 363 390 379 500 q 311 194 346 279 q 24 -3 225 -19 l 10 132 q 96 169 63 144 q 147 240 129 193 q 196 428 179 321 q 229 764 213 536 q 443 958 246 958 l 815 958 z "},"М":{"ha":1243,"x_min":90,"x_max":1154,"o":"m 869 958 l 1047 958 q 1117 890 1113 958 l 1154 0 l 985 0 l 951 818 l 926 818 l 761 181 q 688 122 746 122 l 556 122 q 481 181 496 122 l 314 818 l 289 818 l 260 0 l 90 0 l 126 890 q 194 958 129 958 l 374 958 q 444 900 431 958 l 582 381 q 610 250 596 328 l 631 250 q 660 382 657 369 l 796 900 q 869 958 811 958 z "},"Н":{"ha":943,"x_min":108,"x_max":835,"o":"m 835 958 l 835 0 l 660 0 l 660 439 l 282 439 l 282 0 l 108 0 l 108 958 l 282 958 l 282 582 l 660 582 l 660 958 l 835 958 z "},"О":{"ha":938,"x_min":74,"x_max":864,"o":"m 468 976 q 777 869 690 976 q 864 479 864 763 q 777 89 864 196 q 468 -18 690 -18 q 160 89 247 -18 q 74 479 74 196 q 160 869 74 763 q 468 976 247 976 m 468 828 q 302 753 347 828 q 257 479 257 679 q 302 205 257 279 q 468 131 347 131 q 635 205 590 131 q 681 479 681 279 q 635 753 681 679 q 468 828 590 828 z "},"П":{"ha":942,"x_min":108,"x_max":833,"o":"m 833 958 l 833 0 l 660 0 l 660 824 l 282 824 l 282 0 l 108 0 l 108 958 l 833 958 z "},"Р":{"ha":835,"x_min":108,"x_max":785,"o":"m 108 0 l 108 958 q 456 971 232 971 q 714 906 643 971 q 785 663 785 842 q 717 419 785 483 q 476 354 650 354 q 283 365 375 354 l 283 0 l 108 0 m 283 496 l 451 496 q 576 531 543 497 q 610 663 610 565 q 576 794 610 760 q 451 828 543 828 l 283 828 l 283 496 z "},"С":{"ha":803,"x_min":74,"x_max":758,"o":"m 743 150 l 758 19 q 464 -17 643 -17 q 161 94 249 -17 q 74 479 74 206 q 161 864 74 753 q 464 975 249 975 q 739 944 624 975 l 722 813 q 464 822 601 822 q 301 749 344 822 q 257 479 257 676 q 301 209 257 282 q 464 136 344 136 q 743 150 640 136 z "},"Т":{"ha":822,"x_min":29,"x_max":793,"o":"m 793 810 l 497 810 l 497 0 l 322 0 l 322 810 l 29 810 l 29 958 l 793 958 l 793 810 z "},"У":{"ha":804,"x_min":18,"x_max":797,"o":"m 797 958 l 551 243 q 458 60 510 122 q 317 -11 406 -3 q 115 10 219 -18 l 135 136 q 213 132 189 133 q 266 133 236 131 q 306 142 296 136 q 332 161 317 147 q 355 192 347 175 q 375 240 363 208 l 388 275 l 338 275 q 226 356 253 275 l 18 958 l 196 958 l 367 435 q 392 417 371 417 l 438 417 l 618 958 l 797 958 z "},"Ф":{"ha":1151,"x_min":54,"x_max":1099,"o":"m 663 1029 l 663 900 q 1000 798 903 889 q 1099 489 1097 707 q 1000 187 1097 276 q 664 86 903 97 l 664 -42 l 489 -42 l 489 86 q 151 187 247 97 q 54 489 54 276 q 151 798 54 707 q 489 900 247 889 l 489 1029 l 663 1029 m 496 226 l 496 761 q 286 695 342 753 q 231 489 231 638 q 286 290 231 346 q 496 226 342 235 m 656 761 l 656 226 q 864 290 808 235 q 921 489 919 346 q 865 694 919 638 q 656 761 810 751 z "},"Х":{"ha":869,"x_min":24,"x_max":846,"o":"m 447 433 l 421 433 l 207 0 l 24 0 l 278 493 l 42 958 l 224 958 l 419 558 l 449 558 l 644 958 l 828 958 l 590 493 l 846 0 l 661 0 l 447 433 z "},"Ц":{"ha":976,"x_min":108,"x_max":938,"o":"m 938 135 l 938 -210 l 817 -210 l 803 0 l 108 0 l 108 958 l 282 958 l 282 135 l 646 135 l 646 958 l 821 958 l 821 135 l 938 135 z "},"Ч":{"ha":890,"x_min":74,"x_max":782,"o":"m 782 958 l 782 0 l 608 0 l 608 413 q 303 335 454 335 q 130 390 186 335 q 74 561 74 446 l 74 958 l 247 958 l 247 597 q 273 513 246 539 q 365 488 300 488 q 608 540 481 488 l 608 958 l 782 958 z "},"Ш":{"ha":1321,"x_min":108,"x_max":1213,"o":"m 1213 958 l 1213 0 l 108 0 l 108 958 l 279 958 l 279 135 l 575 135 l 575 958 l 744 958 l 744 135 l 1042 135 l 1042 958 l 1213 958 z "},"Щ":{"ha":1360,"x_min":108,"x_max":1321,"o":"m 1321 135 l 1321 -210 l 1200 -210 l 1186 0 l 108 0 l 108 958 l 279 958 l 279 135 l 572 135 l 572 958 l 740 958 l 740 135 l 1035 135 l 1035 958 l 1204 958 l 1204 135 l 1321 135 z "},"Ъ":{"ha":1047,"x_min":28,"x_max":993,"o":"m 500 592 l 660 592 q 920 526 847 592 q 993 288 993 460 q 924 53 993 117 q 689 -11 856 -11 q 325 0 454 -11 l 325 810 l 28 810 l 28 958 l 500 958 l 500 592 m 500 135 l 660 133 q 788 164 758 133 q 818 290 818 194 q 788 422 818 386 q 660 457 757 457 l 500 457 l 500 135 z "},"Ы":{"ha":1213,"x_min":108,"x_max":1104,"o":"m 282 592 l 446 592 q 706 526 633 592 q 779 288 779 460 q 710 53 779 117 q 475 -11 642 -11 q 113 0 239 -11 l 108 0 l 108 958 l 282 958 l 282 592 m 1104 958 l 1104 0 l 931 0 l 931 958 l 1104 958 m 282 135 l 446 133 q 574 164 544 133 q 604 290 604 194 q 574 422 604 386 q 446 457 543 457 l 282 457 l 282 135 z "},"Ь":{"ha":835,"x_min":108,"x_max":781,"o":"m 282 592 l 447 592 q 708 526 635 592 q 781 288 781 460 q 712 53 781 117 q 476 -11 643 -11 q 113 0 239 -11 l 108 0 l 108 958 l 282 958 l 282 592 m 282 135 l 447 133 q 576 164 546 133 q 606 290 606 194 q 575 422 606 386 q 447 457 544 457 l 282 457 l 282 135 z "},"Э":{"ha":810,"x_min":51,"x_max":736,"o":"m 75 813 l 60 944 q 338 975 175 975 q 647 864 557 975 q 736 479 736 753 q 647 94 736 206 q 338 -17 557 -17 q 51 19 164 -17 l 68 151 q 339 138 167 138 q 505 203 457 138 q 556 439 553 268 l 160 439 l 160 569 l 554 569 q 497 765 546 710 q 339 821 449 821 q 75 813 206 821 z "},"Ю":{"ha":1319,"x_min":110,"x_max":1244,"o":"m 283 564 l 478 564 q 572 886 489 796 q 849 976 656 976 q 1158 869 1071 976 q 1244 479 1244 763 q 1158 89 1244 196 q 849 -18 1071 -18 q 565 79 649 -18 q 476 429 482 176 l 283 429 l 283 0 l 110 0 l 110 958 l 283 958 l 283 564 m 849 131 q 1015 205 969 131 q 1061 479 1060 279 q 1015 753 1060 679 q 849 828 969 828 q 689 753 732 828 q 646 479 646 679 q 689 205 646 279 q 849 131 732 131 z "},"Я":{"ha":865,"x_min":50,"x_max":758,"o":"m 758 0 l 583 0 l 583 376 l 418 375 q 307 288 332 375 l 233 0 l 50 0 l 131 293 q 271 431 161 410 l 269 439 q 128 513 171 451 q 88 690 86 574 q 163 906 88 842 q 411 971 238 971 q 758 958 635 971 l 758 0 m 583 518 l 583 828 l 415 828 q 294 797 326 828 q 261 679 263 767 q 295 555 261 592 q 415 518 329 518 l 583 518 z "},"а":{"ha":781,"x_min":63,"x_max":689,"o":"m 108 547 l 93 667 q 432 700 272 700 q 626 647 564 700 q 689 463 689 594 l 689 0 l 556 0 l 538 104 q 278 -15 431 -15 q 122 37 182 -15 q 63 182 63 89 l 63 251 q 115 378 63 333 q 264 422 168 422 l 519 422 l 519 464 q 493 542 518 522 q 394 561 468 561 q 108 547 289 561 m 231 231 l 231 204 q 251 140 231 160 q 319 121 272 121 q 519 201 421 121 l 519 307 l 303 307 q 247 286 263 306 q 231 231 231 267 z "},"б":{"ha":811,"x_min":85,"x_max":743,"o":"m 675 1026 l 711 894 q 607 850 658 863 q 494 831 556 838 q 392 811 433 824 q 228 636 258 774 q 210 535 214 583 l 213 535 q 260 597 236 572 q 338 640 285 621 q 465 660 390 660 q 680 584 617 660 q 743 336 743 508 q 671 70 743 157 q 415 -17 599 -17 q 261 6 324 -17 q 164 63 199 29 q 111 159 129 97 q 89 274 93 221 q 85 413 85 326 q 135 769 85 647 q 336 938 185 890 q 490 969 374 950 q 675 1026 606 988 m 421 528 q 291 485 322 528 q 260 333 260 442 q 293 164 260 210 q 414 118 326 118 q 533 164 500 118 q 567 332 567 210 q 536 488 567 447 q 421 528 506 528 z "},"в":{"ha":779,"x_min":96,"x_max":717,"o":"m 544 353 l 544 349 q 676 297 636 342 q 717 168 717 253 q 653 28 717 65 q 438 -10 590 -10 q 96 -1 221 -10 l 96 681 q 399 689 207 689 q 627 651 564 689 q 690 507 690 613 q 656 396 690 433 q 544 353 621 358 m 254 406 l 404 406 q 505 424 476 406 q 533 490 533 442 q 503 549 533 533 q 392 565 472 565 l 254 565 l 254 406 m 254 115 l 410 115 q 517 133 488 115 q 547 204 547 151 q 516 276 547 256 q 404 296 485 296 l 254 296 l 254 115 z "},"г":{"ha":658,"x_min":93,"x_max":635,"o":"m 93 0 l 93 529 q 258 688 93 688 q 635 672 522 688 l 628 554 l 331 554 q 278 538 294 554 q 261 483 261 521 l 261 0 l 93 0 z "},"д":{"ha":849,"x_min":36,"x_max":807,"o":"m 807 129 l 807 -199 l 697 -199 l 685 0 l 158 0 l 146 -199 l 36 -199 l 36 129 l 121 129 q 210 515 189 289 q 400 681 222 681 l 704 681 l 704 129 l 807 129 m 546 129 l 546 557 l 436 557 q 360 485 365 557 q 269 129 336 261 l 546 129 z "},"е":{"ha":765,"x_min":67,"x_max":704,"o":"m 524 269 l 246 269 q 295 151 254 181 q 428 121 336 121 q 672 138 532 121 l 688 29 q 407 -17 590 -17 q 144 65 222 -17 q 67 342 67 147 q 143 620 67 540 q 396 700 219 700 q 631 641 558 700 q 704 464 704 582 q 524 269 707 269 m 242 388 l 476 388 q 538 467 538 388 q 508 544 538 522 q 403 567 479 567 q 279 530 313 567 q 242 388 246 493 z "},"ж":{"ha":1121,"x_min":38,"x_max":1085,"o":"m 819 358 l 819 354 q 885 341 858 349 q 936 312 913 333 q 975 272 960 290 q 1010 205 990 253 q 1044 119 1031 157 q 1085 0 1058 81 l 914 0 q 813 241 844 190 q 713 293 781 292 l 629 293 q 636 232 636 258 l 636 0 l 489 0 l 489 232 q 496 293 489 258 l 408 293 q 311 241 343 292 q 208 0 279 190 l 38 0 q 78 119 65 85 q 111 204 90 154 q 146 272 132 254 q 184 311 160 289 q 235 341 208 333 q 301 354 263 349 l 301 358 q 165 425 204 369 q 65 656 125 481 q 57 681 60 672 l 224 681 q 317 467 282 519 q 417 414 351 414 l 496 414 q 489 493 489 447 l 489 681 l 636 681 l 636 493 q 629 414 636 447 l 704 414 q 805 467 771 414 q 896 681 839 519 l 1064 681 q 974 451 1000 496 q 853 364 932 381 q 819 358 838 360 z "},"з":{"ha":707,"x_min":46,"x_max":643,"o":"m 81 546 l 69 669 q 294 696 161 696 q 547 659 476 696 q 617 511 617 622 q 584 397 617 435 q 474 353 551 360 l 474 349 q 603 298 563 342 q 643 169 643 254 q 574 22 643 58 q 338 -15 506 -15 q 46 10 169 -15 l 58 133 q 326 121 199 121 q 441 137 413 121 q 469 204 469 153 q 440 270 469 253 q 326 289 410 288 l 146 289 l 146 406 l 325 406 q 424 422 399 406 q 450 488 450 439 q 419 544 450 531 q 301 558 389 558 q 81 546 188 558 z "},"и":{"ha":826,"x_min":97,"x_max":728,"o":"m 728 0 l 576 0 l 576 393 q 583 494 576 397 l 579 494 q 529 403 565 458 l 236 0 l 97 0 l 97 681 l 247 681 l 247 283 q 242 188 247 233 l 246 188 q 296 274 269 239 l 589 681 l 728 681 l 728 0 z "},"й":{"ha":826,"x_min":97,"x_max":728,"o":"m 510 983 l 631 983 q 578 838 639 897 q 413 779 518 779 q 244 838 306 779 q 190 983 182 897 l 311 983 q 413 867 308 867 q 510 983 514 867 m 728 0 l 576 0 l 576 393 q 583 494 576 397 l 579 494 q 529 403 565 458 l 236 0 l 97 0 l 97 681 l 247 681 l 247 283 q 242 188 247 233 l 246 188 q 296 274 269 239 l 589 681 l 728 681 l 728 0 z "},"к":{"ha":765,"x_min":97,"x_max":728,"o":"m 458 357 l 458 353 q 510 344 488 350 q 553 327 532 339 q 588 305 574 315 q 617 269 601 294 q 643 226 633 244 q 669 165 653 207 q 697 92 686 124 q 728 0 707 61 l 551 0 q 451 240 486 189 q 335 292 417 290 l 328 292 l 258 292 q 265 232 265 257 l 265 0 l 97 0 l 97 681 l 265 681 l 265 494 q 257 415 265 456 l 326 415 q 447 468 410 415 q 535 681 483 521 l 706 681 q 614 447 642 493 q 490 363 572 381 q 458 357 475 360 z "},"л":{"ha":803,"x_min":22,"x_max":706,"o":"m 706 681 l 706 0 l 536 0 l 536 556 l 424 556 q 369 540 385 556 q 347 479 353 524 q 290 154 315 238 q 39 -7 243 -22 l 22 119 q 101 146 78 129 q 140 201 125 163 q 190 510 169 290 q 244 638 199 596 q 381 681 290 681 l 706 681 z "},"м":{"ha":1065,"x_min":85,"x_max":981,"o":"m 733 681 l 896 681 q 956 621 956 681 l 981 0 l 826 0 l 804 557 l 782 557 l 650 135 q 586 82 635 82 l 476 82 q 411 135 426 82 l 279 557 l 258 557 l 238 0 l 85 0 l 108 621 q 169 681 108 681 l 331 681 q 393 628 381 681 l 499 289 q 522 189 508 263 l 540 189 q 563 289 553 253 l 668 628 q 733 681 683 681 z "},"н":{"ha":824,"x_min":97,"x_max":726,"o":"m 726 681 l 726 0 l 561 0 l 561 299 l 264 299 l 264 0 l 97 0 l 97 681 l 264 681 l 264 422 l 561 422 l 561 681 l 726 681 z "},"о":{"ha":806,"x_min":67,"x_max":739,"o":"m 143 618 q 181 659 143 618 q 403 700 219 700 q 663 618 586 700 q 739 340 739 536 q 663 63 739 144 q 403 -18 588 -18 q 143 63 219 -18 q 67 340 67 144 q 143 618 67 536 m 530 519 q 513 542 530 519 q 403 565 496 565 q 276 519 310 565 q 243 340 243 472 q 276 163 243 210 q 403 117 310 117 q 530 163 496 117 q 564 340 564 210 q 530 519 564 472 z "},"п":{"ha":813,"x_min":97,"x_max":714,"o":"m 714 682 l 714 0 l 550 0 l 550 553 l 261 553 l 261 0 l 97 0 l 97 682 l 714 682 z "},"р":{"ha":826,"x_min":97,"x_max":758,"o":"m 236 681 l 249 579 q 374 665 296 632 q 526 699 451 699 q 758 335 758 699 q 695 63 758 142 q 497 -17 632 -17 q 261 50 360 -17 q 265 -92 267 -21 l 265 -271 l 97 -271 l 97 681 l 236 681 m 265 475 l 265 150 q 447 121 396 121 q 555 163 525 121 q 585 336 585 206 q 558 511 585 463 q 465 560 531 560 q 374 540 418 560 q 265 475 331 519 z "},"с":{"ha":696,"x_min":67,"x_max":649,"o":"m 632 136 l 649 25 q 399 -17 546 -17 q 142 64 217 -17 q 67 342 67 144 q 142 619 67 539 q 400 700 218 700 q 638 661 542 700 l 618 556 q 428 558 549 558 q 283 513 324 558 q 243 342 243 467 q 283 169 243 215 q 428 122 324 122 q 632 136 540 122 z "},"т":{"ha":699,"x_min":32,"x_max":667,"o":"m 667 547 l 433 547 l 433 0 l 267 0 l 267 547 l 32 547 l 32 681 l 667 681 l 667 547 z "},"у":{"ha":763,"x_min":18,"x_max":743,"o":"m 743 681 l 490 -21 q 340 -236 438 -174 q 61 -276 244 -303 l 76 -160 q 244 -135 192 -167 q 335 -14 297 -100 l 340 0 l 307 0 q 250 42 261 0 l 18 681 l 199 681 l 347 213 q 369 122 365 149 l 388 122 q 415 213 401 163 l 561 681 l 743 681 z "},"ф":{"ha":1019,"x_min":65,"x_max":954,"o":"m 586 972 l 586 697 q 869 603 785 686 q 954 340 954 521 q 869 78 954 161 q 586 -15 785 -4 l 586 -271 l 433 -271 l 433 -14 q 150 79 235 -3 q 65 340 65 161 q 150 603 65 521 q 433 697 235 686 l 433 972 l 586 972 m 439 118 l 439 564 q 273 506 319 556 q 226 340 226 457 q 273 175 226 224 q 439 118 319 126 m 581 564 l 581 118 q 747 175 700 126 q 793 340 793 224 q 747 506 793 457 q 581 564 700 556 z "},"х":{"ha":764,"x_min":24,"x_max":740,"o":"m 390 292 l 372 292 l 201 0 l 24 0 l 238 350 l 40 681 l 217 681 l 371 414 l 393 414 l 547 681 l 724 681 l 525 350 l 740 0 l 561 0 l 390 292 z "},"ц":{"ha":849,"x_min":97,"x_max":808,"o":"m 697 -199 l 682 0 l 97 0 l 97 681 l 264 681 l 264 129 l 540 129 l 540 681 l 707 681 l 707 129 l 808 129 l 808 -199 l 697 -199 z "},"ч":{"ha":764,"x_min":67,"x_max":664,"o":"m 664 681 l 664 0 l 499 0 l 499 265 q 256 224 372 224 q 67 376 67 224 l 67 681 l 233 681 l 233 432 q 251 372 233 389 q 313 356 268 356 q 499 392 404 356 l 499 681 l 664 681 z "},"ш":{"ha":1142,"x_min":97,"x_max":1044,"o":"m 1044 681 l 1044 0 l 97 0 l 97 681 l 260 681 l 260 129 l 496 129 l 496 681 l 646 681 l 646 129 l 882 129 l 882 681 l 1044 681 z "},"щ":{"ha":1186,"x_min":97,"x_max":1146,"o":"m 1146 -199 l 1035 -199 l 1019 0 l 97 0 l 97 681 l 260 681 l 260 129 l 496 129 l 496 681 l 644 681 l 644 129 l 882 129 l 882 681 l 1044 681 l 1044 129 l 1146 129 l 1146 -199 z "},"ъ":{"ha":890,"x_min":31,"x_max":840,"o":"m 425 436 l 547 436 q 778 388 715 436 q 840 213 840 340 q 780 39 840 86 q 575 -8 719 -8 q 263 0 376 -8 l 263 553 l 31 553 l 31 681 l 425 681 l 425 436 m 425 118 l 547 118 q 645 138 619 118 q 671 219 671 158 q 646 299 671 278 q 547 319 621 319 l 425 319 l 425 118 z "},"ы":{"ha":1046,"x_min":97,"x_max":947,"o":"m 260 436 l 386 436 q 617 388 554 436 q 679 213 679 340 q 619 39 679 86 q 414 -8 558 -8 q 103 0 214 -8 l 97 0 l 97 681 l 260 681 l 260 436 m 947 681 l 947 0 l 779 0 l 779 681 l 947 681 m 260 118 l 386 118 q 484 138 458 118 q 510 219 510 158 q 484 299 510 278 q 386 319 458 319 l 260 319 l 260 118 z "},"ь":{"ha":731,"x_min":97,"x_max":681,"o":"m 260 436 l 386 436 q 617 388 554 436 q 681 213 681 340 q 620 39 681 86 q 415 -8 560 -8 q 103 0 214 -8 l 97 0 l 97 681 l 260 681 l 260 436 m 260 118 l 386 118 q 484 138 458 118 q 510 219 510 158 q 485 299 510 278 q 386 319 460 319 l 260 319 l 260 118 z "},"э":{"ha":725,"x_min":51,"x_max":658,"o":"m 72 551 l 57 664 q 306 693 150 693 q 580 615 501 693 q 658 338 658 536 q 579 64 658 143 q 306 -15 500 -15 q 51 17 149 -15 l 65 131 q 306 124 156 124 q 442 157 404 124 q 486 289 481 190 l 144 289 l 144 406 l 485 406 q 437 525 476 493 q 306 556 397 557 q 72 551 189 556 z "},"ю":{"ha":1132,"x_min":97,"x_max":1064,"o":"m 265 413 l 415 413 q 496 638 425 576 q 731 700 567 700 q 991 624 918 700 q 1064 340 1064 549 q 990 63 1064 138 q 731 -12 917 -12 q 492 51 563 -12 q 414 288 422 115 l 265 288 l 265 0 l 97 0 l 97 681 l 265 681 l 265 413 m 726 124 q 855 169 821 124 q 890 343 889 215 q 855 516 889 471 q 726 561 821 561 q 603 516 635 561 q 571 343 571 471 q 603 169 571 215 q 726 124 635 124 z "},"я":{"ha":771,"x_min":43,"x_max":675,"o":"m 233 292 l 233 297 q 118 358 153 313 q 83 483 83 403 q 142 644 83 596 q 358 692 201 692 q 675 682 575 692 l 675 0 l 510 0 l 510 240 l 357 240 q 265 182 278 240 l 217 0 l 43 0 l 103 208 q 233 292 122 278 m 510 358 l 510 561 l 361 563 q 268 543 289 563 q 247 463 247 524 q 269 380 247 401 q 361 358 290 358 l 510 358 z "},"ё":{"ha":765,"x_min":67,"x_max":704,"o":"m 301 810 l 246 810 q 204 851 204 810 l 204 928 q 246 971 204 971 l 301 971 q 343 928 343 971 l 343 851 q 301 810 343 810 m 550 810 l 494 810 q 453 851 453 810 l 453 928 q 494 971 453 971 l 550 971 q 592 928 592 971 l 592 851 q 550 810 592 810 m 524 269 l 246 269 q 295 151 254 181 q 428 121 336 121 q 672 138 532 121 l 688 29 q 407 -17 590 -17 q 144 65 222 -17 q 67 342 67 147 q 143 620 67 540 q 396 700 219 700 q 631 641 558 700 q 704 464 704 582 q 524 269 707 269 m 242 388 l 476 388 q 538 467 538 388 q 508 544 538 522 q 403 567 479 567 q 279 530 313 567 q 242 388 246 493 z "},"ђ":{"ha":829,"x_min":32,"x_max":764,"o":"m 299 674 l 299 590 q 292 468 299 528 q 574 567 435 567 q 764 379 764 567 l 764 0 l 594 0 l 594 329 q 574 400 594 381 q 497 419 553 419 q 299 354 421 419 l 299 0 l 131 0 l 131 674 l 32 674 l 32 763 l 131 763 l 131 972 l 299 972 l 299 763 l 539 763 l 539 674 l 299 674 z "},"ѓ":{"ha":658,"x_min":93,"x_max":635,"o":"m 615 911 l 319 756 l 267 831 l 528 1035 l 615 911 m 93 0 l 93 529 q 258 688 93 688 q 635 672 522 688 l 628 554 l 331 554 q 278 538 294 554 q 261 483 261 521 l 261 0 l 93 0 z "},"є":{"ha":725,"x_min":67,"x_max":674,"o":"m 658 131 l 674 17 q 418 -15 574 -15 q 145 64 224 -15 q 67 338 67 143 q 145 615 67 536 q 418 693 224 693 q 667 664 574 693 l 651 551 q 418 556 536 556 q 288 525 328 557 q 239 406 249 493 l 581 406 l 581 289 l 238 289 q 282 157 243 190 q 418 124 321 124 q 658 131 569 124 z "},"ѕ":{"ha":722,"x_min":63,"x_max":664,"o":"m 400 258 l 221 307 q 98 378 133 332 q 63 507 63 424 q 125 658 63 617 q 340 700 188 700 q 642 675 504 697 l 629 558 q 369 564 454 564 q 251 555 278 564 q 225 506 225 546 q 227 488 225 496 q 231 474 229 479 q 238 463 232 468 q 247 456 244 458 q 261 449 250 453 q 276 443 272 444 q 296 438 281 442 q 318 432 311 433 l 500 382 q 626 315 589 357 q 664 186 664 272 q 595 26 664 67 q 360 -15 526 -15 q 75 7 207 -15 l 85 125 q 318 119 158 119 q 464 132 428 119 q 500 185 500 144 q 499 199 500 193 q 496 210 497 206 q 490 220 494 215 q 484 228 486 225 q 474 234 482 231 q 463 240 467 238 q 450 244 460 242 q 435 249 440 247 q 418 253 431 250 q 400 258 406 257 z "},"і":{"ha":374,"x_min":100,"x_max":275,"o":"m 149 976 l 226 976 q 275 928 275 976 l 275 851 q 226 803 275 803 l 149 803 q 100 851 100 803 l 100 928 q 149 976 100 976 m 271 0 l 103 0 l 103 681 l 271 681 l 271 0 z "},"ї":{"ha":374,"x_min":-6,"x_max":381,"o":"m 35 971 l 90 971 q 132 928 132 971 l 132 851 q 90 810 132 810 l 35 810 q -6 851 -6 810 l -6 928 q 35 971 -6 971 m 283 971 l 339 971 q 381 928 381 971 l 381 851 q 339 810 381 810 l 283 810 q 242 851 242 810 l 242 928 q 283 971 242 971 m 271 0 l 103 0 l 103 681 l 271 681 l 271 0 z "},"ј":{"ha":375,"x_min":24,"x_max":275,"o":"m 149 978 l 226 978 q 275 929 275 978 l 275 854 q 226 806 275 806 l 149 806 q 100 854 100 806 l 100 929 q 149 978 100 978 m 272 681 l 272 13 q 231 -156 272 -78 q 117 -278 189 -233 l 24 -204 q 103 13 103 -110 l 103 681 l 272 681 z "},"љ":{"ha":1138,"x_min":33,"x_max":1088,"o":"m 671 435 l 796 435 q 1025 387 963 435 q 1088 213 1088 339 q 1027 39 1088 86 q 822 -8 967 -8 q 513 0 628 -8 l 513 561 l 431 561 q 377 548 393 561 q 358 500 361 535 q 293 147 328 246 q 197 22 264 60 q 46 -6 131 -15 l 33 108 q 76 122 61 117 q 111 146 90 128 q 144 192 132 164 q 179 306 168 239 q 207 531 190 374 q 381 681 224 681 l 671 681 l 671 435 m 671 118 l 796 117 q 894 137 868 117 q 919 219 919 157 q 894 299 919 278 q 796 319 868 319 l 671 319 l 671 118 z "},"њ":{"ha":1142,"x_min":97,"x_max":1092,"o":"m 675 431 l 801 431 q 1030 384 968 431 q 1092 213 1092 338 q 1032 39 1092 86 q 829 -8 972 -8 q 517 0 632 -8 l 517 315 l 253 315 l 253 0 l 97 0 l 97 681 l 253 681 l 253 431 l 517 431 l 517 681 l 675 681 l 675 431 m 675 118 l 801 117 q 898 137 872 117 q 924 218 924 157 q 899 296 924 275 q 801 317 874 317 l 675 317 l 675 118 z "},"ћ":{"ha":829,"x_min":32,"x_max":764,"o":"m 299 674 l 299 590 q 292 468 299 528 q 574 567 435 567 q 764 379 761 567 l 764 13 q 722 -155 764 -76 q 610 -278 681 -233 l 517 -204 q 594 11 594 -111 l 594 329 q 573 399 594 379 q 497 419 551 419 q 299 354 421 419 l 299 0 l 131 0 l 131 674 l 32 674 l 32 763 l 131 763 l 131 972 l 299 972 l 299 763 l 539 763 l 539 674 l 299 674 z "},"ќ":{"ha":765,"x_min":97,"x_max":728,"o":"m 343 756 l 290 831 l 551 1035 l 638 911 l 343 756 m 458 357 l 458 353 q 510 344 488 350 q 553 327 532 339 q 588 305 574 315 q 617 269 601 294 q 643 226 633 244 q 669 165 653 207 q 697 92 686 124 q 728 0 707 61 l 551 0 q 451 240 486 189 q 335 292 417 290 l 328 292 l 258 292 q 265 232 265 257 l 265 0 l 97 0 l 97 681 l 265 681 l 265 494 q 257 415 265 456 l 326 415 q 447 468 410 415 q 535 681 483 521 l 706 681 q 614 447 642 493 q 490 363 572 381 q 458 357 475 360 z "},"ѝ":{"ha":826,"x_min":97,"x_max":728,"o":"m 494 831 l 442 756 l 147 911 l 233 1035 l 494 831 m 728 0 l 576 0 l 576 393 q 583 494 576 397 l 579 494 q 529 403 565 458 l 236 0 l 97 0 l 97 681 l 247 681 l 247 283 q 242 188 247 233 l 246 188 q 296 274 269 239 l 589 681 l 728 681 l 728 0 z "},"ў":{"ha":763,"x_min":18,"x_max":743,"o":"m 478 983 l 597 983 q 547 838 607 897 q 379 779 486 779 q 211 838 272 779 q 158 983 150 897 l 278 983 q 379 867 275 867 q 478 983 481 867 m 743 681 l 490 -21 q 340 -236 438 -174 q 61 -276 244 -303 l 76 -160 q 244 -135 192 -167 q 335 -14 297 -100 l 340 0 l 307 0 q 250 42 261 0 l 18 681 l 199 681 l 347 213 q 369 122 365 149 l 388 122 q 415 213 401 163 l 561 681 l 743 681 z "},"џ":{"ha":819,"x_min":97,"x_max":722,"o":"m 722 681 l 722 0 l 478 0 l 465 -228 l 353 -228 l 340 0 l 97 0 l 97 681 l 265 681 l 265 129 l 556 129 l 556 681 l 722 681 z "},"Ґ":{"ha":738,"x_min":106,"x_max":714,"o":"m 714 1169 l 714 936 l 706 817 l 361 817 q 297 798 315 817 q 279 729 279 779 l 279 0 l 106 0 l 106 763 q 160 906 106 850 q 297 961 214 961 q 583 954 490 961 l 600 1169 l 714 1169 z "},"ґ":{"ha":663,"x_min":94,"x_max":638,"o":"m 629 554 l 332 554 q 279 538 296 556 q 263 483 263 521 l 263 0 l 94 0 l 94 529 q 258 688 94 688 q 510 683 428 688 l 526 883 l 638 883 l 638 672 l 629 554 z "},"Ұ":{"ha":831,"x_min":14,"x_max":818,"o":"m 703 296 l 504 296 l 504 0 l 329 0 l 329 296 l 131 296 l 131 393 l 296 393 l 14 958 l 197 958 l 372 586 q 411 471 392 546 l 424 471 q 463 586 443 546 l 638 958 l 818 958 l 538 393 l 703 393 l 703 296 z "},"ұ":{"ha":833,"x_min":15,"x_max":818,"o":"m 538 121 l 703 121 l 703 17 l 504 17 l 504 -271 l 331 -271 l 331 17 l 131 17 l 131 121 l 296 121 l 15 681 l 197 681 l 372 314 q 411 199 385 288 l 424 199 q 461 315 444 279 l 636 681 l 818 681 l 538 121 z "},"Ҷ":{"ha":938,"x_min":74,"x_max":901,"o":"m 901 118 l 901 -210 l 781 -210 l 765 0 l 610 0 l 610 406 q 307 335 454 335 q 131 390 188 335 q 74 561 74 446 l 74 958 l 249 958 l 249 597 q 274 510 246 536 q 369 485 301 485 q 610 539 483 485 l 610 958 l 785 958 l 785 118 l 901 118 z "},"ҷ":{"ha":807,"x_min":67,"x_max":767,"o":"m 654 -199 l 640 0 l 497 0 l 497 265 q 256 224 369 224 q 67 376 67 224 l 67 681 l 233 681 l 233 432 q 251 372 233 389 q 311 356 268 356 q 497 392 406 356 l 497 681 l 664 681 l 664 129 l 767 129 l 767 -199 l 654 -199 z "},"Һ":{"ha":892,"x_min":108,"x_max":818,"o":"m 282 958 l 282 554 q 585 624 435 624 q 761 568 704 624 q 818 397 818 513 l 818 0 l 644 0 l 644 361 q 618 448 646 422 q 522 474 590 474 q 282 421 404 474 l 282 0 l 108 0 l 108 958 l 282 958 z "},"Ӏ":{"ha":392,"x_min":110,"x_max":283,"o":"m 283 0 l 110 0 l 110 958 l 283 958 l 283 0 z "},"Ẁ":{"ha":1335,"x_min":40,"x_max":1294,"o":"m 751 1079 l 699 1004 l 404 1160 l 490 1285 l 751 1079 m 1294 958 l 1129 49 q 1106 13 1124 26 q 1065 0 1089 0 l 883 0 q 819 50 829 0 l 699 718 q 681 831 692 756 l 653 831 q 635 718 640 750 l 515 50 q 493 14 511 28 q 450 0 475 0 l 269 0 q 228 13 246 0 q 206 49 210 26 l 40 958 l 221 958 l 335 260 q 350 129 343 213 l 379 129 q 401 260 392 210 l 519 903 q 583 958 529 958 l 753 958 q 794 943 776 958 q 815 903 811 928 l 933 258 q 953 129 947 189 l 983 129 q 991 192 986 149 q 999 257 996 236 l 1114 958 l 1294 958 z "},"ẁ":{"ha":1158,"x_min":26,"x_max":1132,"o":"m 664 831 l 611 756 l 317 911 l 403 1035 l 664 831 m 1132 681 l 953 46 q 893 0 942 0 l 750 0 q 688 53 697 0 l 606 471 q 597 524 603 486 q 588 582 592 561 l 571 582 l 551 471 l 472 53 q 450 15 468 29 q 408 0 432 0 l 268 0 q 207 46 215 0 l 26 681 l 199 681 l 311 213 q 329 104 326 149 l 347 104 q 354 138 350 117 q 362 178 358 160 q 368 213 365 196 l 451 631 q 511 681 461 681 l 649 681 q 689 667 672 681 q 710 629 706 653 l 790 213 q 801 153 793 192 q 811 104 808 115 l 829 104 q 847 213 842 189 l 960 681 l 1132 681 z "},"Ẃ":{"ha":1335,"x_min":40,"x_max":1294,"o":"m 911 1160 l 615 1004 l 563 1079 l 824 1285 l 911 1160 m 1294 958 l 1129 49 q 1106 13 1124 26 q 1065 0 1089 0 l 883 0 q 819 50 829 0 l 699 718 q 681 831 692 756 l 653 831 q 635 718 640 750 l 515 50 q 493 14 511 28 q 450 0 475 0 l 269 0 q 228 13 246 0 q 206 49 210 26 l 40 958 l 221 958 l 335 260 q 350 129 343 213 l 379 129 q 401 260 392 210 l 519 903 q 583 958 529 958 l 753 958 q 794 943 776 958 q 815 903 811 928 l 933 258 q 953 129 947 189 l 983 129 q 991 192 986 149 q 999 257 996 236 l 1114 958 l 1294 958 z "},"ẃ":{"ha":1158,"x_min":26,"x_max":1132,"o":"m 824 911 l 528 756 l 475 831 l 736 1035 l 824 911 m 1132 681 l 953 46 q 893 0 942 0 l 750 0 q 688 53 697 0 l 606 471 q 597 524 603 486 q 588 582 592 561 l 571 582 l 551 471 l 472 53 q 450 15 468 29 q 408 0 432 0 l 268 0 q 207 46 215 0 l 26 681 l 199 681 l 311 213 q 329 104 326 149 l 347 104 q 354 138 350 117 q 362 178 358 160 q 368 213 365 196 l 451 631 q 511 681 461 681 l 649 681 q 689 667 672 681 q 710 629 706 653 l 790 213 q 801 153 793 192 q 811 104 808 115 l 829 104 q 847 213 842 189 l 960 681 l 1132 681 z "},"Ẅ":{"ha":1335,"x_min":40,"x_max":1294,"o":"m 515 1219 l 571 1219 q 613 1178 613 1219 l 613 1100 q 571 1058 613 1058 l 515 1058 q 475 1100 475 1058 l 475 1178 q 515 1219 475 1219 m 765 1219 l 819 1219 q 861 1178 861 1219 l 861 1100 q 819 1058 861 1058 l 765 1058 q 722 1100 722 1058 l 722 1178 q 765 1219 722 1219 m 1294 958 l 1129 49 q 1106 13 1124 26 q 1065 0 1089 0 l 883 0 q 819 50 829 0 l 699 718 q 681 831 692 756 l 653 831 q 635 718 640 750 l 515 50 q 493 14 511 28 q 450 0 475 0 l 269 0 q 228 13 246 0 q 206 49 210 26 l 40 958 l 221 958 l 335 260 q 350 129 343 213 l 379 129 q 401 260 392 210 l 519 903 q 583 958 529 958 l 753 958 q 794 943 776 958 q 815 903 811 928 l 933 258 q 953 129 947 189 l 983 129 q 991 192 986 149 q 999 257 996 236 l 1114 958 l 1294 958 z "},"ẅ":{"ha":1158,"x_min":26,"x_max":1132,"o":"m 428 971 l 485 971 q 525 928 525 971 l 525 851 q 485 810 525 810 l 428 810 q 388 851 388 810 l 388 928 q 428 971 388 971 m 678 971 l 732 971 q 775 928 775 971 l 775 851 q 732 810 775 810 l 678 810 q 635 851 635 810 l 635 928 q 678 971 635 971 m 1132 681 l 953 46 q 893 0 942 0 l 750 0 q 688 53 697 0 l 606 471 q 597 524 603 486 q 588 582 592 561 l 571 582 l 551 471 l 472 53 q 450 15 468 29 q 408 0 432 0 l 268 0 q 207 46 215 0 l 26 681 l 199 681 l 311 213 q 329 104 326 149 l 347 104 q 354 138 350 117 q 362 178 358 160 q 368 213 365 196 l 451 631 q 511 681 461 681 l 649 681 q 689 667 672 681 q 710 629 706 653 l 790 213 q 801 153 793 192 q 811 104 808 115 l 829 104 q 847 213 842 189 l 960 681 l 1132 681 z "},"Ỳ":{"ha":818,"x_min":7,"x_max":810,"o":"m 439 1006 l 143 1161 l 231 1286 l 492 1081 l 439 1006 m 496 324 l 496 0 l 322 0 l 322 326 l 7 958 l 190 958 l 365 586 q 404 471 375 564 l 415 471 q 454 586 444 564 l 629 958 l 810 958 l 496 324 z "},"ỳ":{"ha":758,"x_min":17,"x_max":740,"o":"m 413 756 l 118 911 l 204 1035 l 465 831 l 413 756 m 740 681 l 488 -21 q 364 -212 447 -136 q 144 -282 281 -289 l 131 -175 q 258 -115 211 -153 q 331 -15 306 -76 l 338 0 l 304 0 q 247 42 258 0 l 17 681 l 196 681 l 344 213 q 367 122 358 169 l 386 122 q 401 169 392 139 q 414 213 410 200 l 560 681 l 740 681 z "},"–":{"ha":797,"x_min":89,"x_max":708,"o":"m 708 293 l 89 293 l 89 413 l 708 413 l 708 293 z "},"—":{"ha":1214,"x_min":89,"x_max":1125,"o":"m 1125 293 l 89 293 l 89 413 l 1125 413 l 1125 293 z "},"‘":{"ha":311,"x_min":75,"x_max":239,"o":"m 178 658 l 133 658 q 88 670 100 658 q 75 713 75 682 l 75 793 q 136 1008 76 911 l 211 989 q 193 832 193 913 q 239 783 242 832 l 239 713 q 223 670 236 682 q 178 658 210 658 z "},"’":{"ha":307,"x_min":69,"x_max":235,"o":"m 132 999 l 176 999 q 221 987 208 999 q 235 944 233 975 l 235 864 q 174 649 233 746 l 99 668 q 117 825 115 736 q 69 874 69 825 l 69 944 q 85 987 71 975 q 132 999 100 999 z "},"‚":{"ha":326,"x_min":81,"x_max":246,"o":"m 143 176 l 188 176 q 233 164 219 176 q 246 121 246 151 l 246 39 q 185 -178 244 -81 l 110 -158 q 128 1 128 -82 q 81 50 81 1 l 81 121 q 97 164 82 151 q 143 176 111 176 z "},"“":{"ha":549,"x_min":75,"x_max":478,"o":"m 178 658 l 133 658 q 88 670 100 658 q 75 713 75 682 l 75 793 q 136 1008 76 911 l 211 989 q 193 832 193 913 q 239 783 242 832 l 239 713 q 223 670 236 682 q 178 658 210 658 m 415 658 l 371 658 q 326 670 339 658 q 313 713 313 682 l 313 793 q 374 1008 314 911 l 449 989 q 431 832 431 913 q 478 783 478 832 l 478 713 q 462 670 476 682 q 415 658 447 658 z "},"”":{"ha":544,"x_min":69,"x_max":472,"o":"m 132 999 l 176 999 q 221 987 208 999 q 235 944 233 975 l 235 864 q 174 649 233 746 l 99 668 q 117 825 115 736 q 69 874 69 825 l 69 944 q 85 987 71 975 q 132 999 100 999 m 369 999 l 414 999 q 460 987 447 999 q 472 944 472 975 l 472 864 q 411 649 471 746 l 336 668 q 354 825 354 744 q 308 874 306 825 l 308 944 q 324 987 310 975 q 369 999 338 999 z "},"„":{"ha":564,"x_min":81,"x_max":483,"o":"m 143 172 l 188 172 q 232 160 219 172 q 246 117 244 149 l 246 36 q 185 -179 244 -83 l 110 -160 q 128 -1 125 -93 q 81 46 81 -1 l 81 117 q 97 160 82 147 q 143 172 111 172 m 381 172 l 425 172 q 471 160 458 172 q 483 117 483 149 l 483 36 q 422 -179 482 -83 l 347 -160 q 365 -1 365 -83 q 319 46 317 -1 l 319 117 q 335 160 321 147 q 381 172 349 172 z "},"†":{"ha":644,"x_min":50,"x_max":594,"o":"m 396 -153 l 249 -153 l 257 582 l 257 674 l 249 960 l 396 960 l 388 674 l 388 582 l 396 -153 m 594 681 l 594 544 l 415 561 l 415 681 l 594 681 m 50 544 l 50 681 l 229 681 l 229 561 l 50 544 z "},"‡":{"ha":697,"x_min":76,"x_max":621,"o":"m 414 679 l 414 128 l 422 -153 l 275 -153 l 283 128 l 283 679 l 275 960 l 422 960 l 414 679 m 256 561 l 76 544 l 76 681 l 256 681 l 256 561 m 621 544 l 442 561 l 442 681 l 621 681 l 621 544 m 621 126 l 442 126 l 442 246 l 621 263 l 621 126 m 256 246 l 256 126 l 76 126 l 76 263 l 256 246 z "},"•":{"ha":513,"x_min":113,"x_max":400,"o":"m 250 515 l 268 515 q 371 487 342 515 q 400 385 400 458 l 400 365 q 371 258 400 288 q 268 228 342 228 l 250 228 q 142 258 172 228 q 113 365 113 288 l 113 385 q 142 487 113 458 q 250 515 172 515 z "},"…":{"ha":1222,"x_min":75,"x_max":1135,"o":"m 135 190 l 186 190 q 233 177 219 190 q 246 131 246 164 l 246 60 q 233 13 246 26 q 186 0 219 0 l 135 0 q 88 13 101 0 q 75 60 75 26 l 75 131 q 88 177 75 164 q 135 190 101 190 m 579 190 l 631 190 q 677 177 664 190 q 690 131 690 164 l 690 60 q 677 13 690 26 q 631 0 664 0 l 579 0 q 533 13 546 0 q 519 60 519 26 l 519 131 q 533 177 519 164 q 579 190 546 190 m 1024 190 l 1075 190 q 1122 177 1108 190 q 1135 131 1135 164 l 1135 60 q 1122 13 1135 26 q 1075 0 1108 0 l 1024 0 q 977 13 990 0 q 964 60 964 26 l 964 131 q 977 177 964 164 q 1024 190 990 190 z "},"‰":{"ha":1782,"x_min":54,"x_max":1724,"o":"m 106 913 q 131 944 106 913 q 286 976 157 976 q 467 913 415 976 q 518 692 518 849 q 466 472 518 536 q 286 407 414 407 q 106 472 158 407 q 54 692 54 536 q 106 913 54 849 m 383 0 l 271 0 l 865 958 l 976 958 l 383 0 m 285 876 q 202 838 224 876 q 181 692 181 800 q 202 544 181 582 q 285 507 224 507 q 369 544 347 507 q 392 692 392 582 q 369 838 392 800 q 285 876 347 876 m 785 491 q 810 523 785 491 q 964 556 836 556 q 1144 491 1092 556 q 1196 271 1196 426 q 1144 49 1196 113 q 964 -15 1093 -15 q 785 49 836 -15 q 733 271 733 113 q 785 491 733 426 m 1314 492 q 1340 524 1314 492 q 1493 556 1365 556 q 1672 492 1621 556 q 1724 271 1724 428 q 1673 49 1724 113 q 1493 -15 1622 -15 q 1313 49 1364 -15 q 1263 271 1263 113 q 1314 492 1263 428 m 964 454 q 880 417 901 454 q 860 271 858 379 q 881 124 858 163 q 964 85 903 85 q 1047 124 1025 85 q 1069 271 1069 163 q 1047 417 1069 379 q 964 454 1025 454 m 1492 454 q 1409 417 1431 454 q 1388 271 1388 379 q 1409 124 1388 163 q 1492 85 1431 85 q 1576 123 1554 85 q 1599 271 1599 161 q 1576 417 1599 379 q 1492 454 1554 454 z "},"‹":{"ha":428,"x_min":54,"x_max":365,"o":"m 364 585 l 206 349 l 365 107 l 276 50 l 54 331 l 54 367 l 275 642 l 364 585 z "},"›":{"ha":431,"x_min":63,"x_max":375,"o":"m 375 367 l 375 331 l 151 50 l 63 107 l 222 349 l 64 585 l 153 642 l 375 367 z "},"⁄":{"ha":222,"x_min":-243,"x_max":465,"o":"m -129 0 l -243 0 l 351 958 l 465 958 l -129 0 z "},"€":{"ha":883,"x_min":61,"x_max":822,"o":"m 807 150 l 822 19 q 567 -17 710 -17 q 285 73 378 -17 q 171 350 192 163 l 61 350 l 61 446 l 165 446 l 165 479 l 165 528 l 63 528 l 63 625 l 174 625 q 289 890 196 804 q 567 975 382 975 q 803 944 694 975 l 788 813 q 556 822 665 833 q 421 769 468 817 q 357 625 374 722 l 686 625 l 675 528 l 347 528 l 347 476 l 347 446 l 640 446 l 631 350 l 354 350 q 417 192 369 243 q 556 136 464 140 q 807 150 682 126 z "},"™":{"ha":1351,"x_min":83,"x_max":1261,"o":"m 1261 439 l 1153 439 l 1132 876 l 1118 876 l 1019 547 q 972 510 1008 510 l 893 510 q 846 547 857 510 l 747 876 l 733 876 l 714 439 l 606 439 l 626 922 q 669 967 629 967 l 783 967 q 831 929 819 967 l 910 663 q 919 624 914 650 q 926 586 924 599 l 939 586 q 947 623 942 596 q 957 664 953 650 l 1033 929 q 1081 967 1044 967 l 1197 967 q 1242 922 1239 967 l 1261 439 m 547 967 l 547 871 l 375 871 l 375 439 l 257 439 l 257 871 l 83 871 l 83 967 l 547 967 z "},"∂":{"ha":804,"x_min":64,"x_max":733,"o":"m 169 853 l 169 976 q 390 967 301 979 q 552 924 479 956 q 664 835 625 893 q 721 687 703 776 q 733 468 739 597 q 637 101 722 219 q 372 -17 551 -17 q 217 13 282 -17 q 119 92 153 42 q 74 200 86 143 q 64 322 61 257 q 144 543 71 456 q 358 629 218 631 q 564 543 486 626 q 535 732 567 668 q 419 824 503 796 q 169 853 335 853 m 376 128 q 510 206 472 128 q 560 443 549 283 q 399 493 483 493 q 232 321 242 493 q 262 179 226 231 q 376 128 297 128 z "},"∅":{"ha":951,"x_min":69,"x_max":882,"o":"m 189 760 q 249 820 189 760 q 476 879 308 879 q 763 760 644 879 q 882 474 882 642 q 763 186 882 306 q 476 67 644 67 q 189 186 308 67 q 69 474 69 306 q 189 760 69 642 m 433 335 l 508 335 q 528 424 508 383 q 574 489 549 465 q 619 549 599 513 q 639 628 639 586 q 476 757 639 757 q 307 742 406 757 l 311 679 q 476 692 394 692 q 568 628 568 692 q 547 566 568 599 q 501 507 526 533 q 454 435 475 481 q 433 335 433 389 m 499 238 l 444 238 q 435 226 435 238 l 435 175 q 444 165 435 165 l 499 165 q 510 175 510 165 l 510 226 q 499 238 510 238 z "},"∏":{"ha":997,"x_min":49,"x_max":949,"o":"m 949 822 l 818 822 l 818 -139 l 650 -139 l 650 822 l 347 822 l 347 -139 l 179 -139 l 179 822 l 49 822 l 49 958 l 949 958 l 949 822 z "},"∑":{"ha":826,"x_min":63,"x_max":763,"o":"m 749 824 l 268 824 l 481 472 l 249 -39 l 763 -39 l 763 -174 l 63 -174 l 63 -39 l 293 472 l 79 824 l 79 958 l 749 958 l 749 824 z "},"−":{"ha":808,"x_min":92,"x_max":717,"o":"m 717 347 l 92 347 l 92 469 l 717 469 l 717 347 z "},"√":{"ha":797,"x_min":36,"x_max":774,"o":"m 774 1217 l 444 11 q 426 0 440 0 l 228 0 q 210 11 213 0 l 36 681 l 174 681 l 318 110 l 336 110 l 635 1217 l 774 1217 z "},"∞":{"ha":1074,"x_min":71,"x_max":1003,"o":"m 804 625 q 946 576 889 625 q 1003 431 1003 526 q 941 275 1003 331 q 786 219 879 219 q 539 338 657 219 q 283 219 415 219 q 133 276 194 219 q 71 431 71 332 q 130 576 71 526 q 281 625 189 625 q 539 501 418 625 q 804 625 665 625 m 311 336 q 467 421 389 336 q 394 488 428 467 q 306 508 361 508 q 210 425 210 508 q 311 336 210 336 m 764 336 q 865 425 865 336 q 771 508 865 508 q 683 485 717 508 q 611 415 649 461 q 764 336 678 336 z "},"∫":{"ha":504,"x_min":40,"x_max":464,"o":"m 210 -87 l 146 807 q 183 944 140 897 q 310 992 226 992 q 464 986 407 992 l 454 865 l 365 865 q 308 846 325 865 q 294 776 292 826 l 358 -124 q 326 -263 365 -218 q 188 -308 288 -308 q 40 -303 79 -308 l 51 -182 l 136 -182 q 194 -161 178 -182 q 210 -87 211 -140 z "},"≈":{"ha":811,"x_min":97,"x_max":714,"o":"m 206 443 l 97 443 q 121 590 79 543 q 246 633 163 638 q 398 597 288 632 q 553 560 508 563 q 594 572 585 558 q 604 626 604 585 l 714 626 q 692 483 731 532 q 563 438 653 435 q 407 475 517 439 q 257 513 297 511 q 215 499 225 514 q 206 443 206 485 m 206 174 l 97 174 q 121 322 79 274 q 246 365 163 369 q 399 328 289 363 q 553 290 510 293 q 594 303 585 289 q 604 358 604 317 l 714 358 q 563 169 747 165 q 407 206 517 171 q 257 243 297 242 q 215 231 225 244 q 206 174 206 217 z "},"≠":{"ha":856,"x_min":114,"x_max":740,"o":"m 490 496 l 386 324 l 740 324 l 740 201 l 313 201 l 208 31 l 165 53 l 256 201 l 114 201 l 114 324 l 329 324 l 433 496 l 114 496 l 114 618 l 508 618 l 599 769 l 643 747 l 565 618 l 740 618 l 740 496 l 490 496 z "},"≤":{"ha":775,"x_min":82,"x_max":686,"o":"m 679 632 l 242 514 l 679 404 l 679 272 l 97 449 l 97 581 l 679 765 l 679 632 m 686 88 l 82 88 l 82 213 l 686 213 l 686 88 z "},"≥":{"ha":775,"x_min":89,"x_max":694,"o":"m 678 581 l 678 449 l 97 272 l 97 404 l 533 514 l 97 632 l 97 765 l 678 581 m 694 88 l 89 88 l 89 213 l 694 213 l 694 88 z "},"◊":{"ha":792,"x_min":42,"x_max":750,"o":"m 408 960 l 750 493 q 750 468 757 481 l 408 -1 q 385 -1 397 -18 l 42 468 q 42 493 35 481 l 385 960 q 408 960 397 976 m 175 481 l 397 164 l 617 481 l 397 794 l 175 481 z "},"ﬁ":{"ha":890,"x_min":33,"x_max":793,"o":"m 790 681 l 790 0 l 622 0 l 622 558 l 324 558 l 324 0 l 154 0 l 154 558 l 33 558 l 33 674 l 154 681 l 154 775 q 204 942 154 885 q 367 999 254 999 q 539 986 471 999 l 539 867 l 426 867 q 346 842 368 867 q 324 754 324 817 l 324 681 l 790 681 m 667 978 l 744 978 q 793 929 793 978 l 793 854 q 744 806 793 806 l 667 806 q 618 854 618 806 l 618 929 q 667 978 618 978 z "},"ﬂ":{"ha":971,"x_min":32,"x_max":961,"o":"m 942 117 l 961 8 q 817 -15 911 -15 q 683 30 732 -15 q 635 154 635 75 l 635 868 l 424 868 q 344 844 367 869 q 322 754 322 818 l 322 681 l 506 681 l 506 558 l 322 558 l 322 0 l 153 0 l 153 558 l 32 558 l 32 674 l 153 681 l 153 775 q 202 942 153 885 q 364 999 251 1000 q 804 976 682 999 l 804 194 q 883 117 804 117 l 942 117 z "}}}
